<svg xmlns="http://www.w3.org/2000/svg" xmlns:xlink="http://www.w3.org/1999/xlink" width="1908" height="901" version="1.1">
<style type="text/css">
.l0{
  fill: #000000;
  stroke: #000000;
  stroke-linecap:round;
  stroke-linejoin:round;
  stroke-width: 8.73985;
}
.l1{
  fill: #00ccee;
  stroke: #00ccee;
  stroke-linecap:round;
  stroke-linejoin:round;
  stroke-width: 8.73985;
}
.l2{
  fill: #4f4f4f; fill-opacity: 0.2;
  stroke: #4f4f4f;
  stroke-linecap:round;
  stroke-linejoin:round;
  stroke-width: 8.73985;
}
.l3{
  fill: #cccccc; fill-opacity: 0.5;
  stroke: #cccccc;
  stroke-linecap:round;
  stroke-linejoin:round;
  stroke-width: 8.73985;
}
.l4{
  fill: #88dd00;
  stroke: #88dd00;
  stroke-linecap:round;
  stroke-linejoin:round;
  stroke-width: 8.73985;
}
.l5{
  fill: #bb2200;
  stroke: #bb2200;
  stroke-linecap:round;
  stroke-linejoin:round;
  stroke-width: 8.73985;
}
.l6{
  fill: #00ccee; fill-opacity: 0.5;
  stroke: #00ccee;
  stroke-linecap:round;
  stroke-linejoin:round;
  stroke-width: 8.73985;
}
.l7{
  fill: #ff0000; fill-opacity: 0.5;
  stroke: #ff0000;
  stroke-linecap:round;
  stroke-linejoin:round;
  stroke-width: 8.73985;
}
.l8{
  fill: #ffff00; fill-opacity: 0.5;
  stroke: #ffff00;
  stroke-linecap:round;
  stroke-linejoin:round;
  stroke-width: 8.73985;
}
.l9{
  fill: #ffffff; fill-opacity: 0.5;
  stroke: #ffffff;
  stroke-linecap:round;
  stroke-linejoin:round;
  stroke-width: 8.73985;
}
.l10{
  fill: #ff00ff;
  stroke: #ff00ff;
  stroke-linecap:round;
  stroke-linejoin:round;
  stroke-width: 8.73985;
}
.l11{
  fill: #00ff00; fill-opacity: 0.5;
  stroke: #00ff00;
  stroke-linecap:round;
  stroke-linejoin:round;
  stroke-width: 8.73985;
}
.l12{
  fill: #0044ff; fill-opacity: 0.5;
  stroke: #0044ff;
  stroke-linecap:round;
  stroke-linejoin:round;
  stroke-width: 8.73985;
}
.l13{
  fill: #aaaa00; fill-opacity: 0.5;
  stroke: #aaaa00;
  stroke-linecap:round;
  stroke-linejoin:round;
  stroke-width: 8.73985;
}
.l14{
  fill: #aaccaa; fill-opacity: 0.2;
  stroke: #aaccaa;
  stroke-linecap:round;
  stroke-linejoin:round;
  stroke-width: 8.73985;
}
.l15{
  fill: #ff7777; fill-opacity: 0.5;
  stroke: #ff7777;
  stroke-linecap:round;
  stroke-linejoin:round;
  stroke-width: 8.73985;
}
.l16{
  fill: #bfff81; fill-opacity: 0.5;
  stroke: #bfff81;
  stroke-linecap:round;
  stroke-linejoin:round;
  stroke-width: 8.73985;
}
.l17{
  fill: #00ffcc; fill-opacity: 0.2;
  stroke: #00ffcc;
  stroke-linecap:round;
  stroke-linejoin:round;
  stroke-width: 8.73985;
}
.l18{
  fill: #ce0097; fill-opacity: 0.5;
  stroke: #ce0097;
  stroke-linecap:round;
  stroke-linejoin:round;
  stroke-width: 8.73985;
}
.l19{
  fill: #d2d46b; fill-opacity: 0.2;
  stroke: #d2d46b;
  stroke-linecap:round;
  stroke-linejoin:round;
  stroke-width: 8.73985;
}
.l20{
  fill: #ef6158; fill-opacity: 0.2;
  stroke: #ef6158;
  stroke-linecap:round;
  stroke-linejoin:round;
  stroke-width: 8.73985;
}
.l21{
  fill: #fdb200; fill-opacity: 0.2;
  stroke: #fdb200;
  stroke-linecap:round;
  stroke-linejoin:round;
  stroke-width: 8.73985;
}
text {font-family: Sans-Serif;}
</style>
<rect class="l0" x="0" y="0" width="1908" height="901"/>
<path class="l4" d="M656.368 126.794L721.108 126.794"/>
<path class="l4" d="M721.108 126.794L737.292 175.349"/>
<path class="l4" d="M737.292 175.349L769.662 78.2397"/>
<path class="l4" d="M769.662 78.2397L802.032 175.349"/>
<path class="l4" d="M802.032 175.349L834.402 78.2397"/>
<path class="l4" d="M834.402 78.2397L866.772 175.349"/>
<path class="l4" d="M866.772 175.349L899.142 78.2397"/>
<path class="l4" d="M899.142 78.2397L931.511 175.349"/>
<path class="l4" d="M931.511 175.349L963.881 78.2397"/>
<path class="l4" d="M963.881 78.2397L980.066 126.794"/>
<path class="l4" d="M980.066 126.794L1044.81 126.794"/>
<path class="l4" d="M996.251 142.979L996.251 175.349"/>
<path class="l4" d="M980.066 159.164L1012.44 159.164"/>
<path class="l4" d="M1303.76 612.342L1303.76 774.191"/>
<path class="l4" d="M1303.76 385.753L1303.76 547.602"/>
<path class="l4" d="M1239.02 547.602L1368.5 547.602"/>
<path class="l4" d="M1239.02 612.342L1368.5 612.342"/>
<path class="l4" d="M1319.95 434.308L1352.32 434.308"/>
<path class="l4" d="M1336.13 418.123L1336.13 450.493"/>
<path class="l4" d="M1303.76 774.191L1303.76 855.115"/>
<path class="l4" d="M1271.39 855.115L1336.13 855.115"/>
<path class="l4" d="M1303.76 887.485L1336.13 855.115"/>
<path class="l4" d="M1271.39 855.115L1303.76 887.485"/>
<path class="l5" d="M1028.62 110.61L1060.99 110.61L1060.99 142.979L1028.62 142.979L1028.62 110.61z"/>
<path class="l5" d="M640.183 110.61L672.553 110.61L672.553 142.979L640.183 142.979L640.183 110.61z"/>
<path class="l5" d="M1287.58 369.568L1319.95 369.568L1319.95 401.938L1287.58 401.938L1287.58 369.568z"/>
<path class="l5" d="M1287.58 758.006L1319.95 758.006L1319.95 790.376L1287.58 790.376L1287.58 758.006z"/>
<path class="l5" d="M1287.58 758.006L1319.95 758.006L1319.95 790.376L1287.58 790.376L1287.58 758.006z"/>
<path class="l5" d="M1554.63 118.702L1570.82 118.702L1570.82 134.887L1554.63 134.887L1554.63 118.702z"/>
<path class="l5" d="M518.796 118.702L534.981 118.702L534.981 134.887L518.796 134.887L518.796 118.702z"/>
<text fill="#aaaa00"  xml:space="preserve" font-size="67.3292" transform="translate(1004.44, 62.0548) rotate(270)" >1</text>
<text fill="#aaaa00"  xml:space="preserve" font-size="67.3292" transform="translate(729.293, 62.0548) rotate(270)" >2</text>
<text fill="#cccccc"  xml:space="preserve" font-size="67.3292" transform="translate(955.882, 313.904) rotate(270)" >R1</text>
<text fill="#cccccc"  xml:space="preserve" font-size="67.3292" transform="translate(874.957, 391.904) rotate(270)" >100k</text>
<text fill="#cccccc"  xml:space="preserve" font-size="67.3292" transform="translate(794.033, 388.904) rotate(270)" >m=1</text>
<text fill="#aaaa00"  xml:space="preserve" font-size="67.3292" transform="translate(1228.39, 471.165)" >1</text>
<text fill="#aaaa00"  xml:space="preserve" font-size="67.3292" transform="translate(1228.39, 746.309)" >2</text>
<text fill="#cccccc"  xml:space="preserve" font-size="67.3292" transform="translate(1400.87, 519.72)" >C1</text>
<text fill="#cccccc"  xml:space="preserve" font-size="67.3292" transform="translate(1400.87, 600.644)" >25.5p</text>
<text fill="#cccccc"  xml:space="preserve" font-size="67.3292" transform="translate(1400.87, 681.569)" >m=1</text>
<text fill="#00ccee"  xml:space="preserve" font-size="67.3292" transform="translate(1352.32, 867.695)" >GND</text>
<text fill="#00ccee"  xml:space="preserve" font-size="111.093" transform="translate(1611.28, 152.844)" >out</text>
<text fill="#00ccee"  xml:space="preserve" font-size="90.8944" transform="translate(276.704, 96.9782)" >unfilt</text>
<path class="l1" d="M1303.76 126.794L1303.76 385.753"/>
<path class="l1" d="M1044.81 126.794L1303.76 126.794"/>
<path class="l1" d="M1303.76 126.794L1562.72 126.794"/>
<path class="l1" d="M138.451 126.794L656.368 126.794"/>
<circle class="l1" cx="1303.76" cy="126.794" r="23.9537"/>
<circle class="l1" cx="1303.76" cy="126.794" r="23.9537"/>
<circle class="l1" cx="1303.76" cy="126.794" r="23.9537"/>
</svg>
