<?xml version="1.0" encoding="utf-8" standalone="no"?>
<!DOCTYPE svg PUBLIC "-//W3C//DTD SVG 1.1//EN"
  "http://www.w3.org/Graphics/SVG/1.1/DTD/svg11.dtd">
<svg xmlns:xlink="http://www.w3.org/1999/xlink" width="599.440625pt" height="387.994687pt" viewBox="0 0 599.440625 387.994687" xmlns="http://www.w3.org/2000/svg" version="1.1">
 <metadata>
  <rdf:RDF xmlns:dc="http://purl.org/dc/elements/1.1/" xmlns:cc="http://creativecommons.org/ns#" xmlns:rdf="http://www.w3.org/1999/02/22-rdf-syntax-ns#">
   <cc:Work>
    <dc:type rdf:resource="http://purl.org/dc/dcmitype/StillImage"/>
    <dc:date>2025-08-11T12:15:03.889735</dc:date>
    <dc:format>image/svg+xml</dc:format>
    <dc:creator>
     <cc:Agent>
      <dc:title>Matplotlib v3.10.3, https://matplotlib.org/</dc:title>
     </cc:Agent>
    </dc:creator>
   </cc:Work>
  </rdf:RDF>
 </metadata>
 <defs>
  <style type="text/css">*{stroke-linejoin: round; stroke-linecap: butt}</style>
 </defs>
 <g id="figure_1">
  <g id="patch_1">
   <path d="M 0 387.994687 
L 599.440625 387.994687 
L 599.440625 0 
L 0 0 
z
" style="fill: #ffffff"/>
  </g>
  <g id="axes_1">
   <g id="patch_2">
    <path d="M 34.240625 350.438437 
L 592.240625 350.438437 
L 592.240625 17.798437 
L 34.240625 17.798437 
z
" style="fill: #ffffff"/>
   </g>
   <g id="matplotlib.axis_1">
    <g id="xtick_1">
     <g id="line2d_1">
      <path d="M 59.604261 350.438437 
L 59.604261 17.798437 
" clip-path="url(#p1024b946b7)" style="fill: none; stroke: #b0b0b0; stroke-width: 0.8; stroke-linecap: square"/>
     </g>
     <g id="line2d_2">
      <defs>
       <path id="m9d3b0c894a" d="M 0 0 
L 0 3.5 
" style="stroke: #000000; stroke-width: 0.8"/>
      </defs>
      <g>
       <use xlink:href="#m9d3b0c894a" x="59.604261" y="350.438437" style="stroke: #000000; stroke-width: 0.8"/>
      </g>
     </g>
     <g id="text_1">
      <!-- 0.0 -->
      <g transform="translate(51.652699 365.036875) scale(0.1 -0.1)">
       <defs>
        <path id="DejaVuSans-30" d="M 2034 4250 
Q 1547 4250 1301 3770 
Q 1056 3291 1056 2328 
Q 1056 1369 1301 889 
Q 1547 409 2034 409 
Q 2525 409 2770 889 
Q 3016 1369 3016 2328 
Q 3016 3291 2770 3770 
Q 2525 4250 2034 4250 
z
M 2034 4750 
Q 2819 4750 3233 4129 
Q 3647 3509 3647 2328 
Q 3647 1150 3233 529 
Q 2819 -91 2034 -91 
Q 1250 -91 836 529 
Q 422 1150 422 2328 
Q 422 3509 836 4129 
Q 1250 4750 2034 4750 
z
" transform="scale(0.015625)"/>
        <path id="DejaVuSans-2e" d="M 684 794 
L 1344 794 
L 1344 0 
L 684 0 
L 684 794 
z
" transform="scale(0.015625)"/>
       </defs>
       <use xlink:href="#DejaVuSans-30"/>
       <use xlink:href="#DejaVuSans-2e" transform="translate(63.623047 0)"/>
       <use xlink:href="#DejaVuSans-30" transform="translate(95.410156 0)"/>
      </g>
     </g>
    </g>
    <g id="xtick_2">
     <g id="line2d_3">
      <path d="M 144.149716 350.438437 
L 144.149716 17.798437 
" clip-path="url(#p1024b946b7)" style="fill: none; stroke: #b0b0b0; stroke-width: 0.8; stroke-linecap: square"/>
     </g>
     <g id="line2d_4">
      <g>
       <use xlink:href="#m9d3b0c894a" x="144.149716" y="350.438437" style="stroke: #000000; stroke-width: 0.8"/>
      </g>
     </g>
     <g id="text_2">
      <!-- 0.2 -->
      <g transform="translate(136.198153 365.036875) scale(0.1 -0.1)">
       <defs>
        <path id="DejaVuSans-32" d="M 1228 531 
L 3431 531 
L 3431 0 
L 469 0 
L 469 531 
Q 828 903 1448 1529 
Q 2069 2156 2228 2338 
Q 2531 2678 2651 2914 
Q 2772 3150 2772 3378 
Q 2772 3750 2511 3984 
Q 2250 4219 1831 4219 
Q 1534 4219 1204 4116 
Q 875 4013 500 3803 
L 500 4441 
Q 881 4594 1212 4672 
Q 1544 4750 1819 4750 
Q 2544 4750 2975 4387 
Q 3406 4025 3406 3419 
Q 3406 3131 3298 2873 
Q 3191 2616 2906 2266 
Q 2828 2175 2409 1742 
Q 1991 1309 1228 531 
z
" transform="scale(0.015625)"/>
       </defs>
       <use xlink:href="#DejaVuSans-30"/>
       <use xlink:href="#DejaVuSans-2e" transform="translate(63.623047 0)"/>
       <use xlink:href="#DejaVuSans-32" transform="translate(95.410156 0)"/>
      </g>
     </g>
    </g>
    <g id="xtick_3">
     <g id="line2d_5">
      <path d="M 228.69517 350.438437 
L 228.69517 17.798437 
" clip-path="url(#p1024b946b7)" style="fill: none; stroke: #b0b0b0; stroke-width: 0.8; stroke-linecap: square"/>
     </g>
     <g id="line2d_6">
      <g>
       <use xlink:href="#m9d3b0c894a" x="228.69517" y="350.438437" style="stroke: #000000; stroke-width: 0.8"/>
      </g>
     </g>
     <g id="text_3">
      <!-- 0.4 -->
      <g transform="translate(220.743608 365.036875) scale(0.1 -0.1)">
       <defs>
        <path id="DejaVuSans-34" d="M 2419 4116 
L 825 1625 
L 2419 1625 
L 2419 4116 
z
M 2253 4666 
L 3047 4666 
L 3047 1625 
L 3713 1625 
L 3713 1100 
L 3047 1100 
L 3047 0 
L 2419 0 
L 2419 1100 
L 313 1100 
L 313 1709 
L 2253 4666 
z
" transform="scale(0.015625)"/>
       </defs>
       <use xlink:href="#DejaVuSans-30"/>
       <use xlink:href="#DejaVuSans-2e" transform="translate(63.623047 0)"/>
       <use xlink:href="#DejaVuSans-34" transform="translate(95.410156 0)"/>
      </g>
     </g>
    </g>
    <g id="xtick_4">
     <g id="line2d_7">
      <path d="M 313.240625 350.438437 
L 313.240625 17.798437 
" clip-path="url(#p1024b946b7)" style="fill: none; stroke: #b0b0b0; stroke-width: 0.8; stroke-linecap: square"/>
     </g>
     <g id="line2d_8">
      <g>
       <use xlink:href="#m9d3b0c894a" x="313.240625" y="350.438437" style="stroke: #000000; stroke-width: 0.8"/>
      </g>
     </g>
     <g id="text_4">
      <!-- 0.6 -->
      <g transform="translate(305.289062 365.036875) scale(0.1 -0.1)">
       <defs>
        <path id="DejaVuSans-36" d="M 2113 2584 
Q 1688 2584 1439 2293 
Q 1191 2003 1191 1497 
Q 1191 994 1439 701 
Q 1688 409 2113 409 
Q 2538 409 2786 701 
Q 3034 994 3034 1497 
Q 3034 2003 2786 2293 
Q 2538 2584 2113 2584 
z
M 3366 4563 
L 3366 3988 
Q 3128 4100 2886 4159 
Q 2644 4219 2406 4219 
Q 1781 4219 1451 3797 
Q 1122 3375 1075 2522 
Q 1259 2794 1537 2939 
Q 1816 3084 2150 3084 
Q 2853 3084 3261 2657 
Q 3669 2231 3669 1497 
Q 3669 778 3244 343 
Q 2819 -91 2113 -91 
Q 1303 -91 875 529 
Q 447 1150 447 2328 
Q 447 3434 972 4092 
Q 1497 4750 2381 4750 
Q 2619 4750 2861 4703 
Q 3103 4656 3366 4563 
z
" transform="scale(0.015625)"/>
       </defs>
       <use xlink:href="#DejaVuSans-30"/>
       <use xlink:href="#DejaVuSans-2e" transform="translate(63.623047 0)"/>
       <use xlink:href="#DejaVuSans-36" transform="translate(95.410156 0)"/>
      </g>
     </g>
    </g>
    <g id="xtick_5">
     <g id="line2d_9">
      <path d="M 397.78608 350.438437 
L 397.78608 17.798437 
" clip-path="url(#p1024b946b7)" style="fill: none; stroke: #b0b0b0; stroke-width: 0.8; stroke-linecap: square"/>
     </g>
     <g id="line2d_10">
      <g>
       <use xlink:href="#m9d3b0c894a" x="397.78608" y="350.438437" style="stroke: #000000; stroke-width: 0.8"/>
      </g>
     </g>
     <g id="text_5">
      <!-- 0.8 -->
      <g transform="translate(389.834517 365.036875) scale(0.1 -0.1)">
       <defs>
        <path id="DejaVuSans-38" d="M 2034 2216 
Q 1584 2216 1326 1975 
Q 1069 1734 1069 1313 
Q 1069 891 1326 650 
Q 1584 409 2034 409 
Q 2484 409 2743 651 
Q 3003 894 3003 1313 
Q 3003 1734 2745 1975 
Q 2488 2216 2034 2216 
z
M 1403 2484 
Q 997 2584 770 2862 
Q 544 3141 544 3541 
Q 544 4100 942 4425 
Q 1341 4750 2034 4750 
Q 2731 4750 3128 4425 
Q 3525 4100 3525 3541 
Q 3525 3141 3298 2862 
Q 3072 2584 2669 2484 
Q 3125 2378 3379 2068 
Q 3634 1759 3634 1313 
Q 3634 634 3220 271 
Q 2806 -91 2034 -91 
Q 1263 -91 848 271 
Q 434 634 434 1313 
Q 434 1759 690 2068 
Q 947 2378 1403 2484 
z
M 1172 3481 
Q 1172 3119 1398 2916 
Q 1625 2713 2034 2713 
Q 2441 2713 2670 2916 
Q 2900 3119 2900 3481 
Q 2900 3844 2670 4047 
Q 2441 4250 2034 4250 
Q 1625 4250 1398 4047 
Q 1172 3844 1172 3481 
z
" transform="scale(0.015625)"/>
       </defs>
       <use xlink:href="#DejaVuSans-30"/>
       <use xlink:href="#DejaVuSans-2e" transform="translate(63.623047 0)"/>
       <use xlink:href="#DejaVuSans-38" transform="translate(95.410156 0)"/>
      </g>
     </g>
    </g>
    <g id="xtick_6">
     <g id="line2d_11">
      <path d="M 482.331534 350.438437 
L 482.331534 17.798437 
" clip-path="url(#p1024b946b7)" style="fill: none; stroke: #b0b0b0; stroke-width: 0.8; stroke-linecap: square"/>
     </g>
     <g id="line2d_12">
      <g>
       <use xlink:href="#m9d3b0c894a" x="482.331534" y="350.438437" style="stroke: #000000; stroke-width: 0.8"/>
      </g>
     </g>
     <g id="text_6">
      <!-- 1.0 -->
      <g transform="translate(474.379972 365.036875) scale(0.1 -0.1)">
       <defs>
        <path id="DejaVuSans-31" d="M 794 531 
L 1825 531 
L 1825 4091 
L 703 3866 
L 703 4441 
L 1819 4666 
L 2450 4666 
L 2450 531 
L 3481 531 
L 3481 0 
L 794 0 
L 794 531 
z
" transform="scale(0.015625)"/>
       </defs>
       <use xlink:href="#DejaVuSans-31"/>
       <use xlink:href="#DejaVuSans-2e" transform="translate(63.623047 0)"/>
       <use xlink:href="#DejaVuSans-30" transform="translate(95.410156 0)"/>
      </g>
     </g>
    </g>
    <g id="xtick_7">
     <g id="line2d_13">
      <path d="M 566.876989 350.438437 
L 566.876989 17.798437 
" clip-path="url(#p1024b946b7)" style="fill: none; stroke: #b0b0b0; stroke-width: 0.8; stroke-linecap: square"/>
     </g>
     <g id="line2d_14">
      <g>
       <use xlink:href="#m9d3b0c894a" x="566.876989" y="350.438437" style="stroke: #000000; stroke-width: 0.8"/>
      </g>
     </g>
     <g id="text_7">
      <!-- 1.2 -->
      <g transform="translate(558.925426 365.036875) scale(0.1 -0.1)">
       <use xlink:href="#DejaVuSans-31"/>
       <use xlink:href="#DejaVuSans-2e" transform="translate(63.623047 0)"/>
       <use xlink:href="#DejaVuSans-32" transform="translate(95.410156 0)"/>
      </g>
     </g>
    </g>
    <g id="text_8">
     <!-- $V_{ds}$ [V] -->
     <g transform="translate(296.690625 378.715) scale(0.1 -0.1)">
      <defs>
       <path id="DejaVuSans-Oblique-56" d="M 1319 0 
L 500 4666 
L 1119 4666 
L 1797 653 
L 4063 4666 
L 4750 4666 
L 2053 0 
L 1319 0 
z
" transform="scale(0.015625)"/>
       <path id="DejaVuSans-Oblique-64" d="M 2675 525 
Q 2444 222 2128 65 
Q 1813 -91 1428 -91 
Q 903 -91 598 267 
Q 294 625 294 1247 
Q 294 1766 478 2236 
Q 663 2706 1013 3078 
Q 1244 3325 1534 3454 
Q 1825 3584 2144 3584 
Q 2481 3584 2739 3421 
Q 2997 3259 3138 2956 
L 3513 4863 
L 4091 4863 
L 3144 0 
L 2566 0 
L 2675 525 
z
M 891 1350 
Q 891 897 1095 644 
Q 1300 391 1663 391 
Q 1931 391 2161 520 
Q 2391 650 2566 903 
Q 2750 1166 2856 1509 
Q 2963 1853 2963 2188 
Q 2963 2622 2758 2865 
Q 2553 3109 2194 3109 
Q 1922 3109 1687 2981 
Q 1453 2853 1288 2613 
Q 1106 2353 998 2009 
Q 891 1666 891 1350 
z
" transform="scale(0.015625)"/>
       <path id="DejaVuSans-Oblique-73" d="M 3200 3397 
L 3091 2853 
Q 2863 2978 2609 3040 
Q 2356 3103 2088 3103 
Q 1634 3103 1373 2948 
Q 1113 2794 1113 2528 
Q 1113 2219 1719 2053 
Q 1766 2041 1788 2034 
L 1972 1978 
Q 2547 1819 2739 1644 
Q 2931 1469 2931 1166 
Q 2931 609 2489 259 
Q 2047 -91 1331 -91 
Q 1053 -91 747 -37 
Q 441 16 72 128 
L 184 722 
Q 500 559 806 475 
Q 1113 391 1394 391 
Q 1816 391 2080 572 
Q 2344 753 2344 1031 
Q 2344 1331 1650 1516 
L 1591 1531 
L 1394 1581 
Q 956 1697 753 1886 
Q 550 2075 550 2369 
Q 550 2928 970 3256 
Q 1391 3584 2113 3584 
Q 2397 3584 2667 3537 
Q 2938 3491 3200 3397 
z
" transform="scale(0.015625)"/>
       <path id="DejaVuSans-20" transform="scale(0.015625)"/>
       <path id="DejaVuSans-5b" d="M 550 4863 
L 1875 4863 
L 1875 4416 
L 1125 4416 
L 1125 -397 
L 1875 -397 
L 1875 -844 
L 550 -844 
L 550 4863 
z
" transform="scale(0.015625)"/>
       <path id="DejaVuSans-56" d="M 1831 0 
L 50 4666 
L 709 4666 
L 2188 738 
L 3669 4666 
L 4325 4666 
L 2547 0 
L 1831 0 
z
" transform="scale(0.015625)"/>
       <path id="DejaVuSans-5d" d="M 1947 4863 
L 1947 -844 
L 622 -844 
L 622 -397 
L 1369 -397 
L 1369 4416 
L 622 4416 
L 622 4863 
L 1947 4863 
z
" transform="scale(0.015625)"/>
      </defs>
      <use xlink:href="#DejaVuSans-Oblique-56" transform="translate(0 0.015625)"/>
      <use xlink:href="#DejaVuSans-Oblique-64" transform="translate(68.408203 -16.390625) scale(0.7)"/>
      <use xlink:href="#DejaVuSans-Oblique-73" transform="translate(112.841797 -16.390625) scale(0.7)"/>
      <use xlink:href="#DejaVuSans-20" transform="translate(152.045898 0.015625)"/>
      <use xlink:href="#DejaVuSans-5b" transform="translate(183.833008 0.015625)"/>
      <use xlink:href="#DejaVuSans-56" transform="translate(222.84668 0.015625)"/>
      <use xlink:href="#DejaVuSans-5d" transform="translate(291.254883 0.015625)"/>
     </g>
    </g>
   </g>
   <g id="matplotlib.axis_2">
    <g id="ytick_1">
     <g id="line2d_15">
      <path d="M 34.240625 335.318437 
L 592.240625 335.318437 
" clip-path="url(#p1024b946b7)" style="fill: none; stroke: #b0b0b0; stroke-width: 0.8; stroke-linecap: square"/>
     </g>
     <g id="line2d_16">
      <defs>
       <path id="m40197f9d07" d="M 0 0 
L -3.5 0 
" style="stroke: #000000; stroke-width: 0.8"/>
      </defs>
      <g>
       <use xlink:href="#m40197f9d07" x="34.240625" y="335.318437" style="stroke: #000000; stroke-width: 0.8"/>
      </g>
     </g>
     <g id="text_9">
      <!-- 0 -->
      <g transform="translate(20.878125 339.117655) scale(0.1 -0.1)">
       <use xlink:href="#DejaVuSans-30"/>
      </g>
     </g>
    </g>
    <g id="ytick_2">
     <g id="line2d_17">
      <path d="M 34.240625 278.898706 
L 592.240625 278.898706 
" clip-path="url(#p1024b946b7)" style="fill: none; stroke: #b0b0b0; stroke-width: 0.8; stroke-linecap: square"/>
     </g>
     <g id="line2d_18">
      <g>
       <use xlink:href="#m40197f9d07" x="34.240625" y="278.898706" style="stroke: #000000; stroke-width: 0.8"/>
      </g>
     </g>
     <g id="text_10">
      <!-- 1 -->
      <g transform="translate(20.878125 282.697925) scale(0.1 -0.1)">
       <use xlink:href="#DejaVuSans-31"/>
      </g>
     </g>
    </g>
    <g id="ytick_3">
     <g id="line2d_19">
      <path d="M 34.240625 222.478975 
L 592.240625 222.478975 
" clip-path="url(#p1024b946b7)" style="fill: none; stroke: #b0b0b0; stroke-width: 0.8; stroke-linecap: square"/>
     </g>
     <g id="line2d_20">
      <g>
       <use xlink:href="#m40197f9d07" x="34.240625" y="222.478975" style="stroke: #000000; stroke-width: 0.8"/>
      </g>
     </g>
     <g id="text_11">
      <!-- 2 -->
      <g transform="translate(20.878125 226.278194) scale(0.1 -0.1)">
       <use xlink:href="#DejaVuSans-32"/>
      </g>
     </g>
    </g>
    <g id="ytick_4">
     <g id="line2d_21">
      <path d="M 34.240625 166.059245 
L 592.240625 166.059245 
" clip-path="url(#p1024b946b7)" style="fill: none; stroke: #b0b0b0; stroke-width: 0.8; stroke-linecap: square"/>
     </g>
     <g id="line2d_22">
      <g>
       <use xlink:href="#m40197f9d07" x="34.240625" y="166.059245" style="stroke: #000000; stroke-width: 0.8"/>
      </g>
     </g>
     <g id="text_12">
      <!-- 3 -->
      <g transform="translate(20.878125 169.858463) scale(0.1 -0.1)">
       <defs>
        <path id="DejaVuSans-33" d="M 2597 2516 
Q 3050 2419 3304 2112 
Q 3559 1806 3559 1356 
Q 3559 666 3084 287 
Q 2609 -91 1734 -91 
Q 1441 -91 1130 -33 
Q 819 25 488 141 
L 488 750 
Q 750 597 1062 519 
Q 1375 441 1716 441 
Q 2309 441 2620 675 
Q 2931 909 2931 1356 
Q 2931 1769 2642 2001 
Q 2353 2234 1838 2234 
L 1294 2234 
L 1294 2753 
L 1863 2753 
Q 2328 2753 2575 2939 
Q 2822 3125 2822 3475 
Q 2822 3834 2567 4026 
Q 2313 4219 1838 4219 
Q 1578 4219 1281 4162 
Q 984 4106 628 3988 
L 628 4550 
Q 988 4650 1302 4700 
Q 1616 4750 1894 4750 
Q 2613 4750 3031 4423 
Q 3450 4097 3450 3541 
Q 3450 3153 3228 2886 
Q 3006 2619 2597 2516 
z
" transform="scale(0.015625)"/>
       </defs>
       <use xlink:href="#DejaVuSans-33"/>
      </g>
     </g>
    </g>
    <g id="ytick_5">
     <g id="line2d_23">
      <path d="M 34.240625 109.639514 
L 592.240625 109.639514 
" clip-path="url(#p1024b946b7)" style="fill: none; stroke: #b0b0b0; stroke-width: 0.8; stroke-linecap: square"/>
     </g>
     <g id="line2d_24">
      <g>
       <use xlink:href="#m40197f9d07" x="34.240625" y="109.639514" style="stroke: #000000; stroke-width: 0.8"/>
      </g>
     </g>
     <g id="text_13">
      <!-- 4 -->
      <g transform="translate(20.878125 113.438733) scale(0.1 -0.1)">
       <use xlink:href="#DejaVuSans-34"/>
      </g>
     </g>
    </g>
    <g id="ytick_6">
     <g id="line2d_25">
      <path d="M 34.240625 53.219783 
L 592.240625 53.219783 
" clip-path="url(#p1024b946b7)" style="fill: none; stroke: #b0b0b0; stroke-width: 0.8; stroke-linecap: square"/>
     </g>
     <g id="line2d_26">
      <g>
       <use xlink:href="#m40197f9d07" x="34.240625" y="53.219783" style="stroke: #000000; stroke-width: 0.8"/>
      </g>
     </g>
     <g id="text_14">
      <!-- 5 -->
      <g transform="translate(20.878125 57.019002) scale(0.1 -0.1)">
       <defs>
        <path id="DejaVuSans-35" d="M 691 4666 
L 3169 4666 
L 3169 4134 
L 1269 4134 
L 1269 2991 
Q 1406 3038 1543 3061 
Q 1681 3084 1819 3084 
Q 2600 3084 3056 2656 
Q 3513 2228 3513 1497 
Q 3513 744 3044 326 
Q 2575 -91 1722 -91 
Q 1428 -91 1123 -41 
Q 819 9 494 109 
L 494 744 
Q 775 591 1075 516 
Q 1375 441 1709 441 
Q 2250 441 2565 725 
Q 2881 1009 2881 1497 
Q 2881 1984 2565 2268 
Q 2250 2553 1709 2553 
Q 1456 2553 1204 2497 
Q 953 2441 691 2322 
L 691 4666 
z
" transform="scale(0.015625)"/>
       </defs>
       <use xlink:href="#DejaVuSans-35"/>
      </g>
     </g>
    </g>
    <g id="text_15">
     <!-- $I_{d} [A]$ -->
     <g transform="translate(14.798438 195.318437) rotate(-90) scale(0.1 -0.1)">
      <defs>
       <path id="DejaVuSans-Oblique-49" d="M 1081 4666 
L 1716 4666 
L 806 0 
L 172 0 
L 1081 4666 
z
" transform="scale(0.015625)"/>
       <path id="DejaVuSans-Oblique-41" d="M 2356 4666 
L 3072 4666 
L 3938 0 
L 3278 0 
L 3084 1197 
L 984 1197 
L 325 0 
L -341 0 
L 2356 4666 
z
M 2584 4044 
L 1275 1722 
L 2988 1722 
L 2584 4044 
z
" transform="scale(0.015625)"/>
      </defs>
      <use xlink:href="#DejaVuSans-Oblique-49" transform="translate(0 0.015625)"/>
      <use xlink:href="#DejaVuSans-Oblique-64" transform="translate(29.492188 -16.390625) scale(0.7)"/>
      <use xlink:href="#DejaVuSans-5b" transform="translate(76.660156 0.015625)"/>
      <use xlink:href="#DejaVuSans-Oblique-41" transform="translate(115.673828 0.015625)"/>
      <use xlink:href="#DejaVuSans-5d" transform="translate(184.082031 0.015625)"/>
     </g>
    </g>
    <g id="text_16">
     <!-- 1e−5 -->
     <g transform="translate(34.240625 14.798437) scale(0.1 -0.1)">
      <defs>
       <path id="DejaVuSans-65" d="M 3597 1894 
L 3597 1613 
L 953 1613 
Q 991 1019 1311 708 
Q 1631 397 2203 397 
Q 2534 397 2845 478 
Q 3156 559 3463 722 
L 3463 178 
Q 3153 47 2828 -22 
Q 2503 -91 2169 -91 
Q 1331 -91 842 396 
Q 353 884 353 1716 
Q 353 2575 817 3079 
Q 1281 3584 2069 3584 
Q 2775 3584 3186 3129 
Q 3597 2675 3597 1894 
z
M 3022 2063 
Q 3016 2534 2758 2815 
Q 2500 3097 2075 3097 
Q 1594 3097 1305 2825 
Q 1016 2553 972 2059 
L 3022 2063 
z
" transform="scale(0.015625)"/>
       <path id="DejaVuSans-2212" d="M 678 2272 
L 4684 2272 
L 4684 1741 
L 678 1741 
L 678 2272 
z
" transform="scale(0.015625)"/>
      </defs>
      <use xlink:href="#DejaVuSans-31"/>
      <use xlink:href="#DejaVuSans-65" transform="translate(63.623047 0)"/>
      <use xlink:href="#DejaVuSans-2212" transform="translate(125.146484 0)"/>
      <use xlink:href="#DejaVuSans-35" transform="translate(208.935547 0)"/>
     </g>
    </g>
   </g>
   <g id="line2d_27">
    <path d="M 59.604261 335.318437 
L 63.831534 335.309284 
L 68.058807 335.302772 
L 72.28608 335.298166 
L 76.513352 335.294893 
L 80.740625 335.292532 
L 84.967898 335.290784 
L 89.19517 335.289448 
L 93.422443 335.288386 
L 97.649716 335.287507 
L 101.876989 335.286751 
L 106.104261 335.286042 
L 110.331534 335.285437 
L 114.558807 335.284867 
L 118.78608 335.284322 
L 123.013352 335.283793 
L 127.240625 335.283276 
L 131.467898 335.282767 
L 135.69517 335.282264 
L 139.922443 335.281766 
L 144.149716 335.28127 
L 148.376989 335.280777 
L 152.604261 335.280286 
L 156.831534 335.279796 
L 161.058807 335.279308 
L 165.28608 335.27882 
L 169.513352 335.278334 
L 173.740625 335.277849 
L 177.967898 335.277365 
L 182.19517 335.276881 
L 186.422443 335.276399 
L 190.649716 335.275918 
L 194.876989 335.275439 
L 199.104261 335.27496 
L 203.331534 335.274483 
L 207.558807 335.274007 
L 211.78608 335.273532 
L 216.013352 335.273059 
L 220.240625 335.272588 
L 224.467898 335.272118 
L 228.69517 335.271649 
L 232.922443 335.271182 
L 237.149716 335.270717 
L 241.376989 335.270253 
L 245.604261 335.269791 
L 249.831534 335.269331 
L 254.058807 335.268872 
L 258.28608 335.268415 
L 262.513352 335.26796 
L 266.740625 335.267506 
L 270.967898 335.267055 
L 275.19517 335.266605 
L 279.422443 335.266157 
L 283.649716 335.26571 
L 287.876989 335.265266 
L 292.104261 335.264823 
L 296.331534 335.264382 
L 300.558807 335.263943 
L 304.78608 335.263506 
L 309.013352 335.26307 
L 313.240625 335.262637 
L 317.467898 335.262205 
L 321.69517 335.261774 
L 325.922443 335.261346 
L 330.149716 335.260919 
L 334.376989 335.260495 
L 338.604261 335.260071 
L 342.831534 335.25965 
L 347.058807 335.259231 
L 351.28608 335.258813 
L 355.513352 335.258397 
L 359.740625 335.257982 
L 363.967898 335.25757 
L 368.19517 335.257159 
L 372.422443 335.256749 
L 376.649716 335.256342 
L 380.876989 335.255936 
L 385.104261 335.255532 
L 389.331534 335.255129 
L 393.558807 335.254728 
L 397.78608 335.254329 
L 402.013352 335.253931 
L 406.240625 335.253535 
L 410.467898 335.253141 
L 414.69517 335.252748 
L 418.922443 335.252357 
L 423.149716 335.251967 
L 427.376989 335.251579 
L 431.604261 335.251192 
L 435.831534 335.250807 
L 440.058807 335.250424 
L 444.28608 335.250042 
L 448.513352 335.249661 
L 452.740625 335.249283 
L 456.967898 335.248905 
L 461.19517 335.248529 
L 465.422443 335.248155 
L 469.649716 335.247781 
L 473.876989 335.24741 
L 478.104261 335.24704 
L 482.331534 335.246671 
L 486.558807 335.246304 
L 490.78608 335.245938 
L 495.013352 335.245573 
L 499.240625 335.24521 
L 503.467898 335.244848 
L 507.69517 335.244488 
L 511.922443 335.244129 
L 516.149716 335.243771 
L 520.376989 335.243414 
L 524.604261 335.243059 
L 528.831534 335.242705 
L 533.058807 335.242353 
L 537.28608 335.242002 
L 541.513352 335.241652 
L 545.740625 335.241303 
L 549.967898 335.240956 
L 554.19517 335.24061 
L 558.422443 335.240265 
L 562.649716 335.239921 
L 566.876989 335.239579 
" clip-path="url(#p1024b946b7)" style="fill: none; stroke: #1f77b4; stroke-width: 1.5; stroke-linecap: square"/>
   </g>
   <g id="line2d_28">
    <path d="M 59.604261 335.318437 
L 63.831534 335.186367 
L 68.058807 335.088402 
L 72.28608 335.016869 
L 76.513352 334.96485 
L 80.740625 334.926736 
L 84.967898 334.898293 
L 89.19517 334.876479 
L 93.422443 334.859176 
L 97.649716 334.844937 
L 101.876989 334.832781 
L 106.104261 334.822049 
L 110.331534 334.811865 
L 114.558807 334.802916 
L 118.78608 334.794394 
L 123.013352 334.786171 
L 127.240625 334.77816 
L 131.467898 334.7703 
L 135.69517 334.762547 
L 139.922443 334.754873 
L 144.149716 334.747257 
L 148.376989 334.739683 
L 152.604261 334.732143 
L 156.831534 334.72463 
L 161.058807 334.717139 
L 165.28608 334.709668 
L 169.513352 334.702214 
L 173.740625 334.694778 
L 177.967898 334.687357 
L 182.19517 334.679954 
L 186.422443 334.672567 
L 190.649716 334.665198 
L 194.876989 334.657847 
L 199.104261 334.650515 
L 203.331534 334.643202 
L 207.558807 334.63591 
L 211.78608 334.628638 
L 216.013352 334.621388 
L 220.240625 334.61416 
L 224.467898 334.606955 
L 228.69517 334.599773 
L 232.922443 334.592616 
L 237.149716 334.585482 
L 241.376989 334.578373 
L 245.604261 334.57129 
L 249.831534 334.564232 
L 254.058807 334.5572 
L 258.28608 334.550193 
L 262.513352 334.543214 
L 266.740625 334.53626 
L 270.967898 334.529334 
L 275.19517 334.522434 
L 279.422443 334.515562 
L 283.649716 334.508716 
L 287.876989 334.501898 
L 292.104261 334.495106 
L 296.331534 334.488343 
L 300.558807 334.481606 
L 304.78608 334.474897 
L 309.013352 334.468215 
L 313.240625 334.46156 
L 317.467898 334.454932 
L 321.69517 334.448332 
L 325.922443 334.441759 
L 330.149716 334.435212 
L 334.376989 334.428693 
L 338.604261 334.422201 
L 342.831534 334.415735 
L 347.058807 334.409296 
L 351.28608 334.402883 
L 355.513352 334.396497 
L 359.740625 334.390138 
L 363.967898 334.383804 
L 368.19517 334.377496 
L 372.422443 334.371215 
L 376.649716 334.364959 
L 380.876989 334.358729 
L 385.104261 334.352524 
L 389.331534 334.346344 
L 393.558807 334.34019 
L 397.78608 334.33406 
L 402.013352 334.327956 
L 406.240625 334.321876 
L 410.467898 334.315821 
L 414.69517 334.30979 
L 418.922443 334.303783 
L 423.149716 334.297801 
L 427.376989 334.291842 
L 431.604261 334.285907 
L 435.831534 334.279995 
L 440.058807 334.274107 
L 444.28608 334.268243 
L 448.513352 334.262401 
L 452.740625 334.256582 
L 456.967898 334.250786 
L 461.19517 334.245013 
L 465.422443 334.239262 
L 469.649716 334.233533 
L 473.876989 334.227826 
L 478.104261 334.222141 
L 482.331534 334.216478 
L 486.558807 334.210837 
L 490.78608 334.205217 
L 495.013352 334.199619 
L 499.240625 334.194041 
L 503.467898 334.188485 
L 507.69517 334.182949 
L 511.922443 334.177434 
L 516.149716 334.17194 
L 520.376989 334.166466 
L 524.604261 334.161012 
L 528.831534 334.155579 
L 533.058807 334.150165 
L 537.28608 334.144771 
L 541.513352 334.139396 
L 545.740625 334.134041 
L 549.967898 334.128706 
L 554.19517 334.123389 
L 558.422443 334.118092 
L 562.649716 334.112814 
L 566.876989 334.107554 
" clip-path="url(#p1024b946b7)" style="fill: none; stroke: #ff7f0e; stroke-width: 1.5; stroke-linecap: square"/>
   </g>
   <g id="line2d_29">
    <path d="M 59.604261 335.318437 
L 63.831534 334.41715 
L 68.058807 333.667246 
L 72.28608 333.056087 
L 76.513352 332.565753 
L 80.740625 332.176114 
L 84.967898 331.867359 
L 89.19517 331.621668 
L 93.422443 331.424029 
L 97.649716 331.262392 
L 101.876989 331.127427 
L 106.104261 331.012088 
L 110.331534 330.911147 
L 114.558807 330.820765 
L 118.78608 330.734658 
L 123.013352 330.65867 
L 127.240625 330.586674 
L 131.467898 330.51766 
L 135.69517 330.45089 
L 139.922443 330.385823 
L 144.149716 330.322062 
L 148.376989 330.259313 
L 152.604261 330.197361 
L 156.831534 330.136046 
L 161.058807 330.075248 
L 165.28608 330.014881 
L 169.513352 329.954879 
L 173.740625 329.895196 
L 177.967898 329.835798 
L 182.19517 329.776659 
L 186.422443 329.717761 
L 190.649716 329.659092 
L 194.876989 329.600645 
L 199.104261 329.542413 
L 203.331534 329.484394 
L 207.558807 329.426586 
L 211.78608 329.368988 
L 216.013352 329.311602 
L 220.240625 329.254428 
L 224.467898 329.197467 
L 228.69517 329.140722 
L 232.922443 329.084194 
L 237.149716 329.027884 
L 241.376989 328.971795 
L 245.604261 328.915929 
L 249.831534 328.860285 
L 254.058807 328.804867 
L 258.28608 328.749675 
L 262.513352 328.69471 
L 266.740625 328.639974 
L 270.967898 328.585466 
L 275.19517 328.531189 
L 279.422443 328.477141 
L 283.649716 328.423324 
L 287.876989 328.369738 
L 292.104261 328.316383 
L 296.331534 328.263258 
L 300.558807 328.210363 
L 304.78608 328.157699 
L 309.013352 328.105265 
L 313.240625 328.053061 
L 317.467898 328.001085 
L 321.69517 327.949337 
L 325.922443 327.897816 
L 330.149716 327.846522 
L 334.376989 327.795454 
L 338.604261 327.744611 
L 342.831534 327.693991 
L 347.058807 327.643594 
L 351.28608 327.593419 
L 355.513352 327.543464 
L 359.740625 327.493729 
L 363.967898 327.444211 
L 368.19517 327.394911 
L 372.422443 327.345827 
L 376.649716 327.296956 
L 380.876989 327.248299 
L 385.104261 327.199853 
L 389.331534 327.151618 
L 393.558807 327.103592 
L 397.78608 327.055774 
L 402.013352 327.008162 
L 406.240625 326.960754 
L 410.467898 326.91355 
L 414.69517 326.866549 
L 418.922443 326.819747 
L 423.149716 326.773145 
L 427.376989 326.726741 
L 431.604261 326.680533 
L 435.831534 326.634521 
L 440.058807 326.588701 
L 444.28608 326.543074 
L 448.513352 326.497638 
L 452.740625 326.452391 
L 456.967898 326.407331 
L 461.19517 326.362459 
L 465.422443 326.317771 
L 469.649716 326.273267 
L 473.876989 326.228945 
L 478.104261 326.184804 
L 482.331534 326.140843 
L 486.558807 326.09706 
L 490.78608 326.053454 
L 495.013352 326.010023 
L 499.240625 325.966767 
L 503.467898 325.923683 
L 507.69517 325.880771 
L 511.922443 325.838029 
L 516.149716 325.795455 
L 520.376989 325.753049 
L 524.604261 325.71081 
L 528.831534 325.668735 
L 533.058807 325.626824 
L 537.28608 325.585076 
L 541.513352 325.543488 
L 545.740625 325.502061 
L 549.967898 325.460792 
L 554.19517 325.419681 
L 558.422443 325.378725 
L 562.649716 325.337925 
L 566.876989 325.297278 
" clip-path="url(#p1024b946b7)" style="fill: none; stroke: #2ca02c; stroke-width: 1.5; stroke-linecap: square"/>
   </g>
   <g id="line2d_30">
    <path d="M 59.604261 335.318437 
L 63.831534 332.614447 
L 68.058807 330.190627 
L 72.28608 328.046731 
L 76.513352 326.172415 
L 80.740625 324.549529 
L 84.967898 323.154657 
L 89.19517 321.961562 
L 93.422443 320.943266 
L 97.649716 320.073651 
L 101.876989 319.328548 
L 106.104261 318.686369 
L 110.331534 318.128367 
L 114.558807 317.638625 
L 118.78608 317.203877 
L 123.013352 316.813227 
L 127.240625 316.441521 
L 131.467898 316.11755 
L 135.69517 315.815359 
L 139.922443 315.530554 
L 144.149716 315.259666 
L 148.376989 314.999958 
L 152.604261 314.749274 
L 156.831534 314.505919 
L 161.058807 314.268557 
L 165.28608 314.036135 
L 169.513352 313.807826 
L 173.740625 313.582976 
L 177.967898 313.361071 
L 182.19517 313.141703 
L 186.422443 312.924551 
L 190.649716 312.709362 
L 194.876989 312.495935 
L 199.104261 312.284112 
L 203.331534 312.073768 
L 207.558807 311.864805 
L 211.78608 311.657145 
L 216.013352 311.450726 
L 220.240625 311.245502 
L 224.467898 311.041433 
L 228.69517 310.838491 
L 232.922443 310.636653 
L 237.149716 310.435899 
L 241.376989 310.236217 
L 245.604261 310.037594 
L 249.831534 309.840023 
L 254.058807 309.643495 
L 258.28608 309.448006 
L 262.513352 309.25355 
L 266.740625 309.060124 
L 270.967898 308.867724 
L 275.19517 308.676346 
L 279.422443 308.485988 
L 283.649716 308.296646 
L 287.876989 308.108317 
L 292.104261 307.920999 
L 296.331534 307.734687 
L 300.558807 307.549379 
L 304.78608 307.365071 
L 309.013352 307.181759 
L 313.240625 306.999439 
L 317.467898 306.818106 
L 321.69517 306.637757 
L 325.922443 306.458387 
L 330.149716 306.279991 
L 334.376989 306.102564 
L 338.604261 305.9261 
L 342.831534 305.750595 
L 347.058807 305.576043 
L 351.28608 305.402438 
L 355.513352 305.229775 
L 359.740625 305.058047 
L 363.967898 304.887249 
L 368.19517 304.717375 
L 372.422443 304.548418 
L 376.649716 304.380372 
L 380.876989 304.213231 
L 385.104261 304.046988 
L 389.331534 303.881637 
L 393.558807 303.717172 
L 397.78608 303.553585 
L 402.013352 303.39087 
L 406.240625 303.229022 
L 410.467898 303.068032 
L 414.69517 302.907894 
L 418.922443 302.748603 
L 423.149716 302.59015 
L 427.376989 302.43253 
L 431.604261 302.275736 
L 435.831534 302.119761 
L 440.058807 301.964599 
L 444.28608 301.810242 
L 448.513352 301.656685 
L 452.740625 301.503921 
L 456.967898 301.351944 
L 461.19517 301.200746 
L 465.422443 301.050322 
L 469.649716 300.900665 
L 473.876989 300.751768 
L 478.104261 300.603626 
L 482.331534 300.456232 
L 486.558807 300.309579 
L 490.78608 300.163662 
L 495.013352 300.018475 
L 499.240625 299.87401 
L 503.467898 299.730263 
L 507.69517 299.587227 
L 511.922443 299.444895 
L 516.149716 299.303263 
L 520.376989 299.162324 
L 524.604261 299.022072 
L 528.831534 298.882502 
L 533.058807 298.743608 
L 537.28608 298.605383 
L 541.513352 298.467822 
L 545.740625 298.330921 
L 549.967898 298.194672 
L 554.19517 298.05907 
L 558.422443 297.92411 
L 562.649716 297.789787 
L 566.876989 297.656095 
" clip-path="url(#p1024b946b7)" style="fill: none; stroke: #d62728; stroke-width: 1.5; stroke-linecap: square"/>
   </g>
   <g id="line2d_31">
    <path d="M 59.604261 335.318437 
L 63.831534 330.010081 
L 68.058807 325.071575 
L 72.28608 320.519553 
L 76.513352 316.359036 
L 80.740625 312.584672 
L 84.967898 309.182443 
L 89.19517 306.131633 
L 93.422443 303.40682 
L 97.649716 300.979731 
L 101.876989 298.820855 
L 106.104261 296.900744 
L 110.331534 295.191002 
L 114.558807 293.664976 
L 118.78608 292.298183 
L 123.013352 291.06853 
L 127.240625 289.956371 
L 131.467898 288.944453 
L 135.69517 287.977475 
L 139.922443 287.129239 
L 144.149716 286.341349 
L 148.376989 285.604495 
L 152.604261 284.910811 
L 156.831534 284.253673 
L 161.058807 283.62752 
L 165.28608 283.027699 
L 169.513352 282.450322 
L 173.740625 281.892143 
L 177.967898 281.35046 
L 182.19517 280.82302 
L 186.422443 280.307951 
L 190.649716 279.803694 
L 194.876989 279.308952 
L 199.104261 278.822645 
L 203.331534 278.343875 
L 207.558807 277.871893 
L 211.78608 277.406075 
L 216.013352 276.9459 
L 220.240625 276.490933 
L 224.467898 276.040811 
L 228.69517 275.595228 
L 232.922443 275.153929 
L 237.149716 274.716697 
L 241.376989 274.283352 
L 245.604261 273.853738 
L 249.831534 273.427725 
L 254.058807 273.005202 
L 258.28608 272.586073 
L 262.513352 272.170254 
L 266.740625 271.757675 
L 270.967898 271.348272 
L 275.19517 270.94199 
L 279.422443 270.53878 
L 283.649716 270.138597 
L 287.876989 269.741402 
L 292.104261 269.347158 
L 296.331534 268.95583 
L 300.558807 268.567387 
L 304.78608 268.181799 
L 309.013352 267.799039 
L 313.240625 267.419078 
L 317.467898 267.04189 
L 321.69517 266.667451 
L 325.922443 266.295735 
L 330.149716 265.926718 
L 334.376989 265.560376 
L 338.604261 265.196686 
L 342.831534 264.835624 
L 347.058807 264.477166 
L 351.28608 264.121291 
L 355.513352 263.767975 
L 359.740625 263.417195 
L 363.967898 263.068929 
L 368.19517 262.723153 
L 372.422443 262.379845 
L 376.649716 262.038983 
L 380.876989 261.700544 
L 385.104261 261.364506 
L 389.331534 261.030846 
L 393.558807 260.699542 
L 397.78608 260.370571 
L 402.013352 260.043912 
L 406.240625 259.719543 
L 410.467898 259.397441 
L 414.69517 259.077584 
L 418.922443 258.759951 
L 423.149716 258.44452 
L 427.376989 258.13127 
L 431.604261 257.820178 
L 435.831534 257.511225 
L 440.058807 257.204388 
L 444.28608 256.899646 
L 448.513352 256.596979 
L 452.740625 256.296367 
L 456.967898 255.997788 
L 461.19517 255.701221 
L 465.422443 255.406648 
L 469.649716 255.114048 
L 473.876989 254.8234 
L 478.104261 254.534685 
L 482.331534 254.247885 
L 486.558807 253.962978 
L 490.78608 253.679947 
L 495.013352 253.398772 
L 499.240625 253.119434 
L 503.467898 252.841914 
L 507.69517 252.566195 
L 511.922443 252.292258 
L 516.149716 252.020085 
L 520.376989 251.749658 
L 524.604261 251.480959 
L 528.831534 251.213971 
L 533.058807 250.948675 
L 537.28608 250.685057 
L 541.513352 250.423097 
L 545.740625 250.162779 
L 549.967898 249.904087 
L 554.19517 249.647004 
L 558.422443 249.391513 
L 562.649716 249.137599 
L 566.876989 248.885246 
" clip-path="url(#p1024b946b7)" style="fill: none; stroke: #9467bd; stroke-width: 1.5; stroke-linecap: square"/>
   </g>
   <g id="line2d_32">
    <path d="M 59.604261 335.318437 
L 63.831534 326.997559 
L 68.058807 319.093418 
L 72.28608 311.640867 
L 76.513352 304.662541 
L 80.740625 298.169272 
L 84.967898 292.16111 
L 89.19517 286.628755 
L 93.422443 281.555236 
L 97.649716 276.917676 
L 101.876989 272.688993 
L 106.104261 268.839462 
L 110.331534 265.33805 
L 114.558807 262.153525 
L 118.78608 259.255319 
L 123.013352 256.614162 
L 127.240625 254.202524 
L 131.467898 251.99489 
L 135.69517 249.967897 
L 139.922443 248.023984 
L 144.149716 246.306053 
L 148.376989 244.710576 
L 152.604261 243.222569 
L 156.831534 241.828832 
L 161.058807 240.517785 
L 165.28608 239.279304 
L 169.513352 238.104563 
L 173.740625 236.985888 
L 177.967898 235.916615 
L 182.19517 234.890971 
L 186.422443 233.903958 
L 190.649716 232.951251 
L 194.876989 232.029111 
L 199.104261 231.134307 
L 203.331534 230.264046 
L 207.558807 229.41591 
L 211.78608 228.587812 
L 216.013352 227.777942 
L 220.240625 226.984731 
L 224.467898 226.20682 
L 228.69517 225.443028 
L 232.922443 224.692327 
L 237.149716 223.95382 
L 241.376989 223.226726 
L 245.604261 222.51036 
L 249.831534 221.804121 
L 254.058807 221.10748 
L 258.28608 220.419971 
L 262.513352 219.741182 
L 266.740625 219.070747 
L 270.967898 218.408338 
L 275.19517 217.753663 
L 279.422443 217.106461 
L 283.649716 216.466495 
L 287.876989 215.83355 
L 292.104261 215.207431 
L 296.331534 214.587961 
L 300.558807 213.974975 
L 304.78608 213.368324 
L 309.013352 212.767866 
L 313.240625 212.173472 
L 317.467898 211.585021 
L 321.69517 211.002397 
L 325.922443 210.425494 
L 330.149716 209.854209 
L 334.376989 209.288446 
L 338.604261 208.728111 
L 342.831534 208.173118 
L 347.058807 207.623381 
L 351.28608 207.078818 
L 355.513352 206.539351 
L 359.740625 206.004904 
L 363.967898 205.475403 
L 368.19517 204.950777 
L 372.422443 204.430955 
L 376.649716 203.915871 
L 380.876989 203.405457 
L 385.104261 202.899651 
L 389.331534 202.398387 
L 393.558807 201.901605 
L 397.78608 201.409244 
L 402.013352 200.921245 
L 406.240625 200.437549 
L 410.467898 199.9581 
L 414.69517 199.482841 
L 418.922443 199.011716 
L 423.149716 198.544673 
L 427.376989 198.081658 
L 431.604261 197.622618 
L 435.831534 197.167502 
L 440.058807 196.716258 
L 444.28608 196.268838 
L 448.513352 195.825192 
L 452.740625 195.385272 
L 456.967898 194.94903 
L 461.19517 194.51642 
L 465.422443 194.087394 
L 469.649716 193.661908 
L 473.876989 193.239917 
L 478.104261 192.821377 
L 482.331534 192.406244 
L 486.558807 191.994476 
L 490.78608 191.586031 
L 495.013352 191.180866 
L 499.240625 190.778941 
L 503.467898 190.380216 
L 507.69517 189.984651 
L 511.922443 189.592207 
L 516.149716 189.202845 
L 520.376989 188.816527 
L 524.604261 188.433216 
L 528.831534 188.052875 
L 533.058807 187.675467 
L 537.28608 187.300957 
L 541.513352 186.929308 
L 545.740625 186.560487 
L 549.967898 186.194459 
L 554.19517 185.83119 
L 558.422443 185.470646 
L 562.649716 185.112794 
L 566.876989 184.757602 
" clip-path="url(#p1024b946b7)" style="fill: none; stroke: #8c564b; stroke-width: 1.5; stroke-linecap: square"/>
   </g>
   <g id="line2d_33">
    <path d="M 59.604261 335.318437 
L 63.831534 323.917335 
L 68.058807 312.945239 
L 72.28608 302.454139 
L 76.513352 292.483873 
L 80.740625 283.061863 
L 84.967898 274.203504 
L 89.19517 265.913082 
L 93.422443 258.185078 
L 97.649716 251.005703 
L 101.876989 244.354536 
L 106.104261 238.206128 
L 110.331534 232.531501 
L 114.558807 227.299484 
L 118.78608 222.477841 
L 123.013352 218.034209 
L 127.240625 213.936823 
L 131.467898 210.155069 
L 135.69517 206.659876 
L 139.922443 203.298712 
L 144.149716 200.309093 
L 148.376989 197.529103 
L 152.604261 194.937435 
L 156.831534 192.514752 
L 161.058807 190.243595 
L 165.28608 188.108264 
L 169.513352 186.094697 
L 173.740625 184.190328 
L 177.967898 182.383964 
L 182.19517 180.66565 
L 186.422443 179.026548 
L 190.649716 177.458824 
L 194.876989 175.955534 
L 199.104261 174.510535 
L 203.331534 173.118386 
L 207.558807 171.774278 
L 211.78608 170.47395 
L 216.013352 169.213634 
L 220.240625 167.98999 
L 224.467898 166.80006 
L 228.69517 165.641219 
L 232.922443 164.511135 
L 237.149716 163.407736 
L 241.376989 162.329177 
L 245.604261 161.273812 
L 249.831534 160.24017 
L 254.058807 159.226937 
L 258.28608 158.232934 
L 262.513352 157.257101 
L 266.740625 156.298484 
L 270.967898 155.356222 
L 275.19517 154.429537 
L 279.422443 153.517721 
L 283.649716 152.620133 
L 287.876989 151.736186 
L 292.104261 150.865346 
L 296.331534 150.007122 
L 300.558807 149.161063 
L 304.78608 148.326752 
L 309.013352 147.503805 
L 313.240625 146.691865 
L 317.467898 145.890602 
L 321.69517 145.099705 
L 325.922443 144.318885 
L 330.149716 143.547873 
L 334.376989 142.786412 
L 338.604261 142.034264 
L 342.831534 141.291201 
L 347.058807 140.557008 
L 351.28608 139.831483 
L 355.513352 139.11443 
L 359.740625 138.405667 
L 363.967898 137.705015 
L 368.19517 137.012307 
L 372.422443 136.32738 
L 376.649716 135.65008 
L 380.876989 134.980256 
L 385.104261 134.317766 
L 389.331534 133.662471 
L 393.558807 133.014237 
L 397.78608 132.372933 
L 402.013352 131.738437 
L 406.240625 131.110624 
L 410.467898 130.48938 
L 414.69517 129.874588 
L 418.922443 129.266138 
L 423.149716 128.663923 
L 427.376989 128.067837 
L 431.604261 127.477778 
L 435.831534 126.893647 
L 440.058807 126.315347 
L 444.28608 125.742784 
L 448.513352 125.175864 
L 452.740625 124.614499 
L 456.967898 124.0586 
L 461.19517 123.508081 
L 465.422443 122.962858 
L 469.649716 122.422849 
L 473.876989 121.887975 
L 478.104261 121.358155 
L 482.331534 120.833315 
L 486.558807 120.313378 
L 490.78608 119.79827 
L 495.013352 119.28792 
L 499.240625 118.782257 
L 503.467898 118.281212 
L 507.69517 117.784717 
L 511.922443 117.292705 
L 516.149716 116.805111 
L 520.376989 116.321871 
L 524.604261 115.842923 
L 528.831534 115.368204 
L 533.058807 114.897655 
L 537.28608 114.431216 
L 541.513352 113.96883 
L 545.740625 113.510438 
L 549.967898 113.055985 
L 554.19517 112.605415 
L 558.422443 112.158675 
L 562.649716 111.715711 
L 566.876989 111.27647 
" clip-path="url(#p1024b946b7)" style="fill: none; stroke: #e377c2; stroke-width: 1.5; stroke-linecap: square"/>
   </g>
   <g id="line2d_34">
    <path d="M 59.604261 335.318437 
L 63.831534 320.99261 
L 68.058807 307.084553 
L 72.28608 293.660174 
L 76.513352 280.773921 
L 80.740625 268.46798 
L 84.967898 256.772122 
L 89.19517 245.704124 
L 93.422443 235.270664 
L 97.649716 225.468557 
L 101.876989 216.286191 
L 106.104261 207.705054 
L 110.331534 199.701235 
L 114.558807 192.246849 
L 118.78608 185.311305 
L 123.013352 178.862423 
L 127.240625 172.867357 
L 131.467898 167.293353 
L 135.69517 162.108344 
L 139.922443 157.107405 
L 144.149716 152.623494 
L 148.376989 148.439458 
L 152.604261 144.529208 
L 156.831534 140.868531 
L 161.058807 137.435091 
L 165.28608 134.208384 
L 169.513352 131.169668 
L 173.740625 128.301869 
L 177.967898 125.589484 
L 182.19517 123.01847 
L 186.422443 120.576132 
L 190.649716 118.251015 
L 194.876989 116.032795 
L 199.104261 113.912179 
L 203.331534 111.880806 
L 207.558807 109.931161 
L 211.78608 108.056487 
L 216.013352 106.250713 
L 220.240625 104.50838 
L 224.467898 102.824583 
L 228.69517 101.194906 
L 232.922443 99.615376 
L 237.149716 98.082414 
L 241.376989 96.592793 
L 245.604261 95.1436 
L 249.831534 93.732203 
L 254.058807 92.356221 
L 258.28608 91.013497 
L 262.513352 89.702072 
L 266.740625 88.42017 
L 270.967898 87.166169 
L 275.19517 85.938595 
L 279.422443 84.736099 
L 283.649716 83.557448 
L 287.876989 82.401511 
L 292.104261 81.267249 
L 296.331534 80.153706 
L 300.558807 79.06 
L 304.78608 77.985317 
L 309.013352 76.928904 
L 313.240625 75.890059 
L 317.467898 74.868134 
L 321.69517 73.862522 
L 325.922443 72.872658 
L 330.149716 71.898014 
L 334.376989 70.938093 
L 338.604261 69.992431 
L 342.831534 69.06059 
L 347.058807 68.142159 
L 351.28608 67.236748 
L 355.513352 66.343989 
L 359.740625 65.463535 
L 363.967898 64.595053 
L 368.19517 63.73823 
L 372.422443 62.892768 
L 376.649716 62.05838 
L 380.876989 61.234796 
L 385.104261 60.421755 
L 389.331534 59.619009 
L 393.558807 58.826318 
L 397.78608 58.043455 
L 402.013352 57.2702 
L 406.240625 56.506342 
L 410.467898 55.751678 
L 414.69517 55.006011 
L 418.922443 54.269154 
L 423.149716 53.540925 
L 427.376989 52.821147 
L 431.604261 52.10965 
L 435.831534 51.406271 
L 440.058807 50.710849 
L 444.28608 50.023232 
L 448.513352 49.343268 
L 452.740625 48.670815 
L 456.967898 48.00573 
L 461.19517 47.347877 
L 465.422443 46.697124 
L 469.649716 46.053341 
L 473.876989 45.416404 
L 478.104261 44.78619 
L 482.331534 44.16258 
L 486.558807 43.54546 
L 490.78608 42.934715 
L 495.013352 42.330237 
L 499.240625 41.731919 
L 503.467898 41.139656 
L 507.69517 40.553346 
L 511.922443 39.97289 
L 516.149716 39.398191 
L 520.376989 38.829155 
L 524.604261 38.265688 
L 528.831534 37.707701 
L 533.058807 37.155105 
L 537.28608 36.607814 
L 541.513352 36.065743 
L 545.740625 35.52881 
L 549.967898 34.996934 
L 554.19517 34.470035 
L 558.422443 33.948037 
L 562.649716 33.430862 
L 566.876989 32.918437 
" clip-path="url(#p1024b946b7)" style="fill: none; stroke: #7f7f7f; stroke-width: 1.5; stroke-linecap: square"/>
   </g>
   <g id="patch_3">
    <path d="M 34.240625 350.438437 
L 34.240625 17.798437 
" style="fill: none; stroke: #000000; stroke-width: 0.8; stroke-linejoin: miter; stroke-linecap: square"/>
   </g>
   <g id="patch_4">
    <path d="M 592.240625 350.438437 
L 592.240625 17.798437 
" style="fill: none; stroke: #000000; stroke-width: 0.8; stroke-linejoin: miter; stroke-linecap: square"/>
   </g>
   <g id="patch_5">
    <path d="M 34.240625 350.438437 
L 592.240625 350.438437 
" style="fill: none; stroke: #000000; stroke-width: 0.8; stroke-linejoin: miter; stroke-linecap: square"/>
   </g>
   <g id="patch_6">
    <path d="M 34.240625 17.798437 
L 592.240625 17.798437 
" style="fill: none; stroke: #000000; stroke-width: 0.8; stroke-linejoin: miter; stroke-linecap: square"/>
   </g>
   <g id="legend_1">
    <g id="patch_7">
     <path d="M 41.240625 151.385937 
L 126.740625 151.385937 
Q 128.740625 151.385937 128.740625 149.385937 
L 128.740625 24.798437 
Q 128.740625 22.798437 126.740625 22.798437 
L 41.240625 22.798437 
Q 39.240625 22.798437 39.240625 24.798437 
L 39.240625 149.385937 
Q 39.240625 151.385937 41.240625 151.385937 
z
" style="fill: #ffffff; opacity: 0.8; stroke: #cccccc; stroke-linejoin: miter"/>
    </g>
    <g id="line2d_35">
     <path d="M 43.240625 30.896875 
L 53.240625 30.896875 
L 63.240625 30.896875 
" style="fill: none; stroke: #1f77b4; stroke-width: 1.5; stroke-linecap: square"/>
    </g>
    <g id="text_17">
     <!-- $V_{gs} = 0.3\ V$ -->
     <g transform="translate(71.240625 34.396875) scale(0.1 -0.1)">
      <defs>
       <path id="DejaVuSans-Oblique-67" d="M 3816 3500 
L 3219 434 
Q 3047 -456 2561 -893 
Q 2075 -1331 1253 -1331 
Q 950 -1331 690 -1286 
Q 431 -1241 206 -1147 
L 313 -588 
Q 525 -725 762 -790 
Q 1000 -856 1269 -856 
Q 1816 -856 2167 -557 
Q 2519 -259 2631 300 
L 2681 563 
Q 2441 288 2122 144 
Q 1803 0 1434 0 
Q 903 0 598 351 
Q 294 703 294 1319 
Q 294 1803 478 2267 
Q 663 2731 997 3091 
Q 1219 3328 1514 3456 
Q 1809 3584 2131 3584 
Q 2484 3584 2746 3420 
Q 3009 3256 3138 2956 
L 3238 3500 
L 3816 3500 
z
M 2950 2216 
Q 2950 2641 2750 2872 
Q 2550 3103 2181 3103 
Q 1953 3103 1747 3012 
Q 1541 2922 1394 2759 
Q 1156 2491 1023 2127 
Q 891 1763 891 1375 
Q 891 944 1092 712 
Q 1294 481 1672 481 
Q 2219 481 2584 976 
Q 2950 1472 2950 2216 
z
" transform="scale(0.015625)"/>
       <path id="DejaVuSans-3d" d="M 678 2906 
L 4684 2906 
L 4684 2381 
L 678 2381 
L 678 2906 
z
M 678 1631 
L 4684 1631 
L 4684 1100 
L 678 1100 
L 678 1631 
z
" transform="scale(0.015625)"/>
      </defs>
      <use xlink:href="#DejaVuSans-Oblique-56" transform="translate(0 0.78125)"/>
      <use xlink:href="#DejaVuSans-Oblique-67" transform="translate(68.408203 -15.625) scale(0.7)"/>
      <use xlink:href="#DejaVuSans-Oblique-73" transform="translate(112.841797 -15.625) scale(0.7)"/>
      <use xlink:href="#DejaVuSans-3d" transform="translate(171.52832 0.78125)"/>
      <use xlink:href="#DejaVuSans-30" transform="translate(274.799805 0.78125)"/>
      <use xlink:href="#DejaVuSans-2e" transform="translate(338.422852 0.78125)"/>
      <use xlink:href="#DejaVuSans-33" transform="translate(370.209961 0.78125)"/>
      <use xlink:href="#DejaVuSans-Oblique-56" transform="translate(466.303386 0.78125)"/>
     </g>
    </g>
    <g id="line2d_36">
     <path d="M 43.240625 46.595312 
L 53.240625 46.595312 
L 63.240625 46.595312 
" style="fill: none; stroke: #ff7f0e; stroke-width: 1.5; stroke-linecap: square"/>
    </g>
    <g id="text_18">
     <!-- $V_{gs} = 0.4\ V$ -->
     <g transform="translate(71.240625 50.095312) scale(0.1 -0.1)">
      <use xlink:href="#DejaVuSans-Oblique-56" transform="translate(0 0.78125)"/>
      <use xlink:href="#DejaVuSans-Oblique-67" transform="translate(68.408203 -15.625) scale(0.7)"/>
      <use xlink:href="#DejaVuSans-Oblique-73" transform="translate(112.841797 -15.625) scale(0.7)"/>
      <use xlink:href="#DejaVuSans-3d" transform="translate(171.52832 0.78125)"/>
      <use xlink:href="#DejaVuSans-30" transform="translate(274.799805 0.78125)"/>
      <use xlink:href="#DejaVuSans-2e" transform="translate(338.422852 0.78125)"/>
      <use xlink:href="#DejaVuSans-34" transform="translate(370.209961 0.78125)"/>
      <use xlink:href="#DejaVuSans-Oblique-56" transform="translate(466.303386 0.78125)"/>
     </g>
    </g>
    <g id="line2d_37">
     <path d="M 43.240625 62.29375 
L 53.240625 62.29375 
L 63.240625 62.29375 
" style="fill: none; stroke: #2ca02c; stroke-width: 1.5; stroke-linecap: square"/>
    </g>
    <g id="text_19">
     <!-- $V_{gs} = 0.5\ V$ -->
     <g transform="translate(71.240625 65.79375) scale(0.1 -0.1)">
      <use xlink:href="#DejaVuSans-Oblique-56" transform="translate(0 0.78125)"/>
      <use xlink:href="#DejaVuSans-Oblique-67" transform="translate(68.408203 -15.625) scale(0.7)"/>
      <use xlink:href="#DejaVuSans-Oblique-73" transform="translate(112.841797 -15.625) scale(0.7)"/>
      <use xlink:href="#DejaVuSans-3d" transform="translate(171.52832 0.78125)"/>
      <use xlink:href="#DejaVuSans-30" transform="translate(274.799805 0.78125)"/>
      <use xlink:href="#DejaVuSans-2e" transform="translate(338.422852 0.78125)"/>
      <use xlink:href="#DejaVuSans-35" transform="translate(370.209961 0.78125)"/>
      <use xlink:href="#DejaVuSans-Oblique-56" transform="translate(466.303386 0.78125)"/>
     </g>
    </g>
    <g id="line2d_38">
     <path d="M 43.240625 77.992187 
L 53.240625 77.992187 
L 63.240625 77.992187 
" style="fill: none; stroke: #d62728; stroke-width: 1.5; stroke-linecap: square"/>
    </g>
    <g id="text_20">
     <!-- $V_{gs} = 0.6\ V$ -->
     <g transform="translate(71.240625 81.492187) scale(0.1 -0.1)">
      <use xlink:href="#DejaVuSans-Oblique-56" transform="translate(0 0.78125)"/>
      <use xlink:href="#DejaVuSans-Oblique-67" transform="translate(68.408203 -15.625) scale(0.7)"/>
      <use xlink:href="#DejaVuSans-Oblique-73" transform="translate(112.841797 -15.625) scale(0.7)"/>
      <use xlink:href="#DejaVuSans-3d" transform="translate(171.52832 0.78125)"/>
      <use xlink:href="#DejaVuSans-30" transform="translate(274.799805 0.78125)"/>
      <use xlink:href="#DejaVuSans-2e" transform="translate(338.422852 0.78125)"/>
      <use xlink:href="#DejaVuSans-36" transform="translate(370.209961 0.78125)"/>
      <use xlink:href="#DejaVuSans-Oblique-56" transform="translate(466.303386 0.78125)"/>
     </g>
    </g>
    <g id="line2d_39">
     <path d="M 43.240625 93.690625 
L 53.240625 93.690625 
L 63.240625 93.690625 
" style="fill: none; stroke: #9467bd; stroke-width: 1.5; stroke-linecap: square"/>
    </g>
    <g id="text_21">
     <!-- $V_{gs} = 0.7\ V$ -->
     <g transform="translate(71.240625 97.190625) scale(0.1 -0.1)">
      <defs>
       <path id="DejaVuSans-37" d="M 525 4666 
L 3525 4666 
L 3525 4397 
L 1831 0 
L 1172 0 
L 2766 4134 
L 525 4134 
L 525 4666 
z
" transform="scale(0.015625)"/>
      </defs>
      <use xlink:href="#DejaVuSans-Oblique-56" transform="translate(0 0.78125)"/>
      <use xlink:href="#DejaVuSans-Oblique-67" transform="translate(68.408203 -15.625) scale(0.7)"/>
      <use xlink:href="#DejaVuSans-Oblique-73" transform="translate(112.841797 -15.625) scale(0.7)"/>
      <use xlink:href="#DejaVuSans-3d" transform="translate(171.52832 0.78125)"/>
      <use xlink:href="#DejaVuSans-30" transform="translate(274.799805 0.78125)"/>
      <use xlink:href="#DejaVuSans-2e" transform="translate(338.422852 0.78125)"/>
      <use xlink:href="#DejaVuSans-37" transform="translate(362.459961 0.78125)"/>
      <use xlink:href="#DejaVuSans-Oblique-56" transform="translate(458.553386 0.78125)"/>
     </g>
    </g>
    <g id="line2d_40">
     <path d="M 43.240625 109.389062 
L 53.240625 109.389062 
L 63.240625 109.389062 
" style="fill: none; stroke: #8c564b; stroke-width: 1.5; stroke-linecap: square"/>
    </g>
    <g id="text_22">
     <!-- $V_{gs} = 0.8\ V$ -->
     <g transform="translate(71.240625 112.889062) scale(0.1 -0.1)">
      <use xlink:href="#DejaVuSans-Oblique-56" transform="translate(0 0.78125)"/>
      <use xlink:href="#DejaVuSans-Oblique-67" transform="translate(68.408203 -15.625) scale(0.7)"/>
      <use xlink:href="#DejaVuSans-Oblique-73" transform="translate(112.841797 -15.625) scale(0.7)"/>
      <use xlink:href="#DejaVuSans-3d" transform="translate(171.52832 0.78125)"/>
      <use xlink:href="#DejaVuSans-30" transform="translate(274.799805 0.78125)"/>
      <use xlink:href="#DejaVuSans-2e" transform="translate(338.422852 0.78125)"/>
      <use xlink:href="#DejaVuSans-38" transform="translate(367.584961 0.78125)"/>
      <use xlink:href="#DejaVuSans-Oblique-56" transform="translate(463.678386 0.78125)"/>
     </g>
    </g>
    <g id="line2d_41">
     <path d="M 43.240625 125.0875 
L 53.240625 125.0875 
L 63.240625 125.0875 
" style="fill: none; stroke: #e377c2; stroke-width: 1.5; stroke-linecap: square"/>
    </g>
    <g id="text_23">
     <!-- $V_{gs} = 0.9\ V$ -->
     <g transform="translate(71.240625 128.5875) scale(0.1 -0.1)">
      <defs>
       <path id="DejaVuSans-39" d="M 703 97 
L 703 672 
Q 941 559 1184 500 
Q 1428 441 1663 441 
Q 2288 441 2617 861 
Q 2947 1281 2994 2138 
Q 2813 1869 2534 1725 
Q 2256 1581 1919 1581 
Q 1219 1581 811 2004 
Q 403 2428 403 3163 
Q 403 3881 828 4315 
Q 1253 4750 1959 4750 
Q 2769 4750 3195 4129 
Q 3622 3509 3622 2328 
Q 3622 1225 3098 567 
Q 2575 -91 1691 -91 
Q 1453 -91 1209 -44 
Q 966 3 703 97 
z
M 1959 2075 
Q 2384 2075 2632 2365 
Q 2881 2656 2881 3163 
Q 2881 3666 2632 3958 
Q 2384 4250 1959 4250 
Q 1534 4250 1286 3958 
Q 1038 3666 1038 3163 
Q 1038 2656 1286 2365 
Q 1534 2075 1959 2075 
z
" transform="scale(0.015625)"/>
      </defs>
      <use xlink:href="#DejaVuSans-Oblique-56" transform="translate(0 0.78125)"/>
      <use xlink:href="#DejaVuSans-Oblique-67" transform="translate(68.408203 -15.625) scale(0.7)"/>
      <use xlink:href="#DejaVuSans-Oblique-73" transform="translate(112.841797 -15.625) scale(0.7)"/>
      <use xlink:href="#DejaVuSans-3d" transform="translate(171.52832 0.78125)"/>
      <use xlink:href="#DejaVuSans-30" transform="translate(274.799805 0.78125)"/>
      <use xlink:href="#DejaVuSans-2e" transform="translate(338.422852 0.78125)"/>
      <use xlink:href="#DejaVuSans-39" transform="translate(370.209961 0.78125)"/>
      <use xlink:href="#DejaVuSans-Oblique-56" transform="translate(466.303386 0.78125)"/>
     </g>
    </g>
    <g id="line2d_42">
     <path d="M 43.240625 140.785937 
L 53.240625 140.785937 
L 63.240625 140.785937 
" style="fill: none; stroke: #7f7f7f; stroke-width: 1.5; stroke-linecap: square"/>
    </g>
    <g id="text_24">
     <!-- $V_{gs} = 1.0\ V$ -->
     <g transform="translate(71.240625 144.285937) scale(0.1 -0.1)">
      <use xlink:href="#DejaVuSans-Oblique-56" transform="translate(0 0.78125)"/>
      <use xlink:href="#DejaVuSans-Oblique-67" transform="translate(68.408203 -15.625) scale(0.7)"/>
      <use xlink:href="#DejaVuSans-Oblique-73" transform="translate(112.841797 -15.625) scale(0.7)"/>
      <use xlink:href="#DejaVuSans-3d" transform="translate(171.52832 0.78125)"/>
      <use xlink:href="#DejaVuSans-31" transform="translate(274.799805 0.78125)"/>
      <use xlink:href="#DejaVuSans-2e" transform="translate(338.422852 0.78125)"/>
      <use xlink:href="#DejaVuSans-30" transform="translate(370.209961 0.78125)"/>
      <use xlink:href="#DejaVuSans-Oblique-56" transform="translate(466.303386 0.78125)"/>
     </g>
    </g>
   </g>
  </g>
 </g>
 <defs>
  <clipPath id="p1024b946b7">
   <rect x="34.240625" y="17.798437" width="558" height="332.64"/>
  </clipPath>
 </defs>
</svg>
