<svg xmlns="http://www.w3.org/2000/svg" xmlns:xlink="http://www.w3.org/1999/xlink" width="1908" height="901" version="1.1">
<style type="text/css">
.l0{
  fill: #000000;
  stroke: #000000;
  stroke-linecap:round;
  stroke-linejoin:round;
  stroke-width: 1.16754;
}
.l1{
  fill: #00ccee;
  stroke: #00ccee;
  stroke-linecap:round;
  stroke-linejoin:round;
  stroke-width: 1.16754;
}
.l2{
  fill: #4f4f4f; fill-opacity: 0.2;
  stroke: #4f4f4f;
  stroke-linecap:round;
  stroke-linejoin:round;
  stroke-width: 1.16754;
}
.l3{
  fill: #cccccc; fill-opacity: 0.5;
  stroke: #cccccc;
  stroke-linecap:round;
  stroke-linejoin:round;
  stroke-width: 1.16754;
}
.l4{
  fill: #88dd00;
  stroke: #88dd00;
  stroke-linecap:round;
  stroke-linejoin:round;
  stroke-width: 1.16754;
}
.l5{
  fill: #bb2200;
  stroke: #bb2200;
  stroke-linecap:round;
  stroke-linejoin:round;
  stroke-width: 1.16754;
}
.l6{
  fill: #00ccee; fill-opacity: 0.5;
  stroke: #00ccee;
  stroke-linecap:round;
  stroke-linejoin:round;
  stroke-width: 1.16754;
}
.l7{
  fill: #ff0000; fill-opacity: 0.5;
  stroke: #ff0000;
  stroke-linecap:round;
  stroke-linejoin:round;
  stroke-width: 1.16754;
}
.l8{
  fill: #ffff00; fill-opacity: 0.5;
  stroke: #ffff00;
  stroke-linecap:round;
  stroke-linejoin:round;
  stroke-width: 1.16754;
}
.l9{
  fill: #ffffff; fill-opacity: 0.5;
  stroke: #ffffff;
  stroke-linecap:round;
  stroke-linejoin:round;
  stroke-width: 1.16754;
}
.l10{
  fill: #ff00ff;
  stroke: #ff00ff;
  stroke-linecap:round;
  stroke-linejoin:round;
  stroke-width: 1.16754;
}
.l11{
  fill: #00ff00; fill-opacity: 0.5;
  stroke: #00ff00;
  stroke-linecap:round;
  stroke-linejoin:round;
  stroke-width: 1.16754;
}
.l12{
  fill: #0044ff; fill-opacity: 0.5;
  stroke: #0044ff;
  stroke-linecap:round;
  stroke-linejoin:round;
  stroke-width: 1.16754;
}
.l13{
  fill: #aaaa00; fill-opacity: 0.5;
  stroke: #aaaa00;
  stroke-linecap:round;
  stroke-linejoin:round;
  stroke-width: 1.16754;
}
.l14{
  fill: #aaccaa; fill-opacity: 0.2;
  stroke: #aaccaa;
  stroke-linecap:round;
  stroke-linejoin:round;
  stroke-width: 1.16754;
}
.l15{
  fill: #ff7777; fill-opacity: 0.5;
  stroke: #ff7777;
  stroke-linecap:round;
  stroke-linejoin:round;
  stroke-width: 1.16754;
}
.l16{
  fill: #bfff81; fill-opacity: 0.5;
  stroke: #bfff81;
  stroke-linecap:round;
  stroke-linejoin:round;
  stroke-width: 1.16754;
}
.l17{
  fill: #00ffcc; fill-opacity: 0.2;
  stroke: #00ffcc;
  stroke-linecap:round;
  stroke-linejoin:round;
  stroke-width: 1.16754;
}
.l18{
  fill: #ce0097; fill-opacity: 0.5;
  stroke: #ce0097;
  stroke-linecap:round;
  stroke-linejoin:round;
  stroke-width: 1.16754;
}
.l19{
  fill: #d2d46b; fill-opacity: 0.2;
  stroke: #d2d46b;
  stroke-linecap:round;
  stroke-linejoin:round;
  stroke-width: 1.16754;
}
.l20{
  fill: #ef6158; fill-opacity: 0.2;
  stroke: #ef6158;
  stroke-linecap:round;
  stroke-linejoin:round;
  stroke-width: 1.16754;
}
.l21{
  fill: #fdb200; fill-opacity: 0.2;
  stroke: #fdb200;
  stroke-linecap:round;
  stroke-linejoin:round;
  stroke-width: 1.16754;
}
text {font-family: Sans-Serif;}
</style>
<rect class="l0" x="0" y="0" width="1908" height="901"/>
<path class="l4" d="M106.456 103.061L80.5105 92.25L80.5105 98.7363L54.5652 98.7363L63.2136 103.061L54.5652 107.385L80.5105 107.385L80.5105 113.871L106.456 103.061"/>
<path class="l4" d="M71.8621 250.084L296.721 250.084"/>
<path class="l4" d="M71.8621 267.38L296.721 267.38"/>
<path class="l4" d="M71.8621 250.084L71.8621 267.38"/>
<path class="l4" d="M296.721 250.084L296.721 267.38"/>
<path class="l4" d="M71.8621 276.029L296.721 276.029"/>
<path class="l4" d="M71.8621 293.326L296.721 293.326"/>
<path class="l4" d="M71.8621 276.029L71.8621 293.326"/>
<path class="l4" d="M296.721 276.029L296.721 293.326"/>
<path class="l4" d="M71.8621 301.974L296.721 301.974"/>
<path class="l4" d="M71.8621 319.271L296.721 319.271"/>
<path class="l4" d="M71.8621 301.974L71.8621 319.271"/>
<path class="l4" d="M296.721 301.974L296.721 319.271"/>
<path class="l4" d="M71.8621 327.919L296.721 327.919"/>
<path class="l4" d="M71.8621 345.216L296.721 345.216"/>
<path class="l4" d="M71.8621 327.919L71.8621 345.216"/>
<path class="l4" d="M296.721 327.919L296.721 345.216"/>
<path class="l4" d="M71.8621 353.864L296.721 353.864"/>
<path class="l4" d="M71.8621 371.161L296.721 371.161"/>
<path class="l4" d="M71.8621 353.864L71.8621 371.161"/>
<path class="l4" d="M296.721 353.864L296.721 371.161"/>
<path class="l4" d="M71.8621 388.458L296.721 388.458"/>
<path class="l4" d="M71.8621 405.755L296.721 405.755"/>
<path class="l4" d="M71.8621 388.458L71.8621 405.755"/>
<path class="l4" d="M296.721 388.458L296.721 405.755"/>
<path class="l4" d="M71.8621 492.239L296.721 492.239"/>
<path class="l4" d="M71.8621 509.536L296.721 509.536"/>
<path class="l4" d="M71.8621 492.239L71.8621 509.536"/>
<path class="l4" d="M296.721 492.239L296.721 509.536"/>
<path class="l4" d="M71.8621 518.184L296.721 518.184"/>
<path class="l4" d="M71.8621 535.481L296.721 535.481"/>
<path class="l4" d="M71.8621 518.184L71.8621 535.481"/>
<path class="l4" d="M296.721 518.184L296.721 535.481"/>
<path class="l4" d="M71.8621 544.13L296.721 544.13"/>
<path class="l4" d="M71.8621 561.426L296.721 561.426"/>
<path class="l4" d="M71.8621 544.13L71.8621 561.426"/>
<path class="l4" d="M296.721 544.13L296.721 561.426"/>
<path class="l4" d="M365.908 224.138L590.767 224.138"/>
<path class="l4" d="M365.908 241.435L590.767 241.435"/>
<path class="l4" d="M365.908 224.138L365.908 241.435"/>
<path class="l4" d="M590.767 224.138L590.767 241.435"/>
<path class="l4" d="M659.954 224.138L884.813 224.138"/>
<path class="l4" d="M659.954 241.435L884.813 241.435"/>
<path class="l4" d="M659.954 224.138L659.954 241.435"/>
<path class="l4" d="M884.813 224.138L884.813 241.435"/>
<path class="l4" d="M659.954 258.732L884.813 258.732"/>
<path class="l4" d="M659.954 276.029L884.813 276.029"/>
<path class="l4" d="M659.954 258.732L659.954 276.029"/>
<path class="l4" d="M884.813 258.732L884.813 276.029"/>
<path class="l4" d="M954 224.138L1178.86 224.138"/>
<path class="l4" d="M954 241.435L1178.86 241.435"/>
<path class="l4" d="M954 224.138L954 241.435"/>
<path class="l4" d="M1178.86 224.138L1178.86 241.435"/>
<path class="l4" d="M954 258.732L1178.86 258.732"/>
<path class="l4" d="M954 276.029L1178.86 276.029"/>
<path class="l4" d="M954 258.732L954 276.029"/>
<path class="l4" d="M1178.86 258.732L1178.86 276.029"/>
<path class="l4" d="M954 293.326L1178.86 293.326"/>
<path class="l4" d="M954 310.622L1178.86 310.622"/>
<path class="l4" d="M954 293.326L954 310.622"/>
<path class="l4" d="M1178.86 293.326L1178.86 310.622"/>
<path class="l4" d="M954 327.919L1178.86 327.919"/>
<path class="l4" d="M954 345.216L1178.86 345.216"/>
<path class="l4" d="M954 327.919L954 345.216"/>
<path class="l4" d="M1178.86 327.919L1178.86 345.216"/>
<path class="l4" d="M954 388.458L1178.86 388.458"/>
<path class="l4" d="M954 405.755L1178.86 405.755"/>
<path class="l4" d="M954 388.458L954 405.755"/>
<path class="l4" d="M1178.86 388.458L1178.86 405.755"/>
<path class="l4" d="M954 440.349L1178.86 440.349"/>
<path class="l4" d="M954 457.645L1178.86 457.645"/>
<path class="l4" d="M954 440.349L954 457.645"/>
<path class="l4" d="M1178.86 440.349L1178.86 457.645"/>
<path class="l4" d="M954 466.294L1178.86 466.294"/>
<path class="l4" d="M954 483.591L1178.86 483.591"/>
<path class="l4" d="M954 466.294L954 483.591"/>
<path class="l4" d="M1178.86 466.294L1178.86 483.591"/>
<path class="l4" d="M954 509.536L1178.86 509.536"/>
<path class="l4" d="M954 526.833L1178.86 526.833"/>
<path class="l4" d="M954 509.536L954 526.833"/>
<path class="l4" d="M1178.86 509.536L1178.86 526.833"/>
<path class="l4" d="M1265.34 224.138L1490.2 224.138"/>
<path class="l4" d="M1265.34 241.435L1490.2 241.435"/>
<path class="l4" d="M1265.34 224.138L1265.34 241.435"/>
<path class="l4" d="M1490.2 224.138L1490.2 241.435"/>
<path class="l4" d="M1265.34 258.732L1490.2 258.732"/>
<path class="l4" d="M1265.34 276.029L1490.2 276.029"/>
<path class="l4" d="M1265.34 258.732L1265.34 276.029"/>
<path class="l4" d="M1490.2 258.732L1490.2 276.029"/>
<path class="l4" d="M1265.34 293.326L1490.2 293.326"/>
<path class="l4" d="M1265.34 310.622L1490.2 310.622"/>
<path class="l4" d="M1265.34 293.326L1265.34 310.622"/>
<path class="l4" d="M1490.2 293.326L1490.2 310.622"/>
<path class="l4" d="M71.8621 423.052L296.721 423.052"/>
<path class="l4" d="M71.8621 440.349L296.721 440.349"/>
<path class="l4" d="M71.8621 423.052L71.8621 440.349"/>
<path class="l4" d="M296.721 423.052L296.721 440.349"/>
<path class="l4" d="M71.8621 457.645L296.721 457.645"/>
<path class="l4" d="M71.8621 474.942L296.721 474.942"/>
<path class="l4" d="M71.8621 457.645L71.8621 474.942"/>
<path class="l4" d="M296.721 457.645L296.721 474.942"/>
<path class="l4" d="M365.908 258.732L590.767 258.732"/>
<path class="l4" d="M365.908 276.029L590.767 276.029"/>
<path class="l4" d="M365.908 258.732L365.908 276.029"/>
<path class="l4" d="M590.767 258.732L590.767 276.029"/>
<path class="l4" d="M71.8621 630.614L296.721 630.614"/>
<path class="l4" d="M71.8621 647.91L296.721 647.91"/>
<path class="l4" d="M71.8621 630.614L71.8621 647.91"/>
<path class="l4" d="M296.721 630.614L296.721 647.91"/>
<path class="l4" d="M365.908 293.326L590.767 293.326"/>
<path class="l4" d="M365.908 310.622L590.767 310.622"/>
<path class="l4" d="M365.908 293.326L365.908 310.622"/>
<path class="l4" d="M590.767 293.326L590.767 310.622"/>
<path class="l4" d="M71.8621 596.02L296.721 596.02"/>
<path class="l4" d="M71.8621 613.317L296.721 613.317"/>
<path class="l4" d="M71.8621 596.02L71.8621 613.317"/>
<path class="l4" d="M296.721 596.02L296.721 613.317"/>
<path class="l4" d="M71.8621 224.138L296.721 224.138"/>
<path class="l4" d="M71.8621 241.435L296.721 241.435"/>
<path class="l4" d="M71.8621 224.138L71.8621 241.435"/>
<path class="l4" d="M296.721 224.138L296.721 241.435"/>
<path class="l4" d="M365.908 327.919L590.767 327.919"/>
<path class="l4" d="M365.908 345.216L590.767 345.216"/>
<path class="l4" d="M365.908 327.919L365.908 345.216"/>
<path class="l4" d="M590.767 327.919L590.767 345.216"/>
<path class="l4" d="M71.8621 665.207L296.721 665.207"/>
<path class="l4" d="M71.8621 682.504L296.721 682.504"/>
<path class="l4" d="M71.8621 665.207L71.8621 682.504"/>
<path class="l4" d="M296.721 665.207L296.721 682.504"/>
<path class="l4" d="M71.8621 699.801L296.721 699.801"/>
<path class="l4" d="M71.8621 717.098L296.721 717.098"/>
<path class="l4" d="M71.8621 699.801L71.8621 717.098"/>
<path class="l4" d="M296.721 699.801L296.721 717.098"/>
<path class="l4" style="fill:none;" d="M296.721 570.075L71.8621 570.075L71.8621 587.372L296.721 587.372L296.721 570.075"/>
<path class="l4" d="M1585.33 250.084L1810.19 250.084"/>
<path class="l4" d="M1585.33 267.38L1810.19 267.38"/>
<path class="l4" d="M1585.33 250.084L1585.33 267.38"/>
<path class="l4" d="M1810.19 250.084L1810.19 267.38"/>
<path class="l4" d="M1585.33 284.677L1810.19 284.677"/>
<path class="l4" d="M1585.33 301.974L1810.19 301.974"/>
<path class="l4" d="M1585.33 284.677L1585.33 301.974"/>
<path class="l4" d="M1810.19 284.677L1810.19 301.974"/>
<path class="l5" d="M158.346 764.664L158.076 764.934L157.806 765.205L157.535 765.475L157.265 765.745L156.995 766.015L156.725 766.286L156.454 766.556L156.184 766.826L155.914 767.096L155.644 767.367L155.373 767.637L155.103 767.907L154.833 768.177L154.562 768.448L154.292 768.718L154.022 768.988L153.752 769.258L153.481 769.529L153.211 769.799L152.941 770.069L152.671 770.34L152.4 770.61L152.13 770.88L151.86 771.15L151.59 771.421L151.319 771.691L151.049 771.961L150.779 772.231L150.509 772.502L150.238 772.772L149.968 773.042L149.698 773.312L149.698 773.312L149.436 773.583L149.191 773.853L148.963 774.123L148.752 774.393L148.558 774.664L148.38 774.934L148.22 775.204L148.076 775.475L147.949 775.745L147.84 776.015L147.747 776.285L147.671 776.556L147.612 776.826L147.569 777.096L147.544 777.366L147.536 777.637L147.544 777.907L147.569 778.177L147.612 778.447L147.671 778.718L147.747 778.988L147.84 779.258L147.949 779.528L148.076 779.799L148.22 780.069L148.38 780.339L148.558 780.61L148.752 780.88L148.963 781.15L149.191 781.42L149.436 781.691L149.698 781.961L149.698 781.961L149.969 782.232L150.243 782.506L150.518 782.781L150.796 783.059L151.075 783.339L151.357 783.62L151.641 783.904L151.927 784.191L152.216 784.479L152.506 784.769L152.798 785.061L153.093 785.356L153.39 785.653L153.688 785.951L153.989 786.252L154.292 786.555L154.597 786.86L154.905 787.168L155.214 787.477L155.525 787.788L155.839 788.102L156.155 788.418L156.472 788.735L156.792 789.055L157.114 789.377L157.438 789.701L157.764 790.028L158.093 790.356L158.423 790.686L158.756 791.019L159.09 791.354L159.427 791.69L159.427 791.69L159.763 792.026L160.094 792.358L160.422 792.685L160.745 793.008L161.064 793.327L161.378 793.641L161.689 793.952L161.995 794.258L162.297 794.56L162.594 794.857L162.888 795.151L163.177 795.44L163.462 795.725L163.743 796.006L164.02 796.283L164.292 796.555L164.56 796.823L164.824 797.087L165.084 797.347L165.339 797.602L165.59 797.854L165.838 798.101L166.08 798.343L166.319 798.582L166.553 798.816L166.783 799.047L167.009 799.272L167.231 799.494L167.449 799.712L167.662 799.925L167.871 800.134L168.076 800.339L168.076 800.339L168.272 800.538L168.456 800.731L168.627 800.918L168.785 801.099L168.931 801.273L169.064 801.441L169.184 801.602L169.292 801.758L169.387 801.906L169.469 802.049L169.539 802.185L169.596 802.315L169.64 802.439L169.672 802.556L169.691 802.667L169.697 802.771L169.691 802.869L169.672 802.961L169.64 803.047L169.596 803.126L169.539 803.199L169.469 803.265L169.387 803.325L169.292 803.379L169.184 803.427L169.064 803.468L168.931 803.503L168.785 803.531L168.627 803.553L168.456 803.569L168.272 803.579L168.076 803.582L168.076 803.582L167.873 803.582L167.67 803.582L167.468 803.582L167.265 803.582L167.062 803.582L166.859 803.582L166.657 803.582L166.454 803.582L166.251 803.582L166.049 803.582L165.846 803.582L165.643 803.582L165.441 803.582L165.238 803.582L165.035 803.582L164.832 803.582L164.63 803.582L164.427 803.582L164.224 803.582L164.022 803.582L163.819 803.582L163.616 803.582L163.414 803.582L163.211 803.582L163.008 803.582L162.806 803.582L162.603 803.582L162.4 803.582L162.197 803.582L161.995 803.582L161.792 803.582L161.589 803.582L161.589 803.582L161.388 803.582L161.188 803.582L160.991 803.582L160.795 803.582L160.602 803.582L160.411 803.582L160.222 803.582L160.035 803.582L159.851 803.582L159.668 803.582L159.487 803.582L159.309 803.582L159.133 803.582L158.958 803.582L158.786 803.582L158.616 803.582L158.449 803.582L158.283 803.582L158.119 803.582L157.958 803.582L157.798 803.582L157.641 803.582L157.486 803.582L157.333 803.582L157.182 803.582L157.033 803.582L156.886 803.582L156.741 803.582L156.599 803.582L156.459 803.582L156.32 803.582L156.184 803.582L156.184 803.582L156.049 803.58L155.914 803.573L155.779 803.563L155.644 803.548L155.508 803.529L155.373 803.506L155.238 803.478L155.103 803.447L154.968 803.411L154.833 803.371L154.698 803.326L154.562 803.278L154.427 803.225L154.292 803.168L154.157 803.107L154.022 803.041L153.887 802.972L153.752 802.898L153.617 802.82L153.481 802.737L153.346 802.651L153.211 802.56L153.076 802.465L152.941 802.366L152.806 802.262L152.671 802.155L152.536 802.043L152.4 801.927L152.265 801.806L152.13 801.682L151.995 801.553L151.86 801.42L151.86 801.42L151.725 801.285L151.59 801.149L151.454 801.014L151.319 800.879L151.184 800.744L151.049 800.609L150.914 800.474L150.779 800.339L150.644 800.204L150.509 800.068L150.373 799.933L150.238 799.798L150.103 799.663L149.968 799.528L149.833 799.393L149.698 799.258L149.563 799.123L149.427 798.987L149.292 798.852L149.157 798.717L149.022 798.582L148.887 798.447L148.752 798.312L148.617 798.177L148.482 798.041L148.346 797.906L148.211 797.771L148.076 797.636L147.941 797.501L147.806 797.366L147.671 797.231L147.536 797.096L147.536 797.096L147.398 796.958L147.257 796.817L147.111 796.671L146.961 796.521L146.807 796.367L146.649 796.209L146.486 796.046L146.319 795.879L146.148 795.708L145.973 795.533L145.794 795.354L145.61 795.17L145.422 794.982L145.23 794.79L145.034 794.594L144.833 794.393L144.628 794.188L144.419 793.979L144.206 793.766L143.988 793.548L143.767 793.327L143.541 793.101L143.311 792.871L143.076 792.636L142.838 792.398L142.595 792.155L142.348 791.908L142.097 791.657L141.841 791.401L141.581 791.141L141.317 790.877L141.049 790.609L141.049 790.609L140.779 790.347L140.509 790.103L140.239 789.874L139.968 789.663L139.698 789.469L139.428 789.292L139.158 789.131L138.887 788.988L138.617 788.861L138.347 788.751L138.076 788.658L137.806 788.582L137.536 788.523L137.266 788.481L136.995 788.456L136.725 788.447L136.455 788.456L136.185 788.481L135.914 788.523L135.644 788.582L135.374 788.658L135.104 788.751L134.833 788.861L134.563 788.988L134.293 789.131L134.023 789.292L133.752 789.469L133.482 789.663L133.212 789.874L132.941 790.103L132.671 790.347L132.401 790.609L132.401 790.609L132.133 790.877L131.869 791.141L131.609 791.401L131.354 791.657L131.102 791.908L130.855 792.155L130.613 792.398L130.374 792.636L130.14 792.871L129.909 793.101L129.684 793.327L129.462 793.548L129.244 793.766L129.031 793.979L128.822 794.188L128.617 794.393L128.417 794.594L128.22 794.79L128.028 794.982L127.84 795.17L127.657 795.354L127.477 795.533L127.302 795.708L127.131 795.879L126.964 796.046L126.801 796.209L126.643 796.367L126.489 796.521L126.339 796.671L126.193 796.817L126.052 796.958L125.915 797.096L125.915 797.096L125.779 797.231L125.644 797.366L125.509 797.501L125.374 797.636L125.239 797.771L125.104 797.906L124.969 798.041L124.834 798.177L124.698 798.312L124.563 798.447L124.428 798.582L124.293 798.717L124.158 798.852L124.023 798.987L123.888 799.123L123.753 799.258L123.617 799.393L123.482 799.528L123.347 799.663L123.212 799.798L123.077 799.933L122.942 800.068L122.807 800.204L122.671 800.339L122.536 800.474L122.401 800.609L122.266 800.744L122.131 800.879L121.996 801.014L121.861 801.149L121.726 801.285L121.59 801.42L121.59 801.42L121.455 801.553L121.32 801.682L121.185 801.806L121.05 801.927L120.915 802.043L120.78 802.155L120.645 802.262L120.509 802.366L120.374 802.465L120.239 802.56L120.104 802.651L119.969 802.737L119.834 802.82L119.699 802.898L119.563 802.972L119.428 803.041L119.293 803.107L119.158 803.168L119.023 803.225L118.888 803.278L118.753 803.326L118.618 803.371L118.482 803.411L118.347 803.447L118.212 803.478L118.077 803.506L117.942 803.529L117.807 803.548L117.672 803.563L117.536 803.573L117.401 803.58L117.266 803.582L117.266 803.582L117.13 803.582L116.992 803.582L116.851 803.582L116.709 803.582L116.564 803.582L116.417 803.582L116.269 803.582L116.118 803.582L115.965 803.582L115.809 803.582L115.652 803.582L115.493 803.582L115.331 803.582L115.167 803.582L115.002 803.582L114.834 803.582L114.664 803.582L114.492 803.582L114.318 803.582L114.141 803.582L113.963 803.582L113.782 803.582L113.6 803.582L113.415 803.582L113.228 803.582L113.039 803.582L112.848 803.582L112.655 803.582L112.46 803.582L112.262 803.582L112.063 803.582L111.861 803.582L111.861 803.582L111.658 803.582L111.456 803.582L111.253 803.582L111.05 803.582L110.847 803.582L110.645 803.582L110.442 803.582L110.239 803.582L110.037 803.582L109.834 803.582L109.631 803.582L109.429 803.582L109.226 803.582L109.023 803.582L108.821 803.582L108.618 803.582L108.415 803.582L108.212 803.582L108.01 803.582L107.807 803.582L107.604 803.582L107.402 803.582L107.199 803.582L106.996 803.582L106.794 803.582L106.591 803.582L106.388 803.582L106.185 803.582L105.983 803.582L105.78 803.582L105.577 803.582L105.375 803.582L105.375 803.582L105.178 803.579L104.995 803.569L104.824 803.553L104.665 803.531L104.52 803.503L104.387 803.468L104.266 803.427L104.158 803.379L104.063 803.325L103.981 803.265L103.911 803.199L103.854 803.126L103.81 803.047L103.778 802.961L103.759 802.869L103.753 802.771L103.759 802.667L103.778 802.556L103.81 802.439L103.854 802.315L103.911 802.185L103.981 802.049L104.063 801.906L104.158 801.758L104.266 801.602L104.387 801.441L104.52 801.273L104.665 801.099L104.824 800.918L104.995 800.731L105.178 800.538L105.375 800.339L105.375 800.339L105.579 800.134L105.788 799.925L106.002 799.712L106.219 799.494L106.441 799.272L106.667 799.047L106.897 798.816L107.131 798.582L107.37 798.343L107.613 798.101L107.86 797.854L108.111 797.602L108.367 797.347L108.626 797.087L108.89 796.823L109.158 796.555L109.431 796.283L109.707 796.006L109.988 795.725L110.273 795.44L110.562 795.151L110.856 794.857L111.154 794.56L111.456 794.258L111.762 793.952L112.072 793.641L112.387 793.327L112.706 793.008L113.029 792.685L113.356 792.358L113.687 792.026L114.023 791.69L114.023 791.69L114.36 791.354L114.694 791.019L115.027 790.686L115.357 790.356L115.686 790.028L116.012 789.701L116.336 789.377L116.658 789.055L116.978 788.735L117.296 788.418L117.611 788.102L117.925 787.788L118.236 787.477L118.546 787.168L118.853 786.86L119.158 786.555L119.461 786.252L119.762 785.951L120.061 785.653L120.357 785.356L120.652 785.061L120.944 784.769L121.235 784.479L121.523 784.191L121.809 783.904L122.093 783.62L122.375 783.339L122.655 783.059L122.932 782.781L123.208 782.506L123.481 782.232L123.753 781.961L123.753 781.961L124.014 781.691L124.259 781.42L124.487 781.15L124.698 780.88L124.893 780.61L125.07 780.339L125.231 780.069L125.374 779.799L125.501 779.528L125.611 779.258L125.703 778.988L125.779 778.718L125.839 778.447L125.881 778.177L125.906 777.907L125.915 777.637L125.906 777.366L125.881 777.096L125.839 776.826L125.779 776.556L125.703 776.285L125.611 776.015L125.501 775.745L125.374 775.475L125.231 775.204L125.07 774.934L124.893 774.664L124.698 774.393L124.487 774.123L124.259 773.853L124.014 773.583L123.753 773.312L123.753 773.312L123.481 773.041L123.208 772.768L122.932 772.492L122.655 772.214L122.375 771.935L122.093 771.653L121.809 771.369L121.523 771.083L121.235 770.795L120.944 770.504L120.652 770.212L120.357 769.917L120.061 769.621L119.762 769.322L119.461 769.021L119.158 768.718L118.853 768.413L118.546 768.106L118.236 767.796L117.925 767.485L117.611 767.171L117.296 766.856L116.978 766.538L116.658 766.218L116.336 765.896L116.012 765.572L115.686 765.246L115.357 764.917L115.027 764.587L114.694 764.254L114.36 763.92L114.023 763.583L114.023 763.583L113.687 763.247L113.356 762.916L113.029 762.588L112.706 762.265L112.387 761.947L112.072 761.632L111.762 761.322L111.456 761.015L111.154 760.714L110.856 760.416L110.562 760.122L110.273 759.833L109.988 759.548L109.707 759.267L109.431 758.991L109.158 758.718L108.89 758.45L108.626 758.186L108.367 757.926L108.111 757.671L107.86 757.42L107.613 757.173L107.37 756.93L107.131 756.691L106.897 756.457L106.667 756.227L106.441 756.001L106.219 755.779L106.002 755.562L105.788 755.348L105.579 755.139L105.375 754.935L105.375 754.935L105.178 754.735L104.995 754.542L104.824 754.355L104.665 754.174L104.52 754L104.387 753.832L104.266 753.671L104.158 753.516L104.063 753.367L103.981 753.224L103.911 753.088L103.854 752.958L103.81 752.835L103.778 752.718L103.759 752.607L103.753 752.502L103.759 752.404L103.778 752.312L103.81 752.227L103.854 752.147L103.911 752.075L103.981 752.008L104.063 751.948L104.158 751.894L104.266 751.847L104.387 751.805L104.52 751.771L104.665 751.742L104.824 751.72L104.995 751.704L105.178 751.695L105.375 751.691L105.375 751.691L105.577 751.691L105.78 751.691L105.983 751.691L106.185 751.691L106.388 751.691L106.591 751.691L106.794 751.691L106.996 751.691L107.199 751.691L107.402 751.691L107.604 751.691L107.807 751.691L108.01 751.691L108.212 751.691L108.415 751.691L108.618 751.691L108.821 751.691L109.023 751.691L109.226 751.691L109.429 751.691L109.631 751.691L109.834 751.691L110.037 751.691L110.239 751.691L110.442 751.691L110.645 751.691L110.847 751.691L111.05 751.691L111.253 751.691L111.456 751.691L111.658 751.691L111.861 751.691L111.861 751.691L112.063 751.691L112.262 751.691L112.46 751.691L112.655 751.691L112.848 751.691L113.039 751.691L113.228 751.691L113.415 751.691L113.6 751.691L113.782 751.691L113.963 751.691L114.141 751.691L114.318 751.691L114.492 751.691L114.664 751.691L114.834 751.691L115.002 751.691L115.167 751.691L115.331 751.691L115.493 751.691L115.652 751.691L115.809 751.691L115.965 751.691L116.118 751.691L116.269 751.691L116.417 751.691L116.564 751.691L116.709 751.691L116.851 751.691L116.992 751.691L117.13 751.691L117.266 751.691L117.266 751.691L117.401 751.694L117.536 751.7L117.672 751.71L117.807 751.725L117.942 751.744L118.077 751.767L118.212 751.795L118.347 751.827L118.482 751.862L118.618 751.903L118.753 751.947L118.888 751.995L119.023 752.048L119.158 752.105L119.293 752.166L119.428 752.232L119.563 752.302L119.699 752.375L119.834 752.454L119.969 752.536L120.104 752.623L120.239 752.713L120.374 752.808L120.509 752.908L120.645 753.011L120.78 753.119L120.915 753.231L121.05 753.347L121.185 753.467L121.32 753.592L121.455 753.72L121.59 753.853L121.59 753.853L121.726 753.989L121.861 754.124L121.996 754.259L122.131 754.394L122.266 754.529L122.401 754.664L122.536 754.799L122.671 754.935L122.807 755.07L122.942 755.205L123.077 755.34L123.212 755.475L123.347 755.61L123.482 755.745L123.617 755.88L123.753 756.016L123.888 756.151L124.023 756.286L124.158 756.421L124.293 756.556L124.428 756.691L124.563 756.826L124.698 756.962L124.834 757.097L124.969 757.232L125.104 757.367L125.239 757.502L125.374 757.637L125.509 757.772L125.644 757.907L125.779 758.043L125.915 758.178L125.915 758.178L126.052 758.315L126.193 758.456L126.339 758.602L126.489 758.752L126.643 758.906L126.801 759.065L126.964 759.227L127.131 759.394L127.302 759.565L127.477 759.74L127.657 759.92L127.84 760.103L128.028 760.291L128.22 760.483L128.417 760.68L128.617 760.88L128.822 761.085L129.031 761.294L129.244 761.507L129.462 761.725L129.684 761.947L129.909 762.173L130.14 762.403L130.374 762.637L130.613 762.876L130.855 763.118L131.102 763.365L131.354 763.617L131.609 763.872L131.869 764.132L132.133 764.396L132.401 764.664L132.401 764.664L132.671 764.926L132.941 765.171L133.212 765.399L133.482 765.61L133.752 765.804L134.023 765.982L134.293 766.142L134.563 766.286L134.833 766.412L135.104 766.522L135.374 766.615L135.644 766.691L135.914 766.75L136.185 766.792L136.455 766.818L136.725 766.826L136.995 766.818L137.266 766.792L137.536 766.75L137.806 766.691L138.076 766.615L138.347 766.522L138.617 766.412L138.887 766.286L139.158 766.142L139.428 765.982L139.698 765.804L139.968 765.61L140.239 765.399L140.509 765.171L140.779 764.926L141.049 764.664L141.049 764.664L141.317 764.396L141.581 764.132L141.841 763.872L142.097 763.617L142.348 763.365L142.595 763.118L142.838 762.876L143.076 762.637L143.311 762.403L143.541 762.173L143.767 761.947L143.988 761.725L144.206 761.507L144.419 761.294L144.628 761.085L144.833 760.88L145.034 760.68L145.23 760.483L145.422 760.291L145.61 760.103L145.794 759.92L145.973 759.74L146.148 759.565L146.319 759.394L146.486 759.227L146.649 759.065L146.807 758.906L146.961 758.752L147.111 758.602L147.257 758.456L147.398 758.315L147.536 758.178L147.536 758.178L147.671 758.043L147.806 757.907L147.941 757.772L148.076 757.637L148.211 757.502L148.346 757.367L148.482 757.232L148.617 757.097L148.752 756.962L148.887 756.826L149.022 756.691L149.157 756.556L149.292 756.421L149.427 756.286L149.563 756.151L149.698 756.016L149.833 755.88L149.968 755.745L150.103 755.61L150.238 755.475L150.373 755.34L150.509 755.205L150.644 755.07L150.779 754.935L150.914 754.799L151.049 754.664L151.184 754.529L151.319 754.394L151.454 754.259L151.59 754.124L151.725 753.989L151.86 753.853L151.86 753.853L151.995 753.72L152.13 753.592L152.265 753.467L152.4 753.347L152.536 753.231L152.671 753.119L152.806 753.011L152.941 752.908L153.076 752.808L153.211 752.713L153.346 752.623L153.481 752.536L153.617 752.454L153.752 752.375L153.887 752.302L154.022 752.232L154.157 752.166L154.292 752.105L154.427 752.048L154.562 751.995L154.698 751.947L154.833 751.903L154.968 751.862L155.103 751.827L155.238 751.795L155.373 751.767L155.508 751.744L155.644 751.725L155.779 751.71L155.914 751.7L156.049 751.694L156.184 751.691L156.184 751.691L156.32 751.691L156.459 751.691L156.599 751.691L156.741 751.691L156.886 751.691L157.033 751.691L157.182 751.691L157.333 751.691L157.486 751.691L157.641 751.691L157.798 751.691L157.958 751.691L158.119 751.691L158.283 751.691L158.449 751.691L158.616 751.691L158.786 751.691L158.958 751.691L159.133 751.691L159.309 751.691L159.487 751.691L159.668 751.691L159.851 751.691L160.035 751.691L160.222 751.691L160.411 751.691L160.602 751.691L160.795 751.691L160.991 751.691L161.188 751.691L161.388 751.691L161.589 751.691L161.589 751.691L161.792 751.691L161.995 751.691L162.197 751.691L162.4 751.691L162.603 751.691L162.806 751.691L163.008 751.691L163.211 751.691L163.414 751.691L163.616 751.691L163.819 751.691L164.022 751.691L164.224 751.691L164.427 751.691L164.63 751.691L164.832 751.691L165.035 751.691L165.238 751.691L165.441 751.691L165.643 751.691L165.846 751.691L166.049 751.691L166.251 751.691L166.454 751.691L166.657 751.691L166.859 751.691L167.062 751.691L167.265 751.691L167.468 751.691L167.67 751.691L167.873 751.691L168.076 751.691L168.076 751.691L168.272 751.695L168.456 751.704L168.627 751.72L168.785 751.742L168.931 751.771L169.064 751.805L169.184 751.847L169.292 751.894L169.387 751.948L169.469 752.008L169.539 752.075L169.596 752.147L169.64 752.227L169.672 752.312L169.691 752.404L169.697 752.502L169.691 752.607L169.672 752.718L169.64 752.835L169.596 752.958L169.539 753.088L169.469 753.224L169.387 753.367L169.292 753.516L169.184 753.671L169.064 753.832L168.931 754L168.785 754.174L168.627 754.355L168.456 754.542L168.272 754.735L168.076 754.935L168.076 754.935L167.87 755.14L167.658 755.353L167.439 755.571L167.214 755.796L166.983 756.027L166.745 756.265L166.502 756.509L166.251 756.759L165.995 757.015L165.732 757.278L165.463 757.547L165.187 757.823L164.905 758.105L164.617 758.393L164.323 758.688L164.022 758.988L163.714 759.296L163.401 759.609L163.081 759.929L162.755 760.255L162.422 760.588L162.083 760.927L161.738 761.272L161.387 761.624L161.029 761.981L160.665 762.346L160.294 762.716L159.917 763.093L159.534 763.476L159.144 763.866L158.748 764.262L158.346 764.664"/>
<path class="l6" d="M361.584 777.637L1049.13 777.637"/>
<path class="l6" d="M28.62 777.637L84.8347 777.637"/>
<path class="l7" d="M339.963 146.303L339.963 725.746"/>
<path class="l7" d="M634.009 146.303L634.009 725.746"/>
<path class="l7" d="M928.055 146.303L928.055 725.746"/>
<path class="l7" d="M1222.1 146.303L1222.1 725.746"/>
<path class="l7" d="M45.9168 146.303L45.9168 725.746"/>
<path class="l7" d="M1542.09 146.303L1542.09 725.746"/>
<path class="l7" d="M1879.38 172.248L1879.38 751.691"/>
<text fill="#cccccc"  xml:space="preserve" font-size="17.9887" transform="translate(370.232, 798.295)" >x1.         sg13g2_tests/IHP_testcases.sch</text>
<text fill="#cccccc"  xml:space="preserve" font-size="17.9887" transform="translate(370.232, 772.349)" >Copyright 2023 IHP PDK Authors</text>
<text fill="#cccccc"  xml:space="preserve" font-size="17.9887" transform="translate(859.133, 772.349)" >2025-07-29  10:15:14</text>
<text fill="#cccccc"  xml:space="preserve" font-size="44.9717" transform="translate(171.319, 796.85)" >SCHEM</text>
<text fill="#cccccc"  xml:space="preserve" font-size="17.9887" transform="translate(115.104, 108.894)" >IHP-Open-PDK</text>
<text fill="#cccccc"  xml:space="preserve" font-size="13.4915" transform="translate(118.131, 265.793)" >dc_hv_nmos</text>
<text fill="#cccccc"  xml:space="preserve" font-size="8.99435" transform="translate(301.045, 247.872)" >x6</text>
<text fill="#cccccc"  xml:space="preserve" font-size="13.4915" transform="translate(118.131, 291.738)" >dc_lv_pmos</text>
<text fill="#cccccc"  xml:space="preserve" font-size="8.99435" transform="translate(301.045, 273.818)" >x7</text>
<text fill="#cccccc"  xml:space="preserve" font-size="13.4915" transform="translate(118.131, 317.684)" >dc_hv_pmos</text>
<text fill="#cccccc"  xml:space="preserve" font-size="8.99435" transform="translate(301.045, 299.763)" >x8</text>
<text fill="#cccccc"  xml:space="preserve" font-size="13.4915" transform="translate(118.131, 343.629)" >dc_mos_temp</text>
<text fill="#cccccc"  xml:space="preserve" font-size="8.99435" transform="translate(301.045, 325.708)" >x11</text>
<text fill="#cccccc"  xml:space="preserve" font-size="13.4915" transform="translate(118.131, 369.574)" >dc_mos_cs_temp</text>
<text fill="#cccccc"  xml:space="preserve" font-size="8.99435" transform="translate(301.045, 351.653)" >x12</text>
<text fill="#cccccc"  xml:space="preserve" font-size="13.4915" transform="translate(118.131, 404.168)" >dc_res_temp</text>
<text fill="#cccccc"  xml:space="preserve" font-size="8.99435" transform="translate(301.045, 386.247)" >x13</text>
<text fill="#cccccc"  xml:space="preserve" font-size="13.4915" transform="translate(118.131, 507.949)" >dc_diode_op</text>
<text fill="#cccccc"  xml:space="preserve" font-size="8.99435" transform="translate(301.045, 490.028)" >x14</text>
<text fill="#cccccc"  xml:space="preserve" font-size="13.4915" transform="translate(118.131, 533.894)" >dc_diode_temp</text>
<text fill="#cccccc"  xml:space="preserve" font-size="8.99435" transform="translate(301.045, 515.973)" >x15</text>
<text fill="#cccccc"  xml:space="preserve" font-size="13.4915" transform="translate(118.131, 559.839)" >dc_hbt_13g2</text>
<text fill="#cccccc"  xml:space="preserve" font-size="8.99435" transform="translate(301.045, 541.918)" >x17</text>
<text fill="#cccccc"  xml:space="preserve" font-size="13.4915" transform="translate(412.177, 239.848)" >tran_mim_cap</text>
<text fill="#cccccc"  xml:space="preserve" font-size="8.99435" transform="translate(595.091, 221.927)" >x10</text>
<text fill="#cccccc"  xml:space="preserve" font-size="13.4915" transform="translate(706.223, 239.848)" >ac_lv_nmosrf</text>
<text fill="#cccccc"  xml:space="preserve" font-size="8.99435" transform="translate(889.137, 221.927)" >x9</text>
<text fill="#cccccc"  xml:space="preserve" font-size="13.4915" transform="translate(706.223, 274.442)" >ac_mim_cap</text>
<text fill="#cccccc"  xml:space="preserve" font-size="8.99435" transform="translate(889.137, 256.521)" >x21</text>
<text fill="#cccccc"  xml:space="preserve" font-size="13.4915" transform="translate(1000.27, 239.848)" >mc_lv_nmos_cs_loop</text>
<text fill="#cccccc"  xml:space="preserve" font-size="8.99435" transform="translate(1183.18, 221.927)" >x1</text>
<text fill="#cccccc"  xml:space="preserve" font-size="13.4915" transform="translate(1000.27, 274.442)" >mc_hv_nmos_cs_loop</text>
<text fill="#cccccc"  xml:space="preserve" font-size="8.99435" transform="translate(1183.18, 256.521)" >x2</text>
<text fill="#cccccc"  xml:space="preserve" font-size="13.4915" transform="translate(1000.27, 309.035)" >mc_lv_pmos_cs_loop</text>
<text fill="#cccccc"  xml:space="preserve" font-size="8.99435" transform="translate(1183.18, 291.114)" >x3</text>
<text fill="#cccccc"  xml:space="preserve" font-size="13.4915" transform="translate(1000.27, 343.629)" >mc_hv_pmos_cs_loop</text>
<text fill="#cccccc"  xml:space="preserve" font-size="8.99435" transform="translate(1183.18, 325.708)" >x4</text>
<text fill="#cccccc"  xml:space="preserve" font-size="13.4915" transform="translate(1000.27, 404.168)" >mc_res_op</text>
<text fill="#cccccc"  xml:space="preserve" font-size="8.99435" transform="translate(1183.18, 386.247)" >x16</text>
<text fill="#cccccc"  xml:space="preserve" font-size="13.4915" transform="translate(1000.27, 456.058)" >mc_hbt_13g2</text>
<text fill="#cccccc"  xml:space="preserve" font-size="8.99435" transform="translate(1183.18, 438.137)" >x18</text>
<text fill="#cccccc"  xml:space="preserve" font-size="13.4915" transform="translate(996.377, 482.003)" >mc_hbt_13g2_ac</text>
<text fill="#cccccc"  xml:space="preserve" font-size="8.99435" transform="translate(1183.18, 464.083)" >x19</text>
<text fill="#cccccc"  xml:space="preserve" font-size="13.4915" transform="translate(1000.27, 525.246)" >mc_mim_cap_ac</text>
<text fill="#cccccc"  xml:space="preserve" font-size="8.99435" transform="translate(1183.18, 507.325)" >x24</text>
<text fill="#cccccc"  xml:space="preserve" font-size="13.4915" transform="translate(1311.61, 239.848)" >sp_mim_cap</text>
<text fill="#cccccc"  xml:space="preserve" font-size="8.99435" transform="translate(1494.53, 221.927)" >x20</text>
<text fill="#cccccc"  xml:space="preserve" font-size="13.4915" transform="translate(1311.61, 274.442)" >sp_parasitic_cap</text>
<text fill="#cccccc"  xml:space="preserve" font-size="8.99435" transform="translate(1494.53, 256.521)" >x22</text>
<text fill="#cccccc"  xml:space="preserve" font-size="13.4915" transform="translate(1311.61, 309.035)" >sp_rfmim_cap</text>
<text fill="#cccccc"  xml:space="preserve" font-size="8.99435" transform="translate(1494.53, 291.114)" >x23</text>
<text fill="#cccccc"  xml:space="preserve" font-size="13.4915" transform="translate(118.131, 438.761)" >dc_ntap1</text>
<text fill="#cccccc"  xml:space="preserve" font-size="8.99435" transform="translate(301.045, 420.841)" >x25</text>
<text fill="#cccccc"  xml:space="preserve" font-size="13.4915" transform="translate(118.131, 473.355)" >dc_ptap1</text>
<text fill="#cccccc"  xml:space="preserve" font-size="8.99435" transform="translate(301.045, 455.434)" >x26</text>
<text fill="#cccccc"  xml:space="preserve" font-size="13.4915" transform="translate(412.177, 274.442)" >tran_logic_not</text>
<text fill="#cccccc"  xml:space="preserve" font-size="8.99435" transform="translate(595.091, 256.521)" >x27</text>
<text fill="#cccccc"  xml:space="preserve" font-size="13.4915" transform="translate(118.131, 646.323)" >dc_logic_not</text>
<text fill="#cccccc"  xml:space="preserve" font-size="8.99435" transform="translate(301.045, 628.402)" >x28</text>
<text fill="#cccccc"  xml:space="preserve" font-size="13.4915" transform="translate(412.177, 309.035)" >tran_logic_nand</text>
<text fill="#cccccc"  xml:space="preserve" font-size="8.99435" transform="translate(595.091, 291.114)" >x29</text>
<text fill="#cccccc"  xml:space="preserve" font-size="13.4915" transform="translate(118.131, 611.73)" >dc_pnpMPA</text>
<text fill="#cccccc"  xml:space="preserve" font-size="8.99435" transform="translate(301.045, 593.809)" >x30</text>
<text fill="#cccccc"  xml:space="preserve" font-size="13.4915" transform="translate(118.131, 239.848)" >dc_lv_nmos</text>
<text fill="#cccccc"  xml:space="preserve" font-size="8.99435" transform="translate(301.045, 221.927)" >x5</text>
<text fill="#cccccc"  xml:space="preserve" font-size="13.4915" transform="translate(412.177, 343.629)" >tran_bondpad</text>
<text fill="#cccccc"  xml:space="preserve" font-size="8.99435" transform="translate(595.091, 325.708)" >x31</text>
<text fill="#cccccc"  xml:space="preserve" font-size="13.4915" transform="translate(118.131, 680.917)" >dc_esd_diodes</text>
<text fill="#cccccc"  xml:space="preserve" font-size="8.99435" transform="translate(301.045, 662.996)" >x31</text>
<text fill="#cccccc"  xml:space="preserve" font-size="13.4915" transform="translate(118.131, 715.511)" >dc_esd_nmos_cl</text>
<text fill="#cccccc"  xml:space="preserve" font-size="8.99435" transform="translate(301.045, 697.59)" >x32</text>
<text fill="#cccccc"  xml:space="preserve" font-size="13.4915" transform="translate(114.239, 585.784)" >dc_hbt_13g2_5t</text>
<text fill="#cccccc"  xml:space="preserve" font-size="8.99435" transform="translate(301.045, 567.864)" >x33</text>
<text fill="#cccccc"  xml:space="preserve" font-size="13.4915" transform="translate(1631.6, 265.793)" >inv_mc_tb</text>
<text fill="#cccccc"  xml:space="preserve" font-size="8.99435" transform="translate(1814.52, 247.872)" >x34</text>
<text fill="#cccccc"  xml:space="preserve" font-size="13.4915" transform="translate(1631.6, 300.387)" >inv_sweep_tb</text>
<text fill="#cccccc"  xml:space="preserve" font-size="8.99435" transform="translate(1814.52, 282.466)" >x35</text>
<text fill="#cccccc"  xml:space="preserve" font-size="35.9774" transform="translate(63.2136, 196.267)" >DC</text>
<text fill="#cccccc"  xml:space="preserve" font-size="35.9774" transform="translate(357.26, 196.267)" >Transient</text>
<text fill="#cccccc"  xml:space="preserve" font-size="35.9774" transform="translate(659.954, 196.267)" >AC</text>
<text fill="#cccccc"  xml:space="preserve" font-size="35.9774" transform="translate(945.352, 196.267)" >Monte Carlo</text>
<text fill="#cccccc"  xml:space="preserve" font-size="35.9774" transform="translate(1273.99, 196.267)" >S-param</text>
<text fill="#cccccc"  xml:space="preserve" font-size="35.9774" transform="translate(1585.33, 196.267)" >Tools</text>
</svg>
