<?xml version="1.0" encoding="utf-8" standalone="no"?>
<!DOCTYPE svg PUBLIC "-//W3C//DTD SVG 1.1//EN"
  "http://www.w3.org/Graphics/SVG/1.1/DTD/svg11.dtd">
<svg xmlns:xlink="http://www.w3.org/1999/xlink" width="608.98125pt" height="392.514375pt" viewBox="0 0 608.98125 392.514375" xmlns="http://www.w3.org/2000/svg" version="1.1">
 <metadata>
  <rdf:RDF xmlns:dc="http://purl.org/dc/elements/1.1/" xmlns:cc="http://creativecommons.org/ns#" xmlns:rdf="http://www.w3.org/1999/02/22-rdf-syntax-ns#">
   <cc:Work>
    <dc:type rdf:resource="http://purl.org/dc/dcmitype/StillImage"/>
    <dc:date>2025-08-11T12:26:28.512820</dc:date>
    <dc:format>image/svg+xml</dc:format>
    <dc:creator>
     <cc:Agent>
      <dc:title>Matplotlib v3.10.3, https://matplotlib.org/</dc:title>
     </cc:Agent>
    </dc:creator>
   </cc:Work>
  </rdf:RDF>
 </metadata>
 <defs>
  <style type="text/css">*{stroke-linejoin: round; stroke-linecap: butt}</style>
 </defs>
 <g id="figure_1">
  <g id="patch_1">
   <path d="M 0 392.514375 
L 608.98125 392.514375 
L 608.98125 0 
L 0 0 
z
" style="fill: #ffffff"/>
  </g>
  <g id="axes_1">
   <g id="patch_2">
    <path d="M 43.78125 354.958125 
L 601.78125 354.958125 
L 601.78125 22.318125 
L 43.78125 22.318125 
z
" style="fill: #ffffff"/>
   </g>
   <g id="matplotlib.axis_1">
    <g id="xtick_1">
     <g id="line2d_1">
      <path d="M 69.144886 354.958125 
L 69.144886 22.318125 
" clip-path="url(#pa2377ea905)" style="fill: none; stroke: #b0b0b0; stroke-width: 0.8; stroke-linecap: square"/>
     </g>
     <g id="line2d_2">
      <defs>
       <path id="m076eb8b7b3" d="M 0 0 
L 0 3.5 
" style="stroke: #000000; stroke-width: 0.8"/>
      </defs>
      <g>
       <use xlink:href="#m076eb8b7b3" x="69.144886" y="354.958125" style="stroke: #000000; stroke-width: 0.8"/>
      </g>
     </g>
     <g id="text_1">
      <!-- 0.0 -->
      <g transform="translate(61.193324 369.556562) scale(0.1 -0.1)">
       <defs>
        <path id="DejaVuSans-30" d="M 2034 4250 
Q 1547 4250 1301 3770 
Q 1056 3291 1056 2328 
Q 1056 1369 1301 889 
Q 1547 409 2034 409 
Q 2525 409 2770 889 
Q 3016 1369 3016 2328 
Q 3016 3291 2770 3770 
Q 2525 4250 2034 4250 
z
M 2034 4750 
Q 2819 4750 3233 4129 
Q 3647 3509 3647 2328 
Q 3647 1150 3233 529 
Q 2819 -91 2034 -91 
Q 1250 -91 836 529 
Q 422 1150 422 2328 
Q 422 3509 836 4129 
Q 1250 4750 2034 4750 
z
" transform="scale(0.015625)"/>
        <path id="DejaVuSans-2e" d="M 684 794 
L 1344 794 
L 1344 0 
L 684 0 
L 684 794 
z
" transform="scale(0.015625)"/>
       </defs>
       <use xlink:href="#DejaVuSans-30"/>
       <use xlink:href="#DejaVuSans-2e" transform="translate(63.623047 0)"/>
       <use xlink:href="#DejaVuSans-30" transform="translate(95.410156 0)"/>
      </g>
     </g>
    </g>
    <g id="xtick_2">
     <g id="line2d_3">
      <path d="M 153.690341 354.958125 
L 153.690341 22.318125 
" clip-path="url(#pa2377ea905)" style="fill: none; stroke: #b0b0b0; stroke-width: 0.8; stroke-linecap: square"/>
     </g>
     <g id="line2d_4">
      <g>
       <use xlink:href="#m076eb8b7b3" x="153.690341" y="354.958125" style="stroke: #000000; stroke-width: 0.8"/>
      </g>
     </g>
     <g id="text_2">
      <!-- 0.5 -->
      <g transform="translate(145.738778 369.556562) scale(0.1 -0.1)">
       <defs>
        <path id="DejaVuSans-35" d="M 691 4666 
L 3169 4666 
L 3169 4134 
L 1269 4134 
L 1269 2991 
Q 1406 3038 1543 3061 
Q 1681 3084 1819 3084 
Q 2600 3084 3056 2656 
Q 3513 2228 3513 1497 
Q 3513 744 3044 326 
Q 2575 -91 1722 -91 
Q 1428 -91 1123 -41 
Q 819 9 494 109 
L 494 744 
Q 775 591 1075 516 
Q 1375 441 1709 441 
Q 2250 441 2565 725 
Q 2881 1009 2881 1497 
Q 2881 1984 2565 2268 
Q 2250 2553 1709 2553 
Q 1456 2553 1204 2497 
Q 953 2441 691 2322 
L 691 4666 
z
" transform="scale(0.015625)"/>
       </defs>
       <use xlink:href="#DejaVuSans-30"/>
       <use xlink:href="#DejaVuSans-2e" transform="translate(63.623047 0)"/>
       <use xlink:href="#DejaVuSans-35" transform="translate(95.410156 0)"/>
      </g>
     </g>
    </g>
    <g id="xtick_3">
     <g id="line2d_5">
      <path d="M 238.235795 354.958125 
L 238.235795 22.318125 
" clip-path="url(#pa2377ea905)" style="fill: none; stroke: #b0b0b0; stroke-width: 0.8; stroke-linecap: square"/>
     </g>
     <g id="line2d_6">
      <g>
       <use xlink:href="#m076eb8b7b3" x="238.235795" y="354.958125" style="stroke: #000000; stroke-width: 0.8"/>
      </g>
     </g>
     <g id="text_3">
      <!-- 1.0 -->
      <g transform="translate(230.284233 369.556562) scale(0.1 -0.1)">
       <defs>
        <path id="DejaVuSans-31" d="M 794 531 
L 1825 531 
L 1825 4091 
L 703 3866 
L 703 4441 
L 1819 4666 
L 2450 4666 
L 2450 531 
L 3481 531 
L 3481 0 
L 794 0 
L 794 531 
z
" transform="scale(0.015625)"/>
       </defs>
       <use xlink:href="#DejaVuSans-31"/>
       <use xlink:href="#DejaVuSans-2e" transform="translate(63.623047 0)"/>
       <use xlink:href="#DejaVuSans-30" transform="translate(95.410156 0)"/>
      </g>
     </g>
    </g>
    <g id="xtick_4">
     <g id="line2d_7">
      <path d="M 322.78125 354.958125 
L 322.78125 22.318125 
" clip-path="url(#pa2377ea905)" style="fill: none; stroke: #b0b0b0; stroke-width: 0.8; stroke-linecap: square"/>
     </g>
     <g id="line2d_8">
      <g>
       <use xlink:href="#m076eb8b7b3" x="322.78125" y="354.958125" style="stroke: #000000; stroke-width: 0.8"/>
      </g>
     </g>
     <g id="text_4">
      <!-- 1.5 -->
      <g transform="translate(314.829687 369.556562) scale(0.1 -0.1)">
       <use xlink:href="#DejaVuSans-31"/>
       <use xlink:href="#DejaVuSans-2e" transform="translate(63.623047 0)"/>
       <use xlink:href="#DejaVuSans-35" transform="translate(95.410156 0)"/>
      </g>
     </g>
    </g>
    <g id="xtick_5">
     <g id="line2d_9">
      <path d="M 407.326705 354.958125 
L 407.326705 22.318125 
" clip-path="url(#pa2377ea905)" style="fill: none; stroke: #b0b0b0; stroke-width: 0.8; stroke-linecap: square"/>
     </g>
     <g id="line2d_10">
      <g>
       <use xlink:href="#m076eb8b7b3" x="407.326705" y="354.958125" style="stroke: #000000; stroke-width: 0.8"/>
      </g>
     </g>
     <g id="text_5">
      <!-- 2.0 -->
      <g transform="translate(399.375142 369.556562) scale(0.1 -0.1)">
       <defs>
        <path id="DejaVuSans-32" d="M 1228 531 
L 3431 531 
L 3431 0 
L 469 0 
L 469 531 
Q 828 903 1448 1529 
Q 2069 2156 2228 2338 
Q 2531 2678 2651 2914 
Q 2772 3150 2772 3378 
Q 2772 3750 2511 3984 
Q 2250 4219 1831 4219 
Q 1534 4219 1204 4116 
Q 875 4013 500 3803 
L 500 4441 
Q 881 4594 1212 4672 
Q 1544 4750 1819 4750 
Q 2544 4750 2975 4387 
Q 3406 4025 3406 3419 
Q 3406 3131 3298 2873 
Q 3191 2616 2906 2266 
Q 2828 2175 2409 1742 
Q 1991 1309 1228 531 
z
" transform="scale(0.015625)"/>
       </defs>
       <use xlink:href="#DejaVuSans-32"/>
       <use xlink:href="#DejaVuSans-2e" transform="translate(63.623047 0)"/>
       <use xlink:href="#DejaVuSans-30" transform="translate(95.410156 0)"/>
      </g>
     </g>
    </g>
    <g id="xtick_6">
     <g id="line2d_11">
      <path d="M 491.872159 354.958125 
L 491.872159 22.318125 
" clip-path="url(#pa2377ea905)" style="fill: none; stroke: #b0b0b0; stroke-width: 0.8; stroke-linecap: square"/>
     </g>
     <g id="line2d_12">
      <g>
       <use xlink:href="#m076eb8b7b3" x="491.872159" y="354.958125" style="stroke: #000000; stroke-width: 0.8"/>
      </g>
     </g>
     <g id="text_6">
      <!-- 2.5 -->
      <g transform="translate(483.920597 369.556562) scale(0.1 -0.1)">
       <use xlink:href="#DejaVuSans-32"/>
       <use xlink:href="#DejaVuSans-2e" transform="translate(63.623047 0)"/>
       <use xlink:href="#DejaVuSans-35" transform="translate(95.410156 0)"/>
      </g>
     </g>
    </g>
    <g id="xtick_7">
     <g id="line2d_13">
      <path d="M 576.417614 354.958125 
L 576.417614 22.318125 
" clip-path="url(#pa2377ea905)" style="fill: none; stroke: #b0b0b0; stroke-width: 0.8; stroke-linecap: square"/>
     </g>
     <g id="line2d_14">
      <g>
       <use xlink:href="#m076eb8b7b3" x="576.417614" y="354.958125" style="stroke: #000000; stroke-width: 0.8"/>
      </g>
     </g>
     <g id="text_7">
      <!-- 3.0 -->
      <g transform="translate(568.466051 369.556562) scale(0.1 -0.1)">
       <defs>
        <path id="DejaVuSans-33" d="M 2597 2516 
Q 3050 2419 3304 2112 
Q 3559 1806 3559 1356 
Q 3559 666 3084 287 
Q 2609 -91 1734 -91 
Q 1441 -91 1130 -33 
Q 819 25 488 141 
L 488 750 
Q 750 597 1062 519 
Q 1375 441 1716 441 
Q 2309 441 2620 675 
Q 2931 909 2931 1356 
Q 2931 1769 2642 2001 
Q 2353 2234 1838 2234 
L 1294 2234 
L 1294 2753 
L 1863 2753 
Q 2328 2753 2575 2939 
Q 2822 3125 2822 3475 
Q 2822 3834 2567 4026 
Q 2313 4219 1838 4219 
Q 1578 4219 1281 4162 
Q 984 4106 628 3988 
L 628 4550 
Q 988 4650 1302 4700 
Q 1616 4750 1894 4750 
Q 2613 4750 3031 4423 
Q 3450 4097 3450 3541 
Q 3450 3153 3228 2886 
Q 3006 2619 2597 2516 
z
" transform="scale(0.015625)"/>
       </defs>
       <use xlink:href="#DejaVuSans-33"/>
       <use xlink:href="#DejaVuSans-2e" transform="translate(63.623047 0)"/>
       <use xlink:href="#DejaVuSans-30" transform="translate(95.410156 0)"/>
      </g>
     </g>
    </g>
    <g id="text_8">
     <!-- Time [s] -->
     <g transform="translate(302.452344 383.234687) scale(0.1 -0.1)">
      <defs>
       <path id="DejaVuSans-54" d="M -19 4666 
L 3928 4666 
L 3928 4134 
L 2272 4134 
L 2272 0 
L 1638 0 
L 1638 4134 
L -19 4134 
L -19 4666 
z
" transform="scale(0.015625)"/>
       <path id="DejaVuSans-69" d="M 603 3500 
L 1178 3500 
L 1178 0 
L 603 0 
L 603 3500 
z
M 603 4863 
L 1178 4863 
L 1178 4134 
L 603 4134 
L 603 4863 
z
" transform="scale(0.015625)"/>
       <path id="DejaVuSans-6d" d="M 3328 2828 
Q 3544 3216 3844 3400 
Q 4144 3584 4550 3584 
Q 5097 3584 5394 3201 
Q 5691 2819 5691 2113 
L 5691 0 
L 5113 0 
L 5113 2094 
Q 5113 2597 4934 2840 
Q 4756 3084 4391 3084 
Q 3944 3084 3684 2787 
Q 3425 2491 3425 1978 
L 3425 0 
L 2847 0 
L 2847 2094 
Q 2847 2600 2669 2842 
Q 2491 3084 2119 3084 
Q 1678 3084 1418 2786 
Q 1159 2488 1159 1978 
L 1159 0 
L 581 0 
L 581 3500 
L 1159 3500 
L 1159 2956 
Q 1356 3278 1631 3431 
Q 1906 3584 2284 3584 
Q 2666 3584 2933 3390 
Q 3200 3197 3328 2828 
z
" transform="scale(0.015625)"/>
       <path id="DejaVuSans-65" d="M 3597 1894 
L 3597 1613 
L 953 1613 
Q 991 1019 1311 708 
Q 1631 397 2203 397 
Q 2534 397 2845 478 
Q 3156 559 3463 722 
L 3463 178 
Q 3153 47 2828 -22 
Q 2503 -91 2169 -91 
Q 1331 -91 842 396 
Q 353 884 353 1716 
Q 353 2575 817 3079 
Q 1281 3584 2069 3584 
Q 2775 3584 3186 3129 
Q 3597 2675 3597 1894 
z
M 3022 2063 
Q 3016 2534 2758 2815 
Q 2500 3097 2075 3097 
Q 1594 3097 1305 2825 
Q 1016 2553 972 2059 
L 3022 2063 
z
" transform="scale(0.015625)"/>
       <path id="DejaVuSans-20" transform="scale(0.015625)"/>
       <path id="DejaVuSans-5b" d="M 550 4863 
L 1875 4863 
L 1875 4416 
L 1125 4416 
L 1125 -397 
L 1875 -397 
L 1875 -844 
L 550 -844 
L 550 4863 
z
" transform="scale(0.015625)"/>
       <path id="DejaVuSans-73" d="M 2834 3397 
L 2834 2853 
Q 2591 2978 2328 3040 
Q 2066 3103 1784 3103 
Q 1356 3103 1142 2972 
Q 928 2841 928 2578 
Q 928 2378 1081 2264 
Q 1234 2150 1697 2047 
L 1894 2003 
Q 2506 1872 2764 1633 
Q 3022 1394 3022 966 
Q 3022 478 2636 193 
Q 2250 -91 1575 -91 
Q 1294 -91 989 -36 
Q 684 19 347 128 
L 347 722 
Q 666 556 975 473 
Q 1284 391 1588 391 
Q 1994 391 2212 530 
Q 2431 669 2431 922 
Q 2431 1156 2273 1281 
Q 2116 1406 1581 1522 
L 1381 1569 
Q 847 1681 609 1914 
Q 372 2147 372 2553 
Q 372 3047 722 3315 
Q 1072 3584 1716 3584 
Q 2034 3584 2315 3537 
Q 2597 3491 2834 3397 
z
" transform="scale(0.015625)"/>
       <path id="DejaVuSans-5d" d="M 1947 4863 
L 1947 -844 
L 622 -844 
L 622 -397 
L 1369 -397 
L 1369 4416 
L 622 4416 
L 622 4863 
L 1947 4863 
z
" transform="scale(0.015625)"/>
      </defs>
      <use xlink:href="#DejaVuSans-54"/>
      <use xlink:href="#DejaVuSans-69" transform="translate(57.958984 0)"/>
      <use xlink:href="#DejaVuSans-6d" transform="translate(85.742188 0)"/>
      <use xlink:href="#DejaVuSans-65" transform="translate(183.154297 0)"/>
      <use xlink:href="#DejaVuSans-20" transform="translate(244.677734 0)"/>
      <use xlink:href="#DejaVuSans-5b" transform="translate(276.464844 0)"/>
      <use xlink:href="#DejaVuSans-73" transform="translate(315.478516 0)"/>
      <use xlink:href="#DejaVuSans-5d" transform="translate(367.578125 0)"/>
     </g>
    </g>
    <g id="text_9">
     <!-- 1e−5 -->
     <g transform="translate(574.523438 382.234687) scale(0.1 -0.1)">
      <defs>
       <path id="DejaVuSans-2212" d="M 678 2272 
L 4684 2272 
L 4684 1741 
L 678 1741 
L 678 2272 
z
" transform="scale(0.015625)"/>
      </defs>
      <use xlink:href="#DejaVuSans-31"/>
      <use xlink:href="#DejaVuSans-65" transform="translate(63.623047 0)"/>
      <use xlink:href="#DejaVuSans-2212" transform="translate(125.146484 0)"/>
      <use xlink:href="#DejaVuSans-35" transform="translate(208.935547 0)"/>
     </g>
    </g>
   </g>
   <g id="matplotlib.axis_2">
    <g id="ytick_1">
     <g id="line2d_15">
      <path d="M 43.78125 339.838125 
L 601.78125 339.838125 
" clip-path="url(#pa2377ea905)" style="fill: none; stroke: #b0b0b0; stroke-width: 0.8; stroke-linecap: square"/>
     </g>
     <g id="line2d_16">
      <defs>
       <path id="m4a376788ec" d="M 0 0 
L -3.5 0 
" style="stroke: #000000; stroke-width: 0.8"/>
      </defs>
      <g>
       <use xlink:href="#m4a376788ec" x="43.78125" y="339.838125" style="stroke: #000000; stroke-width: 0.8"/>
      </g>
     </g>
     <g id="text_10">
      <!-- 0.0 -->
      <g transform="translate(20.878125 343.637344) scale(0.1 -0.1)">
       <use xlink:href="#DejaVuSans-30"/>
       <use xlink:href="#DejaVuSans-2e" transform="translate(63.623047 0)"/>
       <use xlink:href="#DejaVuSans-30" transform="translate(95.410156 0)"/>
      </g>
     </g>
    </g>
    <g id="ytick_2">
     <g id="line2d_17">
      <path d="M 43.78125 294.479227 
L 601.78125 294.479227 
" clip-path="url(#pa2377ea905)" style="fill: none; stroke: #b0b0b0; stroke-width: 0.8; stroke-linecap: square"/>
     </g>
     <g id="line2d_18">
      <g>
       <use xlink:href="#m4a376788ec" x="43.78125" y="294.479227" style="stroke: #000000; stroke-width: 0.8"/>
      </g>
     </g>
     <g id="text_11">
      <!-- 0.1 -->
      <g transform="translate(20.878125 298.278446) scale(0.1 -0.1)">
       <use xlink:href="#DejaVuSans-30"/>
       <use xlink:href="#DejaVuSans-2e" transform="translate(63.623047 0)"/>
       <use xlink:href="#DejaVuSans-31" transform="translate(95.410156 0)"/>
      </g>
     </g>
    </g>
    <g id="ytick_3">
     <g id="line2d_19">
      <path d="M 43.78125 249.120329 
L 601.78125 249.120329 
" clip-path="url(#pa2377ea905)" style="fill: none; stroke: #b0b0b0; stroke-width: 0.8; stroke-linecap: square"/>
     </g>
     <g id="line2d_20">
      <g>
       <use xlink:href="#m4a376788ec" x="43.78125" y="249.120329" style="stroke: #000000; stroke-width: 0.8"/>
      </g>
     </g>
     <g id="text_12">
      <!-- 0.2 -->
      <g transform="translate(20.878125 252.919547) scale(0.1 -0.1)">
       <use xlink:href="#DejaVuSans-30"/>
       <use xlink:href="#DejaVuSans-2e" transform="translate(63.623047 0)"/>
       <use xlink:href="#DejaVuSans-32" transform="translate(95.410156 0)"/>
      </g>
     </g>
    </g>
    <g id="ytick_4">
     <g id="line2d_21">
      <path d="M 43.78125 203.76143 
L 601.78125 203.76143 
" clip-path="url(#pa2377ea905)" style="fill: none; stroke: #b0b0b0; stroke-width: 0.8; stroke-linecap: square"/>
     </g>
     <g id="line2d_22">
      <g>
       <use xlink:href="#m4a376788ec" x="43.78125" y="203.76143" style="stroke: #000000; stroke-width: 0.8"/>
      </g>
     </g>
     <g id="text_13">
      <!-- 0.3 -->
      <g transform="translate(20.878125 207.560649) scale(0.1 -0.1)">
       <use xlink:href="#DejaVuSans-30"/>
       <use xlink:href="#DejaVuSans-2e" transform="translate(63.623047 0)"/>
       <use xlink:href="#DejaVuSans-33" transform="translate(95.410156 0)"/>
      </g>
     </g>
    </g>
    <g id="ytick_5">
     <g id="line2d_23">
      <path d="M 43.78125 158.402532 
L 601.78125 158.402532 
" clip-path="url(#pa2377ea905)" style="fill: none; stroke: #b0b0b0; stroke-width: 0.8; stroke-linecap: square"/>
     </g>
     <g id="line2d_24">
      <g>
       <use xlink:href="#m4a376788ec" x="43.78125" y="158.402532" style="stroke: #000000; stroke-width: 0.8"/>
      </g>
     </g>
     <g id="text_14">
      <!-- 0.4 -->
      <g transform="translate(20.878125 162.201751) scale(0.1 -0.1)">
       <defs>
        <path id="DejaVuSans-34" d="M 2419 4116 
L 825 1625 
L 2419 1625 
L 2419 4116 
z
M 2253 4666 
L 3047 4666 
L 3047 1625 
L 3713 1625 
L 3713 1100 
L 3047 1100 
L 3047 0 
L 2419 0 
L 2419 1100 
L 313 1100 
L 313 1709 
L 2253 4666 
z
" transform="scale(0.015625)"/>
       </defs>
       <use xlink:href="#DejaVuSans-30"/>
       <use xlink:href="#DejaVuSans-2e" transform="translate(63.623047 0)"/>
       <use xlink:href="#DejaVuSans-34" transform="translate(95.410156 0)"/>
      </g>
     </g>
    </g>
    <g id="ytick_6">
     <g id="line2d_25">
      <path d="M 43.78125 113.043634 
L 601.78125 113.043634 
" clip-path="url(#pa2377ea905)" style="fill: none; stroke: #b0b0b0; stroke-width: 0.8; stroke-linecap: square"/>
     </g>
     <g id="line2d_26">
      <g>
       <use xlink:href="#m4a376788ec" x="43.78125" y="113.043634" style="stroke: #000000; stroke-width: 0.8"/>
      </g>
     </g>
     <g id="text_15">
      <!-- 0.5 -->
      <g transform="translate(20.878125 116.842853) scale(0.1 -0.1)">
       <use xlink:href="#DejaVuSans-30"/>
       <use xlink:href="#DejaVuSans-2e" transform="translate(63.623047 0)"/>
       <use xlink:href="#DejaVuSans-35" transform="translate(95.410156 0)"/>
      </g>
     </g>
    </g>
    <g id="ytick_7">
     <g id="line2d_27">
      <path d="M 43.78125 67.684736 
L 601.78125 67.684736 
" clip-path="url(#pa2377ea905)" style="fill: none; stroke: #b0b0b0; stroke-width: 0.8; stroke-linecap: square"/>
     </g>
     <g id="line2d_28">
      <g>
       <use xlink:href="#m4a376788ec" x="43.78125" y="67.684736" style="stroke: #000000; stroke-width: 0.8"/>
      </g>
     </g>
     <g id="text_16">
      <!-- 0.6 -->
      <g transform="translate(20.878125 71.483955) scale(0.1 -0.1)">
       <defs>
        <path id="DejaVuSans-36" d="M 2113 2584 
Q 1688 2584 1439 2293 
Q 1191 2003 1191 1497 
Q 1191 994 1439 701 
Q 1688 409 2113 409 
Q 2538 409 2786 701 
Q 3034 994 3034 1497 
Q 3034 2003 2786 2293 
Q 2538 2584 2113 2584 
z
M 3366 4563 
L 3366 3988 
Q 3128 4100 2886 4159 
Q 2644 4219 2406 4219 
Q 1781 4219 1451 3797 
Q 1122 3375 1075 2522 
Q 1259 2794 1537 2939 
Q 1816 3084 2150 3084 
Q 2853 3084 3261 2657 
Q 3669 2231 3669 1497 
Q 3669 778 3244 343 
Q 2819 -91 2113 -91 
Q 1303 -91 875 529 
Q 447 1150 447 2328 
Q 447 3434 972 4092 
Q 1497 4750 2381 4750 
Q 2619 4750 2861 4703 
Q 3103 4656 3366 4563 
z
" transform="scale(0.015625)"/>
       </defs>
       <use xlink:href="#DejaVuSans-30"/>
       <use xlink:href="#DejaVuSans-2e" transform="translate(63.623047 0)"/>
       <use xlink:href="#DejaVuSans-36" transform="translate(95.410156 0)"/>
      </g>
     </g>
    </g>
    <g id="ytick_8">
     <g id="line2d_29">
      <path d="M 43.78125 22.325838 
L 601.78125 22.325838 
" clip-path="url(#pa2377ea905)" style="fill: none; stroke: #b0b0b0; stroke-width: 0.8; stroke-linecap: square"/>
     </g>
     <g id="line2d_30">
      <g>
       <use xlink:href="#m4a376788ec" x="43.78125" y="22.325838" style="stroke: #000000; stroke-width: 0.8"/>
      </g>
     </g>
     <g id="text_17">
      <!-- 0.7 -->
      <g transform="translate(20.878125 26.125056) scale(0.1 -0.1)">
       <defs>
        <path id="DejaVuSans-37" d="M 525 4666 
L 3525 4666 
L 3525 4397 
L 1831 0 
L 1172 0 
L 2766 4134 
L 525 4134 
L 525 4666 
z
" transform="scale(0.015625)"/>
       </defs>
       <use xlink:href="#DejaVuSans-30"/>
       <use xlink:href="#DejaVuSans-2e" transform="translate(63.623047 0)"/>
       <use xlink:href="#DejaVuSans-37" transform="translate(95.410156 0)"/>
      </g>
     </g>
    </g>
    <g id="text_18">
     <!-- Output Voltage [V] -->
     <g transform="translate(14.798438 235.262344) rotate(-90) scale(0.1 -0.1)">
      <defs>
       <path id="DejaVuSans-4f" d="M 2522 4238 
Q 1834 4238 1429 3725 
Q 1025 3213 1025 2328 
Q 1025 1447 1429 934 
Q 1834 422 2522 422 
Q 3209 422 3611 934 
Q 4013 1447 4013 2328 
Q 4013 3213 3611 3725 
Q 3209 4238 2522 4238 
z
M 2522 4750 
Q 3503 4750 4090 4092 
Q 4678 3434 4678 2328 
Q 4678 1225 4090 567 
Q 3503 -91 2522 -91 
Q 1538 -91 948 565 
Q 359 1222 359 2328 
Q 359 3434 948 4092 
Q 1538 4750 2522 4750 
z
" transform="scale(0.015625)"/>
       <path id="DejaVuSans-75" d="M 544 1381 
L 544 3500 
L 1119 3500 
L 1119 1403 
Q 1119 906 1312 657 
Q 1506 409 1894 409 
Q 2359 409 2629 706 
Q 2900 1003 2900 1516 
L 2900 3500 
L 3475 3500 
L 3475 0 
L 2900 0 
L 2900 538 
Q 2691 219 2414 64 
Q 2138 -91 1772 -91 
Q 1169 -91 856 284 
Q 544 659 544 1381 
z
M 1991 3584 
L 1991 3584 
z
" transform="scale(0.015625)"/>
       <path id="DejaVuSans-74" d="M 1172 4494 
L 1172 3500 
L 2356 3500 
L 2356 3053 
L 1172 3053 
L 1172 1153 
Q 1172 725 1289 603 
Q 1406 481 1766 481 
L 2356 481 
L 2356 0 
L 1766 0 
Q 1100 0 847 248 
Q 594 497 594 1153 
L 594 3053 
L 172 3053 
L 172 3500 
L 594 3500 
L 594 4494 
L 1172 4494 
z
" transform="scale(0.015625)"/>
       <path id="DejaVuSans-70" d="M 1159 525 
L 1159 -1331 
L 581 -1331 
L 581 3500 
L 1159 3500 
L 1159 2969 
Q 1341 3281 1617 3432 
Q 1894 3584 2278 3584 
Q 2916 3584 3314 3078 
Q 3713 2572 3713 1747 
Q 3713 922 3314 415 
Q 2916 -91 2278 -91 
Q 1894 -91 1617 61 
Q 1341 213 1159 525 
z
M 3116 1747 
Q 3116 2381 2855 2742 
Q 2594 3103 2138 3103 
Q 1681 3103 1420 2742 
Q 1159 2381 1159 1747 
Q 1159 1113 1420 752 
Q 1681 391 2138 391 
Q 2594 391 2855 752 
Q 3116 1113 3116 1747 
z
" transform="scale(0.015625)"/>
       <path id="DejaVuSans-56" d="M 1831 0 
L 50 4666 
L 709 4666 
L 2188 738 
L 3669 4666 
L 4325 4666 
L 2547 0 
L 1831 0 
z
" transform="scale(0.015625)"/>
       <path id="DejaVuSans-6f" d="M 1959 3097 
Q 1497 3097 1228 2736 
Q 959 2375 959 1747 
Q 959 1119 1226 758 
Q 1494 397 1959 397 
Q 2419 397 2687 759 
Q 2956 1122 2956 1747 
Q 2956 2369 2687 2733 
Q 2419 3097 1959 3097 
z
M 1959 3584 
Q 2709 3584 3137 3096 
Q 3566 2609 3566 1747 
Q 3566 888 3137 398 
Q 2709 -91 1959 -91 
Q 1206 -91 779 398 
Q 353 888 353 1747 
Q 353 2609 779 3096 
Q 1206 3584 1959 3584 
z
" transform="scale(0.015625)"/>
       <path id="DejaVuSans-6c" d="M 603 4863 
L 1178 4863 
L 1178 0 
L 603 0 
L 603 4863 
z
" transform="scale(0.015625)"/>
       <path id="DejaVuSans-61" d="M 2194 1759 
Q 1497 1759 1228 1600 
Q 959 1441 959 1056 
Q 959 750 1161 570 
Q 1363 391 1709 391 
Q 2188 391 2477 730 
Q 2766 1069 2766 1631 
L 2766 1759 
L 2194 1759 
z
M 3341 1997 
L 3341 0 
L 2766 0 
L 2766 531 
Q 2569 213 2275 61 
Q 1981 -91 1556 -91 
Q 1019 -91 701 211 
Q 384 513 384 1019 
Q 384 1609 779 1909 
Q 1175 2209 1959 2209 
L 2766 2209 
L 2766 2266 
Q 2766 2663 2505 2880 
Q 2244 3097 1772 3097 
Q 1472 3097 1187 3025 
Q 903 2953 641 2809 
L 641 3341 
Q 956 3463 1253 3523 
Q 1550 3584 1831 3584 
Q 2591 3584 2966 3190 
Q 3341 2797 3341 1997 
z
" transform="scale(0.015625)"/>
       <path id="DejaVuSans-67" d="M 2906 1791 
Q 2906 2416 2648 2759 
Q 2391 3103 1925 3103 
Q 1463 3103 1205 2759 
Q 947 2416 947 1791 
Q 947 1169 1205 825 
Q 1463 481 1925 481 
Q 2391 481 2648 825 
Q 2906 1169 2906 1791 
z
M 3481 434 
Q 3481 -459 3084 -895 
Q 2688 -1331 1869 -1331 
Q 1566 -1331 1297 -1286 
Q 1028 -1241 775 -1147 
L 775 -588 
Q 1028 -725 1275 -790 
Q 1522 -856 1778 -856 
Q 2344 -856 2625 -561 
Q 2906 -266 2906 331 
L 2906 616 
Q 2728 306 2450 153 
Q 2172 0 1784 0 
Q 1141 0 747 490 
Q 353 981 353 1791 
Q 353 2603 747 3093 
Q 1141 3584 1784 3584 
Q 2172 3584 2450 3431 
Q 2728 3278 2906 2969 
L 2906 3500 
L 3481 3500 
L 3481 434 
z
" transform="scale(0.015625)"/>
      </defs>
      <use xlink:href="#DejaVuSans-4f"/>
      <use xlink:href="#DejaVuSans-75" transform="translate(78.710938 0)"/>
      <use xlink:href="#DejaVuSans-74" transform="translate(142.089844 0)"/>
      <use xlink:href="#DejaVuSans-70" transform="translate(181.298828 0)"/>
      <use xlink:href="#DejaVuSans-75" transform="translate(244.775391 0)"/>
      <use xlink:href="#DejaVuSans-74" transform="translate(308.154297 0)"/>
      <use xlink:href="#DejaVuSans-20" transform="translate(347.363281 0)"/>
      <use xlink:href="#DejaVuSans-56" transform="translate(379.150391 0)"/>
      <use xlink:href="#DejaVuSans-6f" transform="translate(439.808594 0)"/>
      <use xlink:href="#DejaVuSans-6c" transform="translate(500.990234 0)"/>
      <use xlink:href="#DejaVuSans-74" transform="translate(528.773438 0)"/>
      <use xlink:href="#DejaVuSans-61" transform="translate(567.982422 0)"/>
      <use xlink:href="#DejaVuSans-67" transform="translate(629.261719 0)"/>
      <use xlink:href="#DejaVuSans-65" transform="translate(692.738281 0)"/>
      <use xlink:href="#DejaVuSans-20" transform="translate(754.261719 0)"/>
      <use xlink:href="#DejaVuSans-5b" transform="translate(786.048828 0)"/>
      <use xlink:href="#DejaVuSans-56" transform="translate(825.0625 0)"/>
      <use xlink:href="#DejaVuSans-5d" transform="translate(893.470703 0)"/>
     </g>
    </g>
   </g>
   <g id="line2d_31">
    <path d="M 69.144886 339.838125 
L 69.179888 339.730567 
L 69.301803 337.946645 
L 69.629771 333.062937 
L 69.693282 333.072909 
L 71.807175 333.38259 
L 71.814101 333.327676 
L 72.335226 325.520386 
L 72.4799 325.568346 
L 74.51263 326.21147 
L 74.519556 326.157708 
L 75.040681 318.436552 
L 75.185355 318.508241 
L 77.214621 319.486034 
L 77.22501 319.423797 
L 77.746135 311.783537 
L 77.890809 311.877511 
L 79.920076 313.160136 
L 79.930465 313.099423 
L 80.45159 305.535139 
L 80.596264 305.650043 
L 82.625531 307.218961 
L 82.63592 307.159679 
L 83.157044 299.666752 
L 83.301718 299.801312 
L 85.330985 301.639112 
L 85.341374 301.581174 
L 85.867166 294.088341 
L 86.017914 294.248009 
L 88.03644 296.330269 
L 88.046829 296.27361 
L 88.57262 288.845105 
L 88.712627 289.010414 
L 90.74646 291.349402 
L 90.756892 291.293432 
L 91.278075 283.991812 
L 91.418082 284.172854 
L 93.451915 286.734729 
L 93.462347 286.679875 
L 93.978862 279.499036 
L 94.123537 279.701152 
L 96.152803 282.463006 
L 96.163192 282.409689 
L 96.684317 275.214096 
L 96.839732 275.446606 
L 98.858258 278.388747 
L 98.868647 278.336411 
L 99.389771 271.189752 
L 99.534446 271.419701 
L 101.563712 274.562275 
L 101.574101 274.510861 
L 102.095226 267.410158 
L 102.2399 267.652768 
L 104.269167 270.968515 
L 104.279556 270.917967 
L 104.805347 263.796773 
L 104.945355 264.043284 
L 106.979187 267.532598 
L 106.98962 267.482389 
L 107.506135 260.530139 
L 107.66155 260.81548 
L 109.680076 264.426774 
L 109.690465 264.377801 
L 110.21159 257.398837 
L 110.356264 257.674981 
L 112.385531 261.449434 
L 112.39592 261.401179 
L 112.917044 254.457958 
L 113.072459 254.765147 
L 115.090985 258.653155 
L 115.101374 258.605574 
L 115.622499 251.695937 
L 115.767173 251.991184 
L 117.79644 256.02694 
L 117.806829 255.979991 
L 118.33262 249.03984 
L 118.472627 249.334189 
L 120.501894 253.492094 
L 120.512283 253.445756 
L 121.033408 246.598105 
L 121.178082 246.910428 
L 123.207349 251.179759 
L 123.217738 251.133977 
L 123.738862 244.314106 
L 123.883537 244.63408 
L 125.912803 249.00806 
L 125.923192 248.962802 
L 126.444317 242.169006 
L 126.588991 242.496166 
L 128.618258 246.968431 
L 128.628647 246.923665 
L 129.149771 240.154365 
L 129.294446 240.488273 
L 131.323712 245.052847 
L 131.334101 245.008542 
L 131.841374 238.260567 
L 131.9999 238.602495 
L 134.033733 243.263961 
L 134.044165 243.219623 
L 134.546829 236.554062 
L 134.705355 236.902251 
L 136.734621 241.631682 
L 136.74501 241.588202 
L 137.256892 234.819361 
L 137.410809 235.162926 
L 139.440076 239.972318 
L 139.450465 239.929237 
L 139.962347 233.179967 
L 140.127004 233.55585 
L 142.145531 238.413861 
L 142.15592 238.371155 
L 142.663192 231.70081 
L 142.821718 232.066811 
L 144.850985 237.018537 
L 144.861374 236.976167 
L 145.368647 230.322138 
L 145.527173 230.693198 
L 147.561006 235.719069 
L 147.571438 235.676556 
L 148.074101 229.09842 
L 148.232627 229.473971 
L 150.261894 234.544898 
L 150.272283 234.503124 
L 150.784165 227.817904 
L 150.938082 228.186417 
L 152.967349 233.316538 
L 152.977738 233.27506 
L 153.48962 226.604318 
L 153.654277 227.005264 
L 155.672803 232.162868 
L 155.683192 232.121668 
L 156.190465 225.524416 
L 156.348991 225.913082 
L 158.378258 231.147717 
L 158.388647 231.106761 
L 158.89592 224.521379 
L 159.054446 224.913727 
L 161.083712 230.194304 
L 161.094101 230.153579 
L 161.601374 223.579345 
L 161.7599 223.975149 
L 163.789167 229.298875 
L 163.799556 229.258366 
L 164.306829 222.694602 
L 164.465355 223.093653 
L 166.494621 228.457904 
L 166.50501 228.417597 
L 167.012283 221.863667 
L 167.170809 222.265767 
L 169.200076 227.668078 
L 169.210465 227.627961 
L 169.717738 221.083267 
L 169.876264 221.488231 
L 171.905531 226.926288 
L 171.91592 226.886349 
L 172.423192 220.350328 
L 172.581718 220.757983 
L 174.610985 226.22961 
L 174.621374 226.18984 
L 175.128647 219.661965 
L 175.287173 220.072146 
L 177.31644 225.575303 
L 177.326829 225.53569 
L 177.834101 219.015466 
L 177.992627 219.428019 
L 180.021894 224.960789 
L 180.032283 224.921324 
L 180.539556 218.408286 
L 180.698082 218.823067 
L 182.727349 224.383648 
L 182.737738 224.344322 
L 183.24501 217.838032 
L 183.403537 218.254906 
L 185.432803 223.841607 
L 185.443192 223.802412 
L 185.950465 217.302459 
L 186.108991 217.721299 
L 188.138258 223.332531 
L 188.148647 223.293459 
L 188.65592 216.799459 
L 188.814446 217.220144 
L 190.843712 222.854416 
L 190.854101 222.815459 
L 191.361374 216.32705 
L 191.5199 216.749469 
L 193.549167 222.405378 
L 193.559556 222.366529 
L 194.066829 215.883371 
L 194.225355 216.307418 
L 196.254621 221.98365 
L 196.26501 221.944902 
L 196.772283 215.466675 
L 196.930809 215.892252 
L 198.964642 221.600058 
L 198.975074 221.560961 
L 199.477738 215.146426 
L 199.636264 215.573178 
L 201.670096 221.295686 
L 201.680529 221.256663 
L 202.187801 214.786924 
L 202.341718 215.201871 
L 204.370985 220.928928 
L 204.381374 220.890434 
L 204.893256 214.365855 
L 205.03021 214.733092 
L 207.07644 220.528644 
L 207.086829 220.490247 
L 207.594101 214.029033 
L 207.735664 214.410549 
L 209.781894 220.221049 
L 209.792283 220.182726 
L 210.299556 213.725109 
L 210.458082 214.157076 
L 212.487349 219.932159 
L 212.497738 219.893906 
L 213.00501 213.439666 
L 213.163537 213.872682 
L 215.192803 219.660838 
L 215.203192 219.622651 
L 215.710465 213.171584 
L 215.868991 213.605583 
L 217.898258 219.406021 
L 217.908647 219.367894 
L 218.41592 212.919807 
L 218.574446 213.35473 
L 220.603712 219.166698 
L 220.614101 219.12863 
L 221.121374 212.683341 
L 221.2799 213.119132 
L 223.309167 218.941931 
L 223.319556 218.903917 
L 223.826829 212.461256 
L 223.985355 212.897862 
L 226.019187 218.743627 
L 226.02962 218.705221 
L 226.532283 212.323777 
L 226.690809 212.760888 
L 228.724642 218.612967 
L 228.735074 218.574592 
L 229.237738 212.194677 
L 229.396264 212.632261 
L 231.425531 218.477449 
L 231.43592 218.439547 
L 231.947801 211.943898 
L 232.084755 212.318815 
L 234.130985 218.226266 
L 234.141374 218.188423 
L 234.653256 211.695731 
L 234.79021 212.071436 
L 236.83644 217.99035 
L 236.846829 217.952564 
L 237.354101 211.521031 
L 237.495664 211.910767 
L 239.541894 217.837125 
L 239.552283 217.799376 
L 240.059556 211.369634 
L 240.218082 211.810246 
L 242.247349 217.693218 
L 242.257738 217.655504 
L 242.76501 211.227445 
L 242.923537 211.668579 
L 244.952803 217.55807 
L 244.963192 217.520389 
L 245.470465 211.09391 
L 245.628991 211.535533 
L 247.658258 217.431141 
L 247.668647 217.393491 
L 248.17592 210.968496 
L 248.334446 211.410579 
L 250.363712 217.311932 
L 250.374101 217.27431 
L 250.881374 210.850709 
L 251.0399 211.293225 
L 253.069167 217.199972 
L 253.079556 217.162377 
L 253.586829 210.740086 
L 253.745355 211.183008 
L 255.774621 217.094822 
L 255.78501 217.057252 
L 256.292283 210.63619 
L 256.450809 211.079493 
L 258.480076 216.996066 
L 258.490465 216.958521 
L 258.997738 210.538613 
L 259.156264 210.982275 
L 261.185531 216.903317 
L 261.19592 216.865794 
L 261.703192 210.446971 
L 261.861718 210.890968 
L 263.890985 216.816208 
L 263.901374 216.778706 
L 264.408647 210.360901 
L 264.567173 210.805215 
L 266.59644 216.734397 
L 266.606829 216.696915 
L 267.114101 210.280067 
L 267.272627 210.724677 
L 269.301894 216.657562 
L 269.312283 216.620098 
L 269.819556 210.204148 
L 269.978082 210.649037 
L 272.007349 216.5854 
L 272.017738 216.547953 
L 272.52501 210.132847 
L 272.683537 210.577997 
L 274.712803 216.517626 
L 274.723192 216.480195 
L 275.230465 210.065882 
L 275.388991 210.511278 
L 277.418258 216.453974 
L 277.428647 216.416558 
L 277.93592 210.00299 
L 278.094446 210.448617 
L 280.123712 216.394193 
L 280.134101 216.356792 
L 280.641374 209.943922 
L 280.7999 210.389766 
L 282.829167 216.338048 
L 282.839556 216.30066 
L 283.346829 209.888447 
L 283.505355 210.334494 
L 285.534621 216.285317 
L 285.54501 216.247943 
L 286.052283 209.836346 
L 286.210809 210.282584 
L 288.240076 216.235793 
L 288.250465 216.198431 
L 288.757738 209.787413 
L 288.916264 210.233831 
L 290.945531 216.189282 
L 290.95592 216.15193 
L 291.463192 209.741456 
L 291.621718 210.188043 
L 293.650985 216.145599 
L 293.661374 216.108258 
L 294.168647 209.698295 
L 294.327173 210.14504 
L 296.35644 216.104572 
L 296.366829 216.067241 
L 296.874101 209.657758 
L 297.032627 210.104652 
L 299.061894 216.066041 
L 299.072283 216.028719 
L 299.579556 209.619686 
L 299.738082 210.06672 
L 301.767349 216.029853 
L 301.777738 215.99254 
L 302.28501 209.58393 
L 302.443537 210.031095 
L 304.472803 215.995866 
L 304.483192 215.958561 
L 304.990465 209.550349 
L 305.148991 209.997637 
L 307.178258 215.963946 
L 307.188647 215.926649 
L 307.69592 209.51881 
L 307.854446 209.966214 
L 309.883712 215.933967 
L 309.894101 215.896677 
L 310.401374 209.489189 
L 310.5599 209.936701 
L 312.589167 215.905812 
L 312.599556 215.868529 
L 313.106829 209.461369 
L 313.265355 209.908984 
L 315.294621 215.879368 
L 315.30501 215.842092 
L 315.812283 209.435242 
L 315.970809 209.882952 
L 318.000076 215.854533 
L 318.010465 215.817263 
L 318.517738 209.410703 
L 318.676264 209.858504 
L 320.705531 215.831209 
L 320.71592 215.793944 
L 321.223192 209.387657 
L 321.381718 209.835542 
L 323.410985 215.809303 
L 323.421374 215.772043 
L 323.988694 208.530883 
L 324.60501 200.808343 
L 324.682373 201.026666 
L 326.119903 205.564259 
L 326.140681 205.385419 
L 327.310465 190.843508 
L 327.370513 191.019945 
L 328.825357 195.943445 
L 328.846135 195.76924 
L 330.01592 181.484706 
L 330.075967 181.674168 
L 331.530812 186.907741 
L 331.55159 186.737889 
L 332.721374 172.69508 
L 332.781422 172.896774 
L 334.236266 178.421564 
L 334.257044 178.2558 
L 335.426829 164.440014 
L 335.486876 164.653196 
L 336.941721 170.451491 
L 336.962499 170.289567 
L 338.132283 156.686997 
L 338.192331 156.910969 
L 339.647175 162.966136 
L 339.667953 162.807817 
L 340.837738 149.405497 
L 340.897785 149.639602 
L 342.35263 155.936018 
L 342.373408 155.781087 
L 343.543192 142.566837 
L 343.60324 142.810459 
L 345.058084 149.333452 
L 345.078862 149.181702 
L 346.248647 136.144085 
L 346.308694 136.396645 
L 347.763539 143.132436 
L 347.784317 142.983673 
L 348.954101 130.111946 
L 349.014149 130.372901 
L 350.468994 137.308548 
L 350.489771 137.162591 
L 351.659556 124.446665 
L 351.719603 124.715504 
L 353.174448 131.838852 
L 353.195226 131.69553 
L 354.36501 119.125931 
L 354.425058 119.402174 
L 355.879903 126.701807 
L 355.900681 126.56096 
L 357.070465 114.128788 
L 357.130513 114.411986 
L 358.585357 121.877183 
L 358.606135 121.73866 
L 359.77592 109.435557 
L 359.835967 109.725286 
L 361.290812 117.345979 
L 361.31159 117.209639 
L 362.481374 105.027755 
L 362.541422 105.323618 
L 363.996266 113.09035 
L 364.017044 112.95606 
L 365.186829 100.888023 
L 365.246876 101.189648 
L 366.701721 109.093536 
L 366.722499 108.961172 
L 367.892283 97.000058 
L 367.952331 97.307093 
L 369.407175 105.339797 
L 369.427953 105.209241 
L 370.597738 93.348548 
L 370.649128 93.611231 
L 372.11263 101.814349 
L 372.133408 101.685492 
L 373.303192 89.919112 
L 373.354582 90.18588 
L 374.818084 98.503309 
L 374.838862 98.376047 
L 376.008647 86.698245 
L 376.060037 86.968849 
L 377.523539 95.393638 
L 377.544317 95.267874 
L 378.714101 83.673261 
L 378.765491 83.947469 
L 380.228994 92.473087 
L 380.249771 92.34873 
L 381.419556 80.832249 
L 381.470946 81.109841 
L 382.934448 89.730157 
L 382.955226 89.607121 
L 384.12501 78.164019 
L 384.176401 78.444789 
L 385.639903 87.154043 
L 385.660681 87.032249 
L 386.830465 75.658063 
L 386.881855 75.941818 
L 388.345357 84.734602 
L 388.366135 84.613973 
L 389.53592 73.304512 
L 389.58731 73.591071 
L 391.050812 82.462303 
L 391.07159 82.342769 
L 392.241374 71.094098 
L 392.292764 71.383289 
L 393.756266 80.3282 
L 393.777044 80.209694 
L 394.946829 69.018114 
L 394.998219 69.309779 
L 396.461721 78.323887 
L 396.482499 78.206347 
L 397.652283 67.068386 
L 397.703673 67.362373 
L 399.167175 76.44147 
L 399.187953 76.324837 
L 400.357738 65.237235 
L 400.409128 65.533403 
L 401.87263 74.673537 
L 401.893408 74.557755 
L 403.063192 63.51745 
L 403.114582 63.815666 
L 404.578084 73.013124 
L 404.598862 72.898142 
L 405.768647 61.902256 
L 405.820037 62.202396 
L 407.283539 71.453693 
L 407.304317 71.339463 
L 408.474101 60.385295 
L 408.525491 60.687242 
L 409.988994 69.989102 
L 410.009771 69.875577 
L 411.179556 58.96059 
L 411.230946 59.264234 
L 412.694448 68.613583 
L 412.715226 68.500721 
L 413.88501 57.622532 
L 413.936401 57.92777 
L 415.399903 67.32172 
L 415.420681 67.20948 
L 416.590465 56.365851 
L 416.641855 56.672586 
L 418.105357 66.108424 
L 418.126135 65.996768 
L 419.29592 55.185598 
L 419.34731 55.493738 
L 420.810812 64.968917 
L 420.83159 64.85781 
L 422.001374 54.077124 
L 422.052764 54.386585 
L 423.516266 63.898711 
L 423.537044 63.788121 
L 424.706829 53.036065 
L 424.758219 53.346765 
L 426.221721 62.893593 
L 426.242499 62.783486 
L 427.412283 52.058319 
L 427.463673 52.370185 
L 428.927175 61.949603 
L 428.947953 61.839951 
L 430.117738 51.140038 
L 430.169128 51.452997 
L 431.63263 61.063024 
L 431.653408 60.953799 
L 432.823192 50.277604 
L 432.874582 50.59159 
L 434.338084 60.230364 
L 434.358862 60.12154 
L 435.528647 49.46762 
L 435.580037 49.782572 
L 437.043539 59.448344 
L 437.064317 59.339897 
L 438.234101 48.706898 
L 438.285491 49.022755 
L 439.748994 58.713884 
L 439.769771 58.605791 
L 440.939556 47.99244 
L 440.990946 48.309149 
L 442.454448 58.024092 
L 442.475226 57.916331 
L 443.64501 47.321434 
L 443.696401 47.638942 
L 445.159903 57.376251 
L 445.180681 57.268803 
L 446.350465 46.691236 
L 446.401855 47.009495 
L 447.865357 56.76781 
L 447.886135 56.660655 
L 449.05592 46.099365 
L 449.10731 46.418329 
L 450.570812 56.196373 
L 450.59159 56.089493 
L 451.761374 45.543491 
L 451.812764 45.863116 
L 453.276266 55.659689 
L 453.297044 55.553067 
L 454.466829 45.021422 
L 454.518219 45.34167 
L 455.981721 55.155644 
L 456.002499 55.049265 
L 457.172283 44.531105 
L 457.223673 44.851936 
L 458.687175 54.682254 
L 458.707953 54.576104 
L 459.877738 44.070607 
L 459.929128 44.391987 
L 461.39263 54.237654 
L 461.413408 54.131718 
L 462.583192 43.638116 
L 462.634582 43.960011 
L 464.098084 53.820094 
L 464.118862 53.714359 
L 465.288647 43.231927 
L 465.340037 43.554306 
L 466.803539 53.427928 
L 466.824317 53.322382 
L 467.994101 42.850442 
L 468.045491 43.173275 
L 469.508994 53.059613 
L 469.529771 52.954244 
L 470.699556 42.492157 
L 470.750946 42.815417 
L 472.214448 52.713698 
L 472.235226 52.608496 
L 473.40501 42.155662 
L 473.456401 42.479323 
L 474.919903 52.38882 
L 474.940681 52.283774 
L 476.110465 41.839632 
L 476.161855 42.16367 
L 477.625357 52.0837 
L 477.646135 51.978802 
L 478.81592 41.542822 
L 478.86731 41.867213 
L 480.330812 51.797137 
L 480.35159 51.692377 
L 481.521374 41.264063 
L 481.572764 41.588786 
L 483.036266 51.528002 
L 483.057044 51.423371 
L 484.226829 41.002258 
L 484.278219 41.327293 
L 485.741721 51.275235 
L 485.762499 51.170726 
L 486.932283 40.756374 
L 486.983673 41.081702 
L 488.447175 51.03784 
L 488.467953 50.933446 
L 489.637738 40.525445 
L 489.689128 40.851048 
L 491.15263 50.814884 
L 491.173408 50.710596 
L 492.343192 40.30856 
L 492.394582 40.634421 
L 493.858084 50.605486 
L 493.878862 50.5013 
L 495.048647 40.104866 
L 495.100037 40.430969 
L 496.563539 50.408824 
L 496.584317 50.304732 
L 497.754101 39.913559 
L 497.805491 40.239891 
L 499.268994 50.224122 
L 499.289771 50.120119 
L 500.459556 39.733887 
L 500.510946 40.060433 
L 501.974448 50.050653 
L 501.995226 49.946734 
L 503.16501 39.565143 
L 503.216401 39.891889 
L 504.679903 49.887734 
L 504.700681 49.783894 
L 505.870465 39.406661 
L 505.921855 39.733596 
L 507.385357 49.734724 
L 507.406135 49.630957 
L 508.57592 39.257817 
L 508.62731 39.58493 
L 510.090812 49.591019 
L 510.11159 49.487321 
L 511.281374 39.118026 
L 511.332764 39.445305 
L 512.796266 49.456053 
L 512.817044 49.35242 
L 513.986829 38.986736 
L 514.038219 39.314172 
L 515.501721 49.329296 
L 515.522499 49.225724 
L 516.692283 38.863431 
L 516.743673 39.191014 
L 518.207175 49.210248 
L 518.227953 49.106734 
L 519.397738 38.747625 
L 519.449128 39.075346 
L 520.91263 49.09844 
L 520.933408 48.99498 
L 522.103192 38.638862 
L 522.154582 38.966712 
L 523.618084 48.993432 
L 523.638862 48.890022 
L 524.808647 38.536714 
L 524.860037 38.864686 
L 526.323539 48.89481 
L 526.344317 48.791448 
L 527.514101 38.440778 
L 527.565491 38.768864 
L 529.028994 48.802186 
L 529.049771 48.698869 
L 530.219556 38.350677 
L 530.270946 38.67887 
L 531.734448 48.715196 
L 531.755226 48.61192 
L 532.92501 38.266055 
L 532.976401 38.594349 
L 534.439903 48.633495 
L 534.460681 48.530259 
L 535.630465 38.18658 
L 535.681855 38.514968 
L 537.145357 48.556764 
L 537.166135 48.453564 
L 538.33592 38.111938 
L 538.38731 38.440416 
L 539.850812 48.484699 
L 539.87159 48.381534 
L 541.041374 38.041836 
L 541.092764 38.370397 
L 542.556266 48.417017 
L 542.577044 48.313885 
L 543.746829 37.975997 
L 543.798219 38.304636 
L 545.261721 48.353451 
L 545.282499 48.25035 
L 546.452283 37.914162 
L 546.503673 38.242875 
L 547.967175 48.293751 
L 547.987953 48.190678 
L 549.157738 37.856088 
L 549.209128 38.18487 
L 550.67263 48.237682 
L 550.693408 48.134636 
L 551.863192 37.801546 
L 551.914582 38.130393 
L 553.378084 48.185023 
L 553.398862 48.082002 
L 554.568647 37.750321 
L 554.620037 38.079229 
L 556.083539 48.135566 
L 556.104317 48.03257 
L 557.274101 37.702211 
L 557.325491 38.031177 
L 558.788994 48.089117 
L 558.809771 47.986143 
L 559.979556 37.657027 
L 560.030946 37.986047 
L 561.494448 48.045493 
L 561.515226 47.94254 
L 562.68501 37.614591 
L 562.736401 37.943661 
L 564.199903 48.004523 
L 564.220681 47.901589 
L 565.390465 37.574736 
L 565.441855 37.903854 
L 566.905357 47.966044 
L 566.926135 47.863129 
L 568.09592 37.537305 
L 568.14731 37.866467 
L 569.610812 47.929905 
L 569.63159 47.827007 
L 570.801374 37.50215 
L 570.852764 37.831354 
L 572.316266 47.895964 
L 572.337044 47.793082 
L 573.506829 37.469134 
L 573.558219 37.798377 
L 575.021721 47.864087 
L 575.042499 47.761221 
L 576.212283 37.438125 
L 576.263673 37.767405 
L 576.417614 38.843934 
L 576.417614 38.843934 
" clip-path="url(#pa2377ea905)" style="fill: none; stroke: #1f77b4; stroke-width: 1.5; stroke-linecap: square"/>
   </g>
   <g id="patch_3">
    <path d="M 43.78125 354.958125 
L 43.78125 22.318125 
" style="fill: none; stroke: #000000; stroke-width: 0.8; stroke-linejoin: miter; stroke-linecap: square"/>
   </g>
   <g id="patch_4">
    <path d="M 601.78125 354.958125 
L 601.78125 22.318125 
" style="fill: none; stroke: #000000; stroke-width: 0.8; stroke-linejoin: miter; stroke-linecap: square"/>
   </g>
   <g id="patch_5">
    <path d="M 43.78125 354.958125 
L 601.78125 354.958125 
" style="fill: none; stroke: #000000; stroke-width: 0.8; stroke-linejoin: miter; stroke-linecap: square"/>
   </g>
   <g id="patch_6">
    <path d="M 43.78125 22.318125 
L 601.78125 22.318125 
" style="fill: none; stroke: #000000; stroke-width: 0.8; stroke-linejoin: miter; stroke-linecap: square"/>
   </g>
   <g id="text_19">
    <!-- PWM DAC Output -->
    <g transform="translate(270.694687 16.318125) scale(0.12 -0.12)">
     <defs>
      <path id="DejaVuSans-50" d="M 1259 4147 
L 1259 2394 
L 2053 2394 
Q 2494 2394 2734 2622 
Q 2975 2850 2975 3272 
Q 2975 3691 2734 3919 
Q 2494 4147 2053 4147 
L 1259 4147 
z
M 628 4666 
L 2053 4666 
Q 2838 4666 3239 4311 
Q 3641 3956 3641 3272 
Q 3641 2581 3239 2228 
Q 2838 1875 2053 1875 
L 1259 1875 
L 1259 0 
L 628 0 
L 628 4666 
z
" transform="scale(0.015625)"/>
      <path id="DejaVuSans-57" d="M 213 4666 
L 850 4666 
L 1831 722 
L 2809 4666 
L 3519 4666 
L 4500 722 
L 5478 4666 
L 6119 4666 
L 4947 0 
L 4153 0 
L 3169 4050 
L 2175 0 
L 1381 0 
L 213 4666 
z
" transform="scale(0.015625)"/>
      <path id="DejaVuSans-4d" d="M 628 4666 
L 1569 4666 
L 2759 1491 
L 3956 4666 
L 4897 4666 
L 4897 0 
L 4281 0 
L 4281 4097 
L 3078 897 
L 2444 897 
L 1241 4097 
L 1241 0 
L 628 0 
L 628 4666 
z
" transform="scale(0.015625)"/>
      <path id="DejaVuSans-44" d="M 1259 4147 
L 1259 519 
L 2022 519 
Q 2988 519 3436 956 
Q 3884 1394 3884 2338 
Q 3884 3275 3436 3711 
Q 2988 4147 2022 4147 
L 1259 4147 
z
M 628 4666 
L 1925 4666 
Q 3281 4666 3915 4102 
Q 4550 3538 4550 2338 
Q 4550 1131 3912 565 
Q 3275 0 1925 0 
L 628 0 
L 628 4666 
z
" transform="scale(0.015625)"/>
      <path id="DejaVuSans-41" d="M 2188 4044 
L 1331 1722 
L 3047 1722 
L 2188 4044 
z
M 1831 4666 
L 2547 4666 
L 4325 0 
L 3669 0 
L 3244 1197 
L 1141 1197 
L 716 0 
L 50 0 
L 1831 4666 
z
" transform="scale(0.015625)"/>
      <path id="DejaVuSans-43" d="M 4122 4306 
L 4122 3641 
Q 3803 3938 3442 4084 
Q 3081 4231 2675 4231 
Q 1875 4231 1450 3742 
Q 1025 3253 1025 2328 
Q 1025 1406 1450 917 
Q 1875 428 2675 428 
Q 3081 428 3442 575 
Q 3803 722 4122 1019 
L 4122 359 
Q 3791 134 3420 21 
Q 3050 -91 2638 -91 
Q 1578 -91 968 557 
Q 359 1206 359 2328 
Q 359 3453 968 4101 
Q 1578 4750 2638 4750 
Q 3056 4750 3426 4639 
Q 3797 4528 4122 4306 
z
" transform="scale(0.015625)"/>
     </defs>
     <use xlink:href="#DejaVuSans-50"/>
     <use xlink:href="#DejaVuSans-57" transform="translate(60.302734 0)"/>
     <use xlink:href="#DejaVuSans-4d" transform="translate(159.179688 0)"/>
     <use xlink:href="#DejaVuSans-20" transform="translate(245.458984 0)"/>
     <use xlink:href="#DejaVuSans-44" transform="translate(277.246094 0)"/>
     <use xlink:href="#DejaVuSans-41" transform="translate(352.498047 0)"/>
     <use xlink:href="#DejaVuSans-43" transform="translate(419.15625 0)"/>
     <use xlink:href="#DejaVuSans-20" transform="translate(488.980469 0)"/>
     <use xlink:href="#DejaVuSans-4f" transform="translate(520.767578 0)"/>
     <use xlink:href="#DejaVuSans-75" transform="translate(599.478516 0)"/>
     <use xlink:href="#DejaVuSans-74" transform="translate(662.857422 0)"/>
     <use xlink:href="#DejaVuSans-70" transform="translate(702.066406 0)"/>
     <use xlink:href="#DejaVuSans-75" transform="translate(765.542969 0)"/>
     <use xlink:href="#DejaVuSans-74" transform="translate(828.921875 0)"/>
    </g>
   </g>
  </g>
 </g>
 <defs>
  <clipPath id="pa2377ea905">
   <rect x="43.78125" y="22.318125" width="558" height="332.64"/>
  </clipPath>
 </defs>
</svg>
