<svg xmlns="http://www.w3.org/2000/svg" xmlns:xlink="http://www.w3.org/1999/xlink" width="1908" height="901" version="1.1">
<style type="text/css">
.l0{
  fill: #000000;
  stroke: #000000;
  stroke-linecap:round;
  stroke-linejoin:round;
  stroke-width: 1.01844;
}
.l1{
  fill: #00ccee;
  stroke: #00ccee;
  stroke-linecap:round;
  stroke-linejoin:round;
  stroke-width: 1.01844;
}
.l2{
  fill: #4f4f4f; fill-opacity: 0.2;
  stroke: #4f4f4f;
  stroke-linecap:round;
  stroke-linejoin:round;
  stroke-width: 1.01844;
}
.l3{
  fill: #cccccc; fill-opacity: 0.5;
  stroke: #cccccc;
  stroke-linecap:round;
  stroke-linejoin:round;
  stroke-width: 1.01844;
}
.l4{
  fill: #88dd00;
  stroke: #88dd00;
  stroke-linecap:round;
  stroke-linejoin:round;
  stroke-width: 1.01844;
}
.l5{
  fill: #bb2200;
  stroke: #bb2200;
  stroke-linecap:round;
  stroke-linejoin:round;
  stroke-width: 1.01844;
}
.l6{
  fill: #00ccee; fill-opacity: 0.5;
  stroke: #00ccee;
  stroke-linecap:round;
  stroke-linejoin:round;
  stroke-width: 1.01844;
}
.l7{
  fill: #ff0000; fill-opacity: 0.5;
  stroke: #ff0000;
  stroke-linecap:round;
  stroke-linejoin:round;
  stroke-width: 1.01844;
}
.l8{
  fill: #ffff00; fill-opacity: 0.5;
  stroke: #ffff00;
  stroke-linecap:round;
  stroke-linejoin:round;
  stroke-width: 1.01844;
}
.l9{
  fill: #ffffff; fill-opacity: 0.5;
  stroke: #ffffff;
  stroke-linecap:round;
  stroke-linejoin:round;
  stroke-width: 1.01844;
}
.l10{
  fill: #ff00ff;
  stroke: #ff00ff;
  stroke-linecap:round;
  stroke-linejoin:round;
  stroke-width: 1.01844;
}
.l11{
  fill: #00ff00; fill-opacity: 0.5;
  stroke: #00ff00;
  stroke-linecap:round;
  stroke-linejoin:round;
  stroke-width: 1.01844;
}
.l12{
  fill: #0044ff; fill-opacity: 0.5;
  stroke: #0044ff;
  stroke-linecap:round;
  stroke-linejoin:round;
  stroke-width: 1.01844;
}
.l13{
  fill: #aaaa00; fill-opacity: 0.5;
  stroke: #aaaa00;
  stroke-linecap:round;
  stroke-linejoin:round;
  stroke-width: 1.01844;
}
.l14{
  fill: #aaccaa; fill-opacity: 0.2;
  stroke: #aaccaa;
  stroke-linecap:round;
  stroke-linejoin:round;
  stroke-width: 1.01844;
}
.l15{
  fill: #ff7777; fill-opacity: 0.5;
  stroke: #ff7777;
  stroke-linecap:round;
  stroke-linejoin:round;
  stroke-width: 1.01844;
}
.l16{
  fill: #bfff81; fill-opacity: 0.5;
  stroke: #bfff81;
  stroke-linecap:round;
  stroke-linejoin:round;
  stroke-width: 1.01844;
}
.l17{
  fill: #00ffcc; fill-opacity: 0.2;
  stroke: #00ffcc;
  stroke-linecap:round;
  stroke-linejoin:round;
  stroke-width: 1.01844;
}
.l18{
  fill: #ce0097; fill-opacity: 0.5;
  stroke: #ce0097;
  stroke-linecap:round;
  stroke-linejoin:round;
  stroke-width: 1.01844;
}
.l19{
  fill: #d2d46b; fill-opacity: 0.2;
  stroke: #d2d46b;
  stroke-linecap:round;
  stroke-linejoin:round;
  stroke-width: 1.01844;
}
.l20{
  fill: #ef6158; fill-opacity: 0.2;
  stroke: #ef6158;
  stroke-linecap:round;
  stroke-linejoin:round;
  stroke-width: 1.01844;
}
.l21{
  fill: #fdb200; fill-opacity: 0.2;
  stroke: #fdb200;
  stroke-linecap:round;
  stroke-linejoin:round;
  stroke-width: 1.01844;
}
text {font-family: Sans-Serif;}
</style>
<rect class="l0" x="0" y="0" width="1908" height="901"/>
<path class="l4" style="fill:none;" d="M584.798 98.3848L584.798 784.887L1640.95 784.887L1640.95 98.3848L584.798 98.3848"/>
<path class="l4" d="M373.566 22.945L350.934 13.515L350.934 19.173L328.303 19.173L335.847 22.945L328.303 26.717L350.934 26.717L350.934 32.3749L373.566 22.945"/>
<path class="l4" d="M320.759 113.473L516.902 113.473"/>
<path class="l4" d="M320.759 128.561L516.902 128.561"/>
<path class="l4" d="M320.759 113.473L320.759 128.561"/>
<path class="l4" d="M516.902 113.473L516.902 128.561"/>
<path class="l4" d="M320.759 204L516.902 204"/>
<path class="l4" d="M320.759 219.088L516.902 219.088"/>
<path class="l4" d="M320.759 204L320.759 219.088"/>
<path class="l4" d="M516.902 204L516.902 219.088"/>
<path class="l4" d="M320.759 302.072L516.902 302.072"/>
<path class="l4" d="M320.759 317.16L516.902 317.16"/>
<path class="l4" d="M320.759 302.072L320.759 317.16"/>
<path class="l4" d="M516.902 302.072L516.902 317.16"/>
<path class="l4" d="M599.886 136.105L652.694 136.105"/>
<path class="l4" d="M599.886 136.105L599.886 151.193"/>
<path class="l4" d="M599.886 385.056L652.694 385.056"/>
<path class="l4" d="M599.886 385.056L599.886 400.144"/>
<path class="l4" d="M637.606 671.727L614.974 662.297L614.974 667.955L592.342 667.955L599.886 671.727L592.342 675.499L614.974 675.499L614.974 681.157L637.606 671.727"/>
<path class="l4" d="M637.606 716.991L614.974 707.561L614.974 713.219L592.342 713.219L599.886 716.991L592.342 720.763L614.974 720.763L614.974 726.421L637.606 716.991"/>
<path class="l4" d="M637.606 581.199L614.974 571.769L614.974 577.427L592.342 577.427L599.886 581.199L592.342 584.971L614.974 584.971L614.974 590.629L637.606 581.199"/>
<path class="l4" d="M637.606 626.463L614.974 617.033L614.974 622.691L592.342 622.691L599.886 626.463L592.342 630.235L614.974 630.235L614.974 635.893L637.606 626.463"/>
<path class="l4" d="M599.886 498.216L652.694 498.216"/>
<path class="l4" d="M599.886 498.216L599.886 513.304"/>
<path class="l4" d="M599.886 249.264L652.694 249.264"/>
<path class="l4" d="M599.886 249.264L599.886 264.352"/>
<path class="l5" d="M373.566 849.011L373.331 849.246L373.095 849.482L372.859 849.718L372.623 849.954L372.388 850.189L372.152 850.425L371.916 850.661L371.68 850.897L371.445 851.132L371.209 851.368L370.973 851.604L370.737 851.84L370.502 852.075L370.266 852.311L370.03 852.547L369.794 852.783L369.559 853.018L369.323 853.254L369.087 853.49L368.851 853.726L368.616 853.961L368.38 854.197L368.144 854.433L367.908 854.669L367.673 854.904L367.437 855.14L367.201 855.376L366.965 855.612L366.73 855.847L366.494 856.083L366.258 856.319L366.022 856.555L366.022 856.555L365.794 856.79L365.58 857.026L365.381 857.262L365.197 857.498L365.028 857.733L364.873 857.969L364.733 858.205L364.608 858.441L364.497 858.676L364.402 858.912L364.321 859.148L364.254 859.384L364.203 859.619L364.166 859.855L364.144 860.091L364.136 860.327L364.144 860.562L364.166 860.798L364.203 861.034L364.254 861.27L364.321 861.505L364.402 861.741L364.497 861.977L364.608 862.213L364.733 862.448L364.873 862.684L365.028 862.92L365.197 863.156L365.381 863.391L365.58 863.627L365.794 863.863L366.022 864.099L366.022 864.099L366.259 864.335L366.498 864.574L366.738 864.814L366.98 865.056L367.224 865.3L367.47 865.546L367.718 865.794L367.967 866.044L368.219 866.295L368.472 866.548L368.727 866.803L368.984 867.06L369.243 867.319L369.503 867.58L369.766 867.842L370.03 868.106L370.296 868.373L370.564 868.641L370.834 868.91L371.106 869.182L371.379 869.456L371.655 869.731L371.932 870.008L372.211 870.287L372.492 870.568L372.774 870.851L373.059 871.135L373.345 871.422L373.634 871.71L373.924 872L374.216 872.292L374.509 872.586L374.509 872.586L374.802 872.878L375.091 873.168L375.377 873.453L375.659 873.735L375.937 874.013L376.211 874.287L376.482 874.558L376.749 874.825L377.012 875.089L377.272 875.348L377.528 875.604L377.78 875.857L378.029 876.105L378.274 876.35L378.515 876.592L378.753 876.829L378.987 877.063L379.217 877.293L379.444 877.52L379.666 877.743L379.886 877.962L380.101 878.177L380.313 878.389L380.521 878.597L380.725 878.802L380.926 879.002L381.123 879.2L381.317 879.393L381.506 879.583L381.692 879.769L381.875 879.951L382.053 880.13L382.053 880.13L382.225 880.304L382.385 880.472L382.534 880.635L382.672 880.793L382.799 880.945L382.915 881.091L383.02 881.232L383.114 881.367L383.197 881.497L383.269 881.621L383.33 881.74L383.379 881.854L383.418 881.961L383.446 882.064L383.462 882.16L383.468 882.251L383.462 882.337L383.446 882.417L383.418 882.492L383.379 882.561L383.33 882.624L383.269 882.682L383.197 882.735L383.114 882.782L383.02 882.823L382.915 882.859L382.799 882.89L382.672 882.914L382.534 882.934L382.385 882.948L382.225 882.956L382.053 882.959L382.053 882.959L381.877 882.959L381.7 882.959L381.523 882.959L381.346 882.959L381.169 882.959L380.993 882.959L380.816 882.959L380.639 882.959L380.462 882.959L380.285 882.959L380.108 882.959L379.932 882.959L379.755 882.959L379.578 882.959L379.401 882.959L379.224 882.959L379.048 882.959L378.871 882.959L378.694 882.959L378.517 882.959L378.34 882.959L378.164 882.959L377.987 882.959L377.81 882.959L377.633 882.959L377.456 882.959L377.279 882.959L377.103 882.959L376.926 882.959L376.749 882.959L376.572 882.959L376.395 882.959L376.395 882.959L376.22 882.959L376.045 882.959L375.873 882.959L375.703 882.959L375.534 882.959L375.368 882.959L375.203 882.959L375.04 882.959L374.879 882.959L374.719 882.959L374.562 882.959L374.406 882.959L374.252 882.959L374.101 882.959L373.95 882.959L373.802 882.959L373.656 882.959L373.511 882.959L373.368 882.959L373.228 882.959L373.088 882.959L372.951 882.959L372.816 882.959L372.682 882.959L372.551 882.959L372.421 882.959L372.293 882.959L372.167 882.959L372.042 882.959L371.92 882.959L371.799 882.959L371.68 882.959L371.68 882.959L371.563 882.957L371.445 882.951L371.327 882.942L371.209 882.929L371.091 882.913L370.973 882.892L370.855 882.868L370.737 882.841L370.62 882.809L370.502 882.774L370.384 882.736L370.266 882.693L370.148 882.647L370.03 882.598L369.912 882.544L369.794 882.487L369.677 882.426L369.559 882.362L369.441 882.294L369.323 882.222L369.205 882.146L369.087 882.067L368.969 881.984L368.851 881.898L368.734 881.807L368.616 881.714L368.498 881.616L368.38 881.515L368.262 881.41L368.144 881.301L368.026 881.189L367.908 881.073L367.908 881.073L367.791 880.955L367.673 880.837L367.555 880.719L367.437 880.601L367.319 880.483L367.201 880.365L367.083 880.247L366.965 880.13L366.848 880.012L366.73 879.894L366.612 879.776L366.494 879.658L366.376 879.54L366.258 879.422L366.14 879.304L366.022 879.187L365.905 879.069L365.787 878.951L365.669 878.833L365.551 878.715L365.433 878.597L365.315 878.479L365.197 878.362L365.079 878.244L364.962 878.126L364.844 878.008L364.726 877.89L364.608 877.772L364.49 877.654L364.372 877.536L364.254 877.419L364.136 877.301L364.136 877.301L364.017 877.181L363.893 877.058L363.766 876.93L363.635 876.8L363.501 876.665L363.363 876.527L363.221 876.385L363.076 876.24L362.926 876.091L362.774 875.938L362.617 875.781L362.457 875.621L362.293 875.457L362.125 875.289L361.954 875.118L361.779 874.943L361.6 874.764L361.418 874.582L361.232 874.396L361.042 874.206L360.849 874.013L360.652 873.816L360.451 873.615L360.247 873.411L360.038 873.203L359.827 872.991L359.611 872.775L359.392 872.556L359.169 872.333L358.943 872.107L358.712 871.877L358.478 871.643L358.478 871.643L358.243 871.414L358.007 871.201L357.771 871.002L357.535 870.818L357.3 870.648L357.064 870.493L356.828 870.353L356.592 870.228L356.357 870.118L356.121 870.022L355.885 869.941L355.649 869.875L355.414 869.823L355.178 869.786L354.942 869.764L354.706 869.757L354.471 869.764L354.235 869.786L353.999 869.823L353.763 869.875L353.528 869.941L353.292 870.022L353.056 870.118L352.82 870.228L352.585 870.353L352.349 870.493L352.113 870.648L351.877 870.818L351.642 871.002L351.406 871.201L351.17 871.414L350.934 871.643L350.934 871.643L350.701 871.877L350.47 872.107L350.244 872.333L350.021 872.556L349.802 872.775L349.586 872.991L349.374 873.203L349.166 873.411L348.962 873.615L348.761 873.816L348.564 874.013L348.371 874.206L348.181 874.396L347.995 874.582L347.813 874.764L347.634 874.943L347.459 875.118L347.288 875.289L347.12 875.457L346.956 875.621L346.796 875.781L346.639 875.938L346.487 876.091L346.337 876.24L346.192 876.385L346.05 876.527L345.912 876.665L345.777 876.8L345.647 876.93L345.52 877.058L345.396 877.181L345.276 877.301L345.276 877.301L345.159 877.419L345.041 877.536L344.923 877.654L344.805 877.772L344.687 877.89L344.569 878.008L344.451 878.126L344.333 878.244L344.216 878.362L344.098 878.479L343.98 878.597L343.862 878.715L343.744 878.833L343.626 878.951L343.508 879.069L343.391 879.187L343.273 879.304L343.155 879.422L343.037 879.54L342.919 879.658L342.801 879.776L342.683 879.894L342.565 880.012L342.448 880.13L342.33 880.247L342.212 880.365L342.094 880.483L341.976 880.601L341.858 880.719L341.74 880.837L341.622 880.955L341.505 881.073L341.505 881.073L341.387 881.189L341.269 881.301L341.151 881.41L341.033 881.515L340.915 881.616L340.797 881.714L340.679 881.807L340.562 881.898L340.444 881.984L340.326 882.067L340.208 882.146L340.09 882.222L339.972 882.294L339.854 882.362L339.736 882.426L339.619 882.487L339.501 882.544L339.383 882.598L339.265 882.647L339.147 882.693L339.029 882.736L338.911 882.774L338.793 882.809L338.676 882.841L338.558 882.868L338.44 882.892L338.322 882.913L338.204 882.929L338.086 882.942L337.968 882.951L337.85 882.957L337.733 882.959L337.733 882.959L337.614 882.959L337.493 882.959L337.371 882.959L337.246 882.959L337.12 882.959L336.992 882.959L336.862 882.959L336.731 882.959L336.597 882.959L336.462 882.959L336.324 882.959L336.185 882.959L336.045 882.959L335.902 882.959L335.757 882.959L335.611 882.959L335.463 882.959L335.312 882.959L335.16 882.959L335.007 882.959L334.851 882.959L334.694 882.959L334.534 882.959L334.373 882.959L334.21 882.959L334.045 882.959L333.879 882.959L333.71 882.959L333.54 882.959L333.367 882.959L333.193 882.959L333.018 882.959L333.018 882.959L332.841 882.959L332.664 882.959L332.487 882.959L332.31 882.959L332.133 882.959L331.957 882.959L331.78 882.959L331.603 882.959L331.426 882.959L331.249 882.959L331.073 882.959L330.896 882.959L330.719 882.959L330.542 882.959L330.365 882.959L330.189 882.959L330.012 882.959L329.835 882.959L329.658 882.959L329.481 882.959L329.304 882.959L329.128 882.959L328.951 882.959L328.774 882.959L328.597 882.959L328.42 882.959L328.244 882.959L328.067 882.959L327.89 882.959L327.713 882.959L327.536 882.959L327.36 882.959L327.36 882.959L327.188 882.956L327.028 882.948L326.879 882.934L326.741 882.914L326.614 882.89L326.498 882.859L326.393 882.823L326.299 882.782L326.216 882.735L326.144 882.682L326.083 882.624L326.033 882.561L325.995 882.492L325.967 882.417L325.951 882.337L325.945 882.251L325.951 882.16L325.967 882.064L325.995 881.961L326.033 881.854L326.083 881.74L326.144 881.621L326.216 881.497L326.299 881.367L326.393 881.232L326.498 881.091L326.614 880.945L326.741 880.793L326.879 880.635L327.028 880.472L327.188 880.304L327.36 880.13L327.36 880.13L327.538 879.951L327.721 879.769L327.907 879.583L328.096 879.393L328.29 879.2L328.487 879.002L328.687 878.802L328.892 878.597L329.1 878.389L329.312 878.177L329.527 877.962L329.747 877.743L329.969 877.52L330.196 877.293L330.426 877.063L330.66 876.829L330.898 876.592L331.139 876.35L331.384 876.105L331.633 875.857L331.885 875.604L332.141 875.348L332.401 875.089L332.664 874.825L332.931 874.558L333.202 874.287L333.476 874.013L333.754 873.735L334.036 873.453L334.322 873.168L334.611 872.878L334.904 872.586L334.904 872.586L335.197 872.292L335.489 872L335.779 871.71L336.068 871.422L336.354 871.135L336.638 870.851L336.921 870.568L337.202 870.287L337.481 870.008L337.758 869.731L338.034 869.456L338.307 869.182L338.579 868.91L338.849 868.641L339.117 868.373L339.383 868.106L339.647 867.842L339.91 867.58L340.17 867.319L340.429 867.06L340.686 866.803L340.941 866.548L341.194 866.295L341.446 866.044L341.695 865.794L341.943 865.546L342.189 865.3L342.433 865.056L342.675 864.814L342.915 864.574L343.154 864.335L343.391 864.099L343.391 864.099L343.619 863.863L343.833 863.627L344.031 863.391L344.216 863.156L344.385 862.92L344.54 862.684L344.68 862.448L344.805 862.213L344.916 861.977L345.011 861.741L345.092 861.505L345.159 861.27L345.21 861.034L345.247 860.798L345.269 860.562L345.276 860.327L345.269 860.091L345.247 859.855L345.21 859.619L345.159 859.384L345.092 859.148L345.011 858.912L344.916 858.676L344.805 858.441L344.68 858.205L344.54 857.969L344.385 857.733L344.216 857.498L344.031 857.262L343.833 857.026L343.619 856.79L343.391 856.555L343.391 856.555L343.154 856.318L342.915 856.08L342.675 855.839L342.433 855.597L342.189 855.353L341.943 855.107L341.695 854.859L341.446 854.61L341.194 854.358L340.941 854.105L340.686 853.85L340.429 853.593L340.17 853.334L339.91 853.074L339.647 852.811L339.383 852.547L339.117 852.281L338.849 852.013L338.579 851.743L338.307 851.471L338.034 851.198L337.758 850.922L337.481 850.645L337.202 850.366L336.921 850.085L336.638 849.803L336.354 849.518L336.068 849.232L335.779 848.943L335.489 848.653L335.197 848.361L334.904 848.068L334.904 848.068L334.611 847.775L334.322 847.486L334.036 847.2L333.754 846.918L333.476 846.64L333.202 846.366L332.931 846.095L332.664 845.828L332.401 845.565L332.141 845.305L331.885 845.049L331.633 844.797L331.384 844.548L331.139 844.303L330.898 844.062L330.66 843.824L330.426 843.59L330.196 843.36L329.969 843.134L329.747 842.911L329.527 842.692L329.312 842.476L329.1 842.264L328.892 842.056L328.687 841.852L328.487 841.651L328.29 841.454L328.096 841.26L327.907 841.071L327.721 840.885L327.538 840.702L327.36 840.524L327.36 840.524L327.188 840.35L327.028 840.181L326.879 840.018L326.741 839.861L326.614 839.709L326.498 839.562L326.393 839.421L326.299 839.286L326.216 839.156L326.144 839.032L326.083 838.913L326.033 838.8L325.995 838.692L325.967 838.59L325.951 838.493L325.945 838.402L325.951 838.316L325.967 838.236L325.995 838.162L326.033 838.093L326.083 838.029L326.144 837.971L326.216 837.919L326.299 837.872L326.393 837.83L326.498 837.794L326.614 837.764L326.741 837.739L326.879 837.72L327.028 837.706L327.188 837.697L327.36 837.695L327.36 837.695L327.536 837.695L327.713 837.695L327.89 837.695L328.067 837.695L328.244 837.695L328.42 837.695L328.597 837.695L328.774 837.695L328.951 837.695L329.128 837.695L329.304 837.695L329.481 837.695L329.658 837.695L329.835 837.695L330.012 837.695L330.189 837.695L330.365 837.695L330.542 837.695L330.719 837.695L330.896 837.695L331.073 837.695L331.249 837.695L331.426 837.695L331.603 837.695L331.78 837.695L331.957 837.695L332.133 837.695L332.31 837.695L332.487 837.695L332.664 837.695L332.841 837.695L333.018 837.695L333.018 837.695L333.193 837.695L333.367 837.695L333.54 837.695L333.71 837.695L333.879 837.695L334.045 837.695L334.21 837.695L334.373 837.695L334.534 837.695L334.694 837.695L334.851 837.695L335.007 837.695L335.16 837.695L335.312 837.695L335.463 837.695L335.611 837.695L335.757 837.695L335.902 837.695L336.045 837.695L336.185 837.695L336.324 837.695L336.462 837.695L336.597 837.695L336.731 837.695L336.862 837.695L336.992 837.695L337.12 837.695L337.246 837.695L337.371 837.695L337.493 837.695L337.614 837.695L337.733 837.695L337.733 837.695L337.85 837.697L337.968 837.702L338.086 837.711L338.204 837.724L338.322 837.741L338.44 837.761L338.558 837.785L338.676 837.813L338.793 837.844L338.911 837.879L339.029 837.918L339.147 837.96L339.265 838.006L339.383 838.056L339.501 838.109L339.619 838.166L339.736 838.227L339.854 838.291L339.972 838.36L340.09 838.431L340.208 838.507L340.326 838.586L340.444 838.669L340.562 838.756L340.679 838.846L340.797 838.94L340.915 839.037L341.033 839.139L341.151 839.244L341.269 839.352L341.387 839.465L341.505 839.581L341.505 839.581L341.622 839.699L341.74 839.816L341.858 839.934L341.976 840.052L342.094 840.17L342.212 840.288L342.33 840.406L342.448 840.524L342.565 840.642L342.683 840.759L342.801 840.877L342.919 840.995L343.037 841.113L343.155 841.231L343.273 841.349L343.391 841.467L343.508 841.585L343.626 841.702L343.744 841.82L343.862 841.938L343.98 842.056L344.098 842.174L344.216 842.292L344.333 842.41L344.451 842.528L344.569 842.645L344.687 842.763L344.805 842.881L344.923 842.999L345.041 843.117L345.159 843.235L345.276 843.353L345.276 843.353L345.396 843.472L345.52 843.596L345.647 843.723L345.777 843.854L345.912 843.988L346.05 844.126L346.192 844.268L346.337 844.414L346.487 844.563L346.639 844.716L346.796 844.872L346.956 845.032L347.12 845.196L347.288 845.364L347.459 845.535L347.634 845.71L347.813 845.889L347.995 846.071L348.181 846.257L348.371 846.447L348.564 846.64L348.761 846.837L348.962 847.038L349.166 847.243L349.374 847.451L349.586 847.663L349.802 847.878L350.021 848.097L350.244 848.32L350.47 848.547L350.701 848.777L350.934 849.011L350.934 849.011L351.17 849.239L351.406 849.453L351.642 849.652L351.877 849.836L352.113 850.005L352.349 850.16L352.585 850.3L352.82 850.425L353.056 850.536L353.292 850.631L353.528 850.713L353.763 850.779L353.999 850.83L354.235 850.867L354.471 850.889L354.706 850.897L354.942 850.889L355.178 850.867L355.414 850.83L355.649 850.779L355.885 850.713L356.121 850.631L356.357 850.536L356.592 850.425L356.828 850.3L357.064 850.16L357.3 850.005L357.535 849.836L357.771 849.652L358.007 849.453L358.243 849.239L358.478 849.011L358.478 849.011L358.712 848.777L358.943 848.547L359.169 848.32L359.392 848.097L359.611 847.878L359.827 847.663L360.038 847.451L360.247 847.243L360.451 847.038L360.652 846.837L360.849 846.64L361.042 846.447L361.232 846.257L361.418 846.071L361.6 845.889L361.779 845.71L361.954 845.535L362.125 845.364L362.293 845.196L362.457 845.032L362.617 844.872L362.774 844.716L362.926 844.563L363.076 844.414L363.221 844.268L363.363 844.126L363.501 843.988L363.635 843.854L363.766 843.723L363.893 843.596L364.017 843.472L364.136 843.353L364.136 843.353L364.254 843.235L364.372 843.117L364.49 842.999L364.608 842.881L364.726 842.763L364.844 842.645L364.962 842.528L365.079 842.41L365.197 842.292L365.315 842.174L365.433 842.056L365.551 841.938L365.669 841.82L365.787 841.702L365.905 841.585L366.022 841.467L366.14 841.349L366.258 841.231L366.376 841.113L366.494 840.995L366.612 840.877L366.73 840.759L366.848 840.642L366.965 840.524L367.083 840.406L367.201 840.288L367.319 840.17L367.437 840.052L367.555 839.934L367.673 839.816L367.791 839.699L367.908 839.581L367.908 839.581L368.026 839.465L368.144 839.352L368.262 839.244L368.38 839.139L368.498 839.037L368.616 838.94L368.734 838.846L368.851 838.756L368.969 838.669L369.087 838.586L369.205 838.507L369.323 838.431L369.441 838.36L369.559 838.291L369.677 838.227L369.794 838.166L369.912 838.109L370.03 838.056L370.148 838.006L370.266 837.96L370.384 837.918L370.502 837.879L370.62 837.844L370.737 837.813L370.855 837.785L370.973 837.761L371.091 837.741L371.209 837.724L371.327 837.711L371.445 837.702L371.563 837.697L371.68 837.695L371.68 837.695L371.799 837.695L371.92 837.695L372.042 837.695L372.167 837.695L372.293 837.695L372.421 837.695L372.551 837.695L372.682 837.695L372.816 837.695L372.951 837.695L373.088 837.695L373.228 837.695L373.368 837.695L373.511 837.695L373.656 837.695L373.802 837.695L373.95 837.695L374.101 837.695L374.252 837.695L374.406 837.695L374.562 837.695L374.719 837.695L374.879 837.695L375.04 837.695L375.203 837.695L375.368 837.695L375.534 837.695L375.703 837.695L375.873 837.695L376.045 837.695L376.22 837.695L376.395 837.695L376.395 837.695L376.572 837.695L376.749 837.695L376.926 837.695L377.103 837.695L377.279 837.695L377.456 837.695L377.633 837.695L377.81 837.695L377.987 837.695L378.164 837.695L378.34 837.695L378.517 837.695L378.694 837.695L378.871 837.695L379.048 837.695L379.224 837.695L379.401 837.695L379.578 837.695L379.755 837.695L379.932 837.695L380.108 837.695L380.285 837.695L380.462 837.695L380.639 837.695L380.816 837.695L380.993 837.695L381.169 837.695L381.346 837.695L381.523 837.695L381.7 837.695L381.877 837.695L382.053 837.695L382.053 837.695L382.225 837.697L382.385 837.706L382.534 837.72L382.672 837.739L382.799 837.764L382.915 837.794L383.02 837.83L383.114 837.872L383.197 837.919L383.269 837.971L383.33 838.029L383.379 838.093L383.418 838.162L383.446 838.236L383.462 838.316L383.468 838.402L383.462 838.493L383.446 838.59L383.418 838.692L383.379 838.8L383.33 838.913L383.269 839.032L383.197 839.156L383.114 839.286L383.02 839.421L382.915 839.562L382.799 839.709L382.672 839.861L382.534 840.018L382.385 840.181L382.225 840.35L382.053 840.524L382.053 840.524L381.874 840.703L381.689 840.888L381.498 841.079L381.302 841.275L381.1 841.477L380.893 841.684L380.68 841.897L380.462 842.115L380.238 842.339L380.009 842.568L379.774 842.803L379.534 843.043L379.288 843.289L379.037 843.541L378.78 843.798L378.517 844.06L378.249 844.328L377.976 844.601L377.697 844.88L377.412 845.165L377.122 845.455L376.826 845.751L376.525 846.052L376.219 846.359L375.906 846.671L375.589 846.988L375.265 847.312L374.937 847.64L374.602 847.975L374.263 848.315L373.917 848.66L373.566 849.011"/>
<path class="l6" d="M550.85 860.327L1150.6 860.327"/>
<path class="l6" d="M260.407 860.327L309.443 860.327"/>
<path class="l15" d="M1210.95 30.489L1603.24 30.489"/>
<path class="l15" d="M1210.95 83.2968L1603.24 83.2968"/>
<path class="l15" d="M1210.95 30.489L1210.95 83.2968"/>
<path class="l15" d="M1603.24 30.489L1603.24 83.2968"/>
<path class="l15" d="M1226.04 30.489L1226.04 15.401L1618.32 15.401L1618.32 75.7528L1603.24 75.7528L1603.24 30.489L1226.04 30.489"/>
<text fill="#cccccc"  xml:space="preserve" font-size="15.6915" transform="translate(558.394, 878.347)" >         start_page.sch</text>
<text fill="#cccccc"  xml:space="preserve" font-size="15.6915" transform="translate(558.394, 855.715)" >Copyright 2024 IHP PDK Authors</text>
<text fill="#cccccc"  xml:space="preserve" font-size="15.6915" transform="translate(978.596, 855.715)" >2025-07-29  10:15:14</text>
<text fill="#cccccc"  xml:space="preserve" font-size="39.2287" transform="translate(384.882, 877.086)" >SCHEM</text>
<text fill="#cccccc"  xml:space="preserve" font-size="15.6915" transform="translate(381.11, 28.1928)" >IHP-Open-PDK</text>
<text fill="#cccccc"  xml:space="preserve" font-size="11.7686" transform="translate(361.119, 127.176)" >IHP_testcases</text>
<text fill="#cccccc"  xml:space="preserve" font-size="7.84574" transform="translate(520.674, 111.544)" >x1</text>
<text fill="#cccccc"  xml:space="preserve" font-size="11.7686" transform="translate(361.119, 217.704)" >IHP_testcases</text>
<text fill="#cccccc"  xml:space="preserve" font-size="7.84574" transform="translate(520.674, 202.072)" >x2</text>
<text fill="#cccccc"  xml:space="preserve" font-size="11.7686" transform="translate(361.119, 315.776)" >IHP130_stdcells</text>
<text fill="#cccccc"  xml:space="preserve" font-size="7.84574" transform="translate(520.674, 300.143)" >x3</text>
<text fill="#cccccc"  xml:space="preserve" font-size="11.7686" transform="translate(603.658, 116.615)" >Libs_Ngspice</text>
<text fill="#cccccc"  xml:space="preserve" font-size="11.7686" style="font-family:Monospace;" transform="translate(611.202, 164.061)" >.lib cornerMOSlv.lib mos_tt</text>
<text fill="#cccccc"  xml:space="preserve" font-size="11.7686" style="font-family:Monospace;" transform="translate(611.202, 177.56)" >.lib cornerMOShv.lib mos_tt</text>
<text fill="#cccccc"  xml:space="preserve" font-size="11.7686" style="font-family:Monospace;" transform="translate(611.202, 191.058)" >.lib cornerHBT.lib hbt_typ</text>
<text fill="#cccccc"  xml:space="preserve" font-size="11.7686" style="font-family:Monospace;" transform="translate(611.202, 204.557)" >.lib cornerRES.lib res_typ</text>
<text fill="#cccccc"  xml:space="preserve" font-size="11.7686" transform="translate(603.658, 131.703)" >SIM=ngspice</text>
<text fill="#cccccc"  xml:space="preserve" font-size="11.7686" transform="translate(603.658, 365.566)" >Libs_Xyce</text>
<text fill="#cccccc"  xml:space="preserve" font-size="11.7686" style="font-family:Monospace;" transform="translate(611.202, 413.012)" >.lib /foss/pdks/ihp-sg13g2/libs.tech/xyce/models/cornerMOSlv.lib mos_tt</text>
<text fill="#cccccc"  xml:space="preserve" font-size="11.7686" style="font-family:Monospace;" transform="translate(611.202, 426.511)" >.lib /foss/pdks/ihp-sg13g2/libs.tech/xyce/models/cornerMOShv.lib mos_tt</text>
<text fill="#cccccc"  xml:space="preserve" font-size="11.7686" style="font-family:Monospace;" transform="translate(611.202, 440.01)" >.lib /foss/pdks/ihp-sg13g2/libs.tech/xyce/models/cornerHBT.lib hbt_typ</text>
<text fill="#cccccc"  xml:space="preserve" font-size="11.7686" style="font-family:Monospace;" transform="translate(611.202, 453.508)" >.lib /foss/pdks/ihp-sg13g2/libs.tech/xyce/models/cornerRES.lib res_typ</text>
<text fill="#cccccc"  xml:space="preserve" font-size="11.7686" transform="translate(603.658, 380.654)" >SIM=xyce</text>
<text fill="#cccccc"  xml:space="preserve" font-size="23.5372" transform="translate(1216.23, 62.4223)" >intuitive_interface_cheatsheet</text>
<text fill="#cccccc"  xml:space="preserve" font-size="15.6915" transform="translate(645.15, 676.975)" >OP annotate</text>
<text fill="#cccccc"  xml:space="preserve" font-size="15.6915" transform="translate(645.15, 722.239)" >Load waves</text>
<text fill="#cccccc"  xml:space="preserve" font-size="15.6915" transform="translate(645.15, 586.447)" >SimulateNGSPICE</text>
<text fill="#cccccc"  xml:space="preserve" font-size="15.6915" transform="translate(645.15, 631.711)" >SimulateXyce</text>
<text fill="#cccccc"  xml:space="preserve" font-size="11.7686" transform="translate(603.658, 478.726)" >SimulatorXyce</text>
<text fill="#cccccc"  xml:space="preserve" font-size="11.7686" style="font-family:Monospace;" transform="translate(611.202, 526.172)" >.preprocess replaceground true</text>
<text fill="#cccccc"  xml:space="preserve" font-size="11.7686" style="font-family:Monospace;" transform="translate(611.202, 539.671)" >.option temp=27</text>
<text fill="#cccccc"  xml:space="preserve" font-size="11.7686" style="font-family:Monospace;" transform="translate(611.202, 553.169)" >.op</text>
<text fill="#cccccc"  xml:space="preserve" font-size="11.7686" transform="translate(603.658, 493.814)" >SIM=xyce</text>
<text fill="#cccccc"  xml:space="preserve" font-size="11.7686" transform="translate(603.658, 229.774)" >SimulatorNGSPICE</text>
<text fill="#cccccc"  xml:space="preserve" font-size="11.7686" style="font-family:Monospace;" transform="translate(611.202, 277.221)" >.include &lt;filename&gt;.save</text>
<text fill="#cccccc"  xml:space="preserve" font-size="11.7686" style="font-family:Monospace;" transform="translate(611.202, 290.719)" >.param temp=27</text>
<text fill="#cccccc"  xml:space="preserve" font-size="11.7686" style="font-family:Monospace;" transform="translate(611.202, 304.218)" >.control</text>
<text fill="#cccccc"  xml:space="preserve" font-size="11.7686" style="font-family:Monospace;" transform="translate(611.202, 317.717)" >op</text>
<text fill="#cccccc"  xml:space="preserve" font-size="11.7686" style="font-family:Monospace;" transform="translate(611.202, 331.215)" >write &lt;filename&gt;.raw</text>
<text fill="#cccccc"  xml:space="preserve" font-size="11.7686" style="font-family:Monospace;" transform="translate(611.202, 344.714)" >.endc</text>
<text fill="#cccccc"  xml:space="preserve" font-size="11.7686" transform="translate(603.658, 244.862)" >SIM=ngspice</text>
<text fill="#cccccc"  xml:space="preserve" font-size="23.5372" transform="translate(373.566, 89.5806)" >NGSPICE</text>
<text fill="#cccccc"  xml:space="preserve" font-size="23.5372" transform="translate(320.759, 180.108)" >NGSPICE + XYCE</text>
<text fill="#cccccc"  xml:space="preserve" font-size="23.5372" transform="translate(320.759, 278.18)" >STANDARD CELLS</text>
<text fill="#cccccc"  xml:space="preserve" font-size="23.5372" transform="translate(584.798, 89.5806)" >Useful stuff:</text>
<text fill="#cccccc"  xml:space="preserve" font-size="15.6915" transform="translate(1158.14, 172.984)" >Load IHP SG13G2 spice models for ngspice</text>
<text fill="#cccccc"  xml:space="preserve" font-size="15.6915" transform="translate(1158.14, 678.431)" >Annotate operating points (voltages, currents) in schematic</text>
<text fill="#cccccc"  xml:space="preserve" font-size="15.6915" transform="translate(1158.14, 723.695)" >Read .raw file and load waves into Xschem graphs</text>
<text fill="#cccccc"  xml:space="preserve" font-size="15.6915" transform="translate(1158.14, 437.024)" >Load IHP SG13G2 spice models for xyce</text>
<text fill="#cccccc"  xml:space="preserve" font-size="15.6915" transform="translate(1158.14, 587.903)" >Create .save file, create netlist, simulate with ngspice</text>
<text fill="#cccccc"  xml:space="preserve" font-size="15.6915" transform="translate(1158.14, 633.167)" >Create netlist, simulate with xyce</text>
<text fill="#cccccc"  xml:space="preserve" font-size="15.6915" transform="translate(1158.14, 308.776)" >Simulation skeleton for ngspice</text>
<text fill="#cccccc"  xml:space="preserve" font-size="15.6915" transform="translate(1158.14, 520.008)" >Simulation skeleton for xyce</text>
<text fill="#00ff00"  xml:space="preserve" font-size="11.7686" transform="translate(592.342, 757.853)" >Ctrl-Click to execute launcher</text>
<text fill="#00ff00"  xml:space="preserve" font-size="11.7686" transform="translate(592.342, 772.941)" >.save file can be created with IHP-&gt;"Create FET and BIP .save file"</text>
</svg>
